%TF.GenerationSoftware,KiCad,Pcbnew,(5.1.5)-3*%
%TF.CreationDate,2020-11-20T20:56:07+01:00*%
%TF.ProjectId,PCB,5043422e-6b69-4636-9164-5f7063625858,rev?*%
%TF.SameCoordinates,Original*%
%TF.FileFunction,Copper,L1,Top*%
%TF.FilePolarity,Positive*%
%FSLAX46Y46*%
G04 Gerber Fmt 4.6, Leading zero omitted, Abs format (unit mm)*
G04 Created by KiCad (PCBNEW (5.1.5)-3) date 2020-11-20 20:56:07*
%MOMM*%
%LPD*%
G04 APERTURE LIST*
%TA.AperFunction,ComponentPad*%
%ADD10O,2.200000X2.200000*%
%TD*%
%TA.AperFunction,ComponentPad*%
%ADD11R,2.200000X2.200000*%
%TD*%
%TA.AperFunction,ComponentPad*%
%ADD12C,10.160000*%
%TD*%
%TA.AperFunction,ComponentPad*%
%ADD13O,2.400000X1.600000*%
%TD*%
%TA.AperFunction,ComponentPad*%
%ADD14R,2.400000X1.600000*%
%TD*%
%TA.AperFunction,ComponentPad*%
%ADD15O,1.600000X1.600000*%
%TD*%
%TA.AperFunction,ComponentPad*%
%ADD16R,1.600000X1.600000*%
%TD*%
%TA.AperFunction,ComponentPad*%
%ADD17O,1.905000X2.000000*%
%TD*%
%TA.AperFunction,ComponentPad*%
%ADD18R,1.905000X2.000000*%
%TD*%
%TA.AperFunction,ComponentPad*%
%ADD19C,5.000000*%
%TD*%
%TA.AperFunction,ComponentPad*%
%ADD20C,1.524000*%
%TD*%
%TA.AperFunction,ViaPad*%
%ADD21C,0.800000*%
%TD*%
%TA.AperFunction,Conductor*%
%ADD22C,2.000000*%
%TD*%
%TA.AperFunction,Conductor*%
%ADD23C,3.000000*%
%TD*%
%TA.AperFunction,Conductor*%
%ADD24C,0.254000*%
%TD*%
G04 APERTURE END LIST*
D10*
%TO.P,D1,2*%
%TO.N,Net-(D1-Pad2)*%
X165735000Y-23241000D03*
D11*
%TO.P,D1,1*%
%TO.N,+15V*%
X175895000Y-23241000D03*
%TD*%
D12*
%TO.P,J4,3*%
%TO.N,Net-(J4-Pad3)*%
X185240000Y-31300000D03*
%TO.P,J4,2*%
%TO.N,Net-(J4-Pad2)*%
X185240000Y-49300000D03*
%TO.P,J4,1*%
%TO.N,Net-(J4-Pad1)*%
X185240000Y-67300000D03*
%TD*%
D13*
%TO.P,U4,14*%
%TO.N,+5V*%
X107950000Y-48260000D03*
%TO.P,U4,7*%
%TO.N,GND*%
X115570000Y-33020000D03*
%TO.P,U4,13*%
X107950000Y-45720000D03*
%TO.P,U4,6*%
%TO.N,Net-(U4-Pad6)*%
X115570000Y-35560000D03*
%TO.P,U4,12*%
%TO.N,Net-(U4-Pad12)*%
X107950000Y-43180000D03*
%TO.P,U4,5*%
%TO.N,GND*%
X115570000Y-38100000D03*
%TO.P,U4,11*%
X107950000Y-40640000D03*
%TO.P,U4,4*%
%TO.N,Net-(U4-Pad4)*%
X115570000Y-40640000D03*
%TO.P,U4,10*%
%TO.N,Net-(U4-Pad10)*%
X107950000Y-38100000D03*
%TO.P,U4,3*%
%TO.N,GND*%
X115570000Y-43180000D03*
%TO.P,U4,9*%
X107950000Y-35560000D03*
%TO.P,U4,2*%
%TO.N,Net-(U3-Pad1)*%
X115570000Y-45720000D03*
%TO.P,U4,8*%
%TO.N,Net-(U4-Pad8)*%
X107950000Y-33020000D03*
D14*
%TO.P,U4,1*%
%TO.N,Net-(U2-Pad3)*%
X115570000Y-48260000D03*
%TD*%
D15*
%TO.P,U3,14*%
%TO.N,+5V*%
X147320000Y-22860000D03*
%TO.P,U3,7*%
%TO.N,GND*%
X162560000Y-30480000D03*
%TO.P,U3,13*%
%TO.N,Net-(U3-Pad1)*%
X149860000Y-22860000D03*
%TO.P,U3,6*%
%TO.N,Net-(D1-Pad2)*%
X160020000Y-30480000D03*
%TO.P,U3,12*%
X152400000Y-22860000D03*
%TO.P,U3,5*%
%TO.N,Net-(U3-Pad1)*%
X157480000Y-30480000D03*
%TO.P,U3,11*%
X154940000Y-22860000D03*
%TO.P,U3,4*%
%TO.N,Net-(D1-Pad2)*%
X154940000Y-30480000D03*
%TO.P,U3,10*%
X157480000Y-22860000D03*
%TO.P,U3,3*%
%TO.N,Net-(U3-Pad1)*%
X152400000Y-30480000D03*
%TO.P,U3,9*%
X160020000Y-22860000D03*
%TO.P,U3,2*%
%TO.N,Net-(D1-Pad2)*%
X149860000Y-30480000D03*
%TO.P,U3,8*%
X162560000Y-22860000D03*
D16*
%TO.P,U3,1*%
%TO.N,Net-(U3-Pad1)*%
X147320000Y-30480000D03*
%TD*%
D15*
%TO.P,U2,14*%
%TO.N,+5V*%
X115570000Y-53340000D03*
%TO.P,U2,7*%
%TO.N,GND*%
X107950000Y-68580000D03*
%TO.P,U2,13*%
X115570000Y-55880000D03*
%TO.P,U2,6*%
%TO.N,Net-(U2-Pad6)*%
X107950000Y-66040000D03*
%TO.P,U2,12*%
%TO.N,GND*%
X115570000Y-58420000D03*
%TO.P,U2,5*%
X107950000Y-63500000D03*
%TO.P,U2,11*%
%TO.N,Net-(U2-Pad11)*%
X115570000Y-60960000D03*
%TO.P,U2,4*%
%TO.N,GND*%
X107950000Y-60960000D03*
%TO.P,U2,10*%
X115570000Y-63500000D03*
%TO.P,U2,3*%
%TO.N,Net-(U2-Pad3)*%
X107950000Y-58420000D03*
%TO.P,U2,9*%
%TO.N,GND*%
X115570000Y-66040000D03*
%TO.P,U2,2*%
%TO.N,Net-(J2-Pad2)*%
X107950000Y-55880000D03*
%TO.P,U2,8*%
%TO.N,Net-(U2-Pad8)*%
X115570000Y-68580000D03*
D16*
%TO.P,U2,1*%
%TO.N,Net-(J2-Pad1)*%
X107950000Y-53340000D03*
%TD*%
D17*
%TO.P,U1,3*%
%TO.N,+5V*%
X115570000Y-24130000D03*
%TO.P,U1,2*%
%TO.N,GND*%
X113030000Y-24130000D03*
D18*
%TO.P,U1,1*%
%TO.N,+15V*%
X110490000Y-24130000D03*
%TD*%
D19*
%TO.P,Q1,11*%
%TO.N,Net-(J3-Pad1)*%
X152262963Y-41684987D02*
X152262963Y-41684987D01*
%TO.P,Q1,10*%
%TO.N,+15V*%
X147759985Y-44579279D02*
X147759985Y-44579279D01*
%TO.P,Q1,9*%
%TO.N,Net-(J4-Pad1)*%
X145536611Y-49448606D02*
X145536611Y-49448606D01*
%TO.P,Q1,8*%
%TO.N,Net-(R1-Pad8)*%
X146298747Y-54746991D02*
X146298747Y-54746991D01*
%TO.P,Q1,7*%
%TO.N,Net-(J4-Pad2)*%
X149804420Y-58792234D02*
X149804420Y-58792234D01*
%TO.P,Q1,6*%
%TO.N,Net-(J3-Pad2)*%
X154940602Y-60299999D02*
X154940602Y-60299999D01*
%TO.P,Q1,5*%
%TO.N,Net-(R1-Pad5)*%
X160076594Y-58791582D02*
X160076594Y-58791582D01*
%TO.P,Q1,4*%
%TO.N,Net-(R1-Pad4)*%
X163581754Y-54745894D02*
X163581754Y-54745894D01*
%TO.P,Q1,3*%
%TO.N,Net-(J4-Pad3)*%
X164343217Y-49447413D02*
X164343217Y-49447413D01*
%TO.P,Q1,2*%
%TO.N,Net-(D1-Pad2)*%
X162119226Y-44578368D02*
X162119226Y-44578368D01*
%TO.P,Q1,1*%
%TO.N,Net-(J3-Pad3)*%
X157615880Y-41684647D02*
X157615880Y-41684647D01*
%TD*%
D12*
%TO.P,J3,3*%
%TO.N,Net-(J3-Pad3)*%
X128270000Y-32580000D03*
%TO.P,J3,2*%
%TO.N,Net-(J3-Pad2)*%
X128270000Y-50580000D03*
%TO.P,J3,1*%
%TO.N,Net-(J3-Pad1)*%
X128270000Y-68580000D03*
%TD*%
D20*
%TO.P,J2,3*%
%TO.N,Net-(J2-Pad3)*%
X100890000Y-62030000D03*
%TO.P,J2,2*%
%TO.N,Net-(J2-Pad2)*%
X100890000Y-57030000D03*
%TO.P,J2,1*%
%TO.N,Net-(J2-Pad1)*%
X100890000Y-52030000D03*
%TD*%
%TO.P,J1,3*%
%TO.N,Net-(J1-Pad3)*%
X100890000Y-34090000D03*
%TO.P,J1,2*%
%TO.N,GND*%
X100890000Y-29090000D03*
%TO.P,J1,1*%
%TO.N,+15V*%
X100890000Y-24090000D03*
%TD*%
D21*
%TO.N,+15V*%
X157353000Y-33782000D03*
%TO.N,GND*%
X101520000Y-44140000D03*
%TO.N,Net-(J3-Pad2)*%
X152400000Y-68580000D03*
%TD*%
D22*
%TO.N,Net-(D1-Pad2)*%
X162941000Y-23241000D02*
X162560000Y-22860000D01*
X165735000Y-23241000D02*
X162941000Y-23241000D01*
%TO.N,+15V*%
X100890000Y-24090000D02*
X110490000Y-24090000D01*
X157607000Y-33528000D02*
X157353000Y-33782000D01*
X175895000Y-23241000D02*
X165608000Y-33528000D01*
X165608000Y-33528000D02*
X157607000Y-33528000D01*
%TO.N,GND*%
X115570000Y-55880000D02*
X115570000Y-58420000D01*
X107950000Y-60960000D02*
X107950000Y-63500000D01*
X107950000Y-63500000D02*
X106680000Y-63500000D01*
X106680000Y-63500000D02*
X105410000Y-64770000D01*
X105410000Y-64770000D02*
X105410000Y-68580000D01*
X105410000Y-68580000D02*
X107950000Y-68580000D01*
X115570000Y-63500000D02*
X115570000Y-66040000D01*
X115570000Y-58420000D02*
X113030000Y-58420000D01*
X113030000Y-58420000D02*
X111760000Y-59690000D01*
X111760000Y-59690000D02*
X111760000Y-63500000D01*
X107950000Y-63500000D02*
X111760000Y-63500000D01*
X111760000Y-63500000D02*
X115570000Y-63500000D01*
%TO.N,Net-(J2-Pad2)*%
X107950000Y-55880000D02*
X106680000Y-55880000D01*
X105530000Y-57030000D02*
X100890000Y-57030000D01*
X106680000Y-55880000D02*
X105530000Y-57030000D01*
%TO.N,Net-(J2-Pad1)*%
X100890000Y-52030000D02*
X104100000Y-52030000D01*
X105410000Y-53340000D02*
X107950000Y-53340000D01*
X104100000Y-52030000D02*
X105410000Y-53340000D01*
D23*
%TO.N,Net-(J3-Pad3)*%
X130590000Y-34900000D02*
X128270000Y-32580000D01*
X157615880Y-38149114D02*
X156550766Y-37084000D01*
X157615880Y-41684647D02*
X157615880Y-38149114D01*
X156550766Y-37084000D02*
X153797000Y-37084000D01*
X153797000Y-37084000D02*
X151613000Y-34900000D01*
X151613000Y-34900000D02*
X130590000Y-34900000D01*
D22*
%TO.N,Net-(J3-Pad2)*%
X152400000Y-68580000D02*
X152400000Y-68580000D01*
X152400000Y-68580000D02*
X152400000Y-68580000D01*
D23*
X119380000Y-59470000D02*
X119380000Y-72390000D01*
X128270000Y-50580000D02*
X119380000Y-59470000D01*
X119380000Y-72390000D02*
X123745000Y-76755000D01*
D22*
X123745000Y-76755000D02*
X124460000Y-77470000D01*
D23*
X143510000Y-77470000D02*
X152400000Y-68580000D01*
X124460000Y-77470000D02*
X143510000Y-77470000D01*
%TO.N,Net-(J3-Pad1)*%
X149762964Y-39184988D02*
X143695012Y-39184988D01*
X152262963Y-41684987D02*
X149762964Y-39184988D01*
X138430000Y-44450000D02*
X138430000Y-58420000D01*
X143695012Y-39184988D02*
X138430000Y-44450000D01*
X138430000Y-58420000D02*
X128270000Y-68580000D01*
%TO.N,Net-(J4-Pad2)*%
X153954601Y-65530000D02*
X149804420Y-61379819D01*
X149804420Y-61379819D02*
X149804420Y-58792234D01*
X185240000Y-49300000D02*
X169010000Y-65530000D01*
X169010000Y-65530000D02*
X153954601Y-65530000D01*
%TO.N,+5V*%
X107950000Y-48260000D02*
X107950000Y-48240000D01*
X107969990Y-48220010D02*
X109399990Y-48220010D01*
X107950000Y-48240000D02*
X107969990Y-48220010D01*
X109399990Y-48220010D02*
X111840000Y-45780000D01*
X111840000Y-45780000D02*
X111840000Y-29690000D01*
X111840000Y-29690000D02*
X115682510Y-25847490D01*
D22*
X115570000Y-25734980D02*
X115682510Y-25847490D01*
X115570000Y-24130000D02*
X115570000Y-25734980D01*
X115570000Y-24130000D02*
X118640000Y-21060000D01*
X145520000Y-21060000D02*
X147320000Y-22860000D01*
X118640000Y-21060000D02*
X145520000Y-21060000D01*
%TO.N,Net-(U2-Pad3)*%
X109081370Y-58420000D02*
X110490000Y-57011370D01*
X107950000Y-58420000D02*
X109081370Y-58420000D01*
X110490000Y-57011370D02*
X110490000Y-52070000D01*
X114300000Y-48260000D02*
X115570000Y-48260000D01*
X110490000Y-52070000D02*
X114300000Y-48260000D01*
%TO.N,Net-(U3-Pad1)*%
X154940000Y-23280002D02*
X154940000Y-22860000D01*
X152400000Y-25820002D02*
X154940000Y-23280002D01*
X152400000Y-30480000D02*
X152400000Y-25820002D01*
X157480000Y-25820002D02*
X160020000Y-23280002D01*
X160020000Y-23280002D02*
X160020000Y-22860000D01*
X157480000Y-30480000D02*
X157480000Y-25820002D01*
X149860000Y-22860000D02*
X149860000Y-23280002D01*
X147859999Y-29940001D02*
X147859999Y-27400001D01*
X147320000Y-30480000D02*
X147859999Y-29940001D01*
X149860000Y-23280002D02*
X150919999Y-24340001D01*
X147859999Y-27400001D02*
X150919999Y-24340001D01*
X150919999Y-24340001D02*
X152400000Y-25820002D01*
X160020000Y-22860000D02*
X160020000Y-20320000D01*
X160020000Y-20320000D02*
X154940000Y-20320000D01*
X154940000Y-20320000D02*
X154940000Y-22860000D01*
X118770000Y-45720000D02*
X119380000Y-45110000D01*
X115570000Y-45720000D02*
X118770000Y-45720000D01*
X119380000Y-26670000D02*
X121920000Y-24130000D01*
X119380000Y-45110000D02*
X119380000Y-26670000D01*
X144589998Y-24130000D02*
X147859999Y-27400001D01*
X121920000Y-24130000D02*
X144589998Y-24130000D01*
%TD*%
D24*
%TO.N,GND*%
G36*
X194920000Y-78760000D02*
G01*
X145239345Y-78760000D01*
X153983836Y-70015510D01*
X154183776Y-69771882D01*
X154382026Y-69400982D01*
X154504108Y-68998534D01*
X154545329Y-68580000D01*
X154504108Y-68161467D01*
X154382026Y-67759018D01*
X154331772Y-67665000D01*
X168905128Y-67665000D01*
X169010000Y-67675329D01*
X169114872Y-67665000D01*
X169114882Y-67665000D01*
X169428533Y-67634108D01*
X169830982Y-67512026D01*
X170201881Y-67313777D01*
X170526977Y-67046977D01*
X170593837Y-66965508D01*
X170822223Y-66737122D01*
X179525000Y-66737122D01*
X179525000Y-67862878D01*
X179744625Y-68967004D01*
X180175433Y-70007067D01*
X180800870Y-70943100D01*
X181596900Y-71739130D01*
X182532933Y-72364567D01*
X183572996Y-72795375D01*
X184677122Y-73015000D01*
X185802878Y-73015000D01*
X186907004Y-72795375D01*
X187947067Y-72364567D01*
X188883100Y-71739130D01*
X189679130Y-70943100D01*
X190304567Y-70007067D01*
X190735375Y-68967004D01*
X190955000Y-67862878D01*
X190955000Y-66737122D01*
X190735375Y-65632996D01*
X190304567Y-64592933D01*
X189679130Y-63656900D01*
X188883100Y-62860870D01*
X187947067Y-62235433D01*
X186907004Y-61804625D01*
X185802878Y-61585000D01*
X184677122Y-61585000D01*
X183572996Y-61804625D01*
X182532933Y-62235433D01*
X181596900Y-62860870D01*
X180800870Y-63656900D01*
X180175433Y-64592933D01*
X179744625Y-65632996D01*
X179525000Y-66737122D01*
X170822223Y-66737122D01*
X183000929Y-54558417D01*
X183572996Y-54795375D01*
X184677122Y-55015000D01*
X185802878Y-55015000D01*
X186907004Y-54795375D01*
X187947067Y-54364567D01*
X188883100Y-53739130D01*
X189679130Y-52943100D01*
X190304567Y-52007067D01*
X190735375Y-50967004D01*
X190955000Y-49862878D01*
X190955000Y-48737122D01*
X190735375Y-47632996D01*
X190304567Y-46592933D01*
X189679130Y-45656900D01*
X188883100Y-44860870D01*
X187947067Y-44235433D01*
X186907004Y-43804625D01*
X185802878Y-43585000D01*
X184677122Y-43585000D01*
X183572996Y-43804625D01*
X182532933Y-44235433D01*
X181596900Y-44860870D01*
X180800870Y-45656900D01*
X180175433Y-46592933D01*
X179744625Y-47632996D01*
X179525000Y-48737122D01*
X179525000Y-49862878D01*
X179744625Y-50967004D01*
X179981583Y-51539071D01*
X168125655Y-63395000D01*
X155450462Y-63395000D01*
X155855048Y-63314523D01*
X156425581Y-63078200D01*
X156939048Y-62735113D01*
X157375716Y-62298445D01*
X157718803Y-61784978D01*
X157955126Y-61214445D01*
X157973504Y-61122052D01*
X158078148Y-61226696D01*
X158591615Y-61569783D01*
X159162148Y-61806106D01*
X159767823Y-61926582D01*
X160385365Y-61926582D01*
X160991040Y-61806106D01*
X161561573Y-61569783D01*
X162075040Y-61226696D01*
X162511708Y-60790028D01*
X162854795Y-60276561D01*
X163091118Y-59706028D01*
X163211594Y-59100353D01*
X163211594Y-58482811D01*
X163091118Y-57877136D01*
X163076485Y-57841808D01*
X163272983Y-57880894D01*
X163890525Y-57880894D01*
X164496200Y-57760418D01*
X165066733Y-57524095D01*
X165580200Y-57181008D01*
X166016868Y-56744340D01*
X166359955Y-56230873D01*
X166596278Y-55660340D01*
X166716754Y-55054665D01*
X166716754Y-54437123D01*
X166596278Y-53831448D01*
X166359955Y-53260915D01*
X166016868Y-52747448D01*
X165592615Y-52323195D01*
X165828196Y-52225614D01*
X166341663Y-51882527D01*
X166778331Y-51445859D01*
X167121418Y-50932392D01*
X167357741Y-50361859D01*
X167478217Y-49756184D01*
X167478217Y-49138642D01*
X167357741Y-48532967D01*
X167121418Y-47962434D01*
X166778331Y-47448967D01*
X166341663Y-47012299D01*
X165828196Y-46669212D01*
X165257663Y-46432889D01*
X164721737Y-46326287D01*
X164897427Y-46063347D01*
X165133750Y-45492814D01*
X165254226Y-44887139D01*
X165254226Y-44269597D01*
X165133750Y-43663922D01*
X164897427Y-43093389D01*
X164554340Y-42579922D01*
X164117672Y-42143254D01*
X163604205Y-41800167D01*
X163033672Y-41563844D01*
X162427997Y-41443368D01*
X161810455Y-41443368D01*
X161204780Y-41563844D01*
X160750880Y-41751856D01*
X160750880Y-41375876D01*
X160630404Y-40770201D01*
X160394081Y-40199668D01*
X160050994Y-39686201D01*
X159750880Y-39386087D01*
X159750880Y-38253988D01*
X159761209Y-38149114D01*
X159750880Y-38044239D01*
X159750880Y-38044232D01*
X159719988Y-37730581D01*
X159701060Y-37668182D01*
X159597906Y-37328132D01*
X159531001Y-37202962D01*
X159399657Y-36957233D01*
X159132857Y-36632137D01*
X159051383Y-36565273D01*
X158134604Y-35648493D01*
X158067743Y-35567023D01*
X157806835Y-35352901D01*
X157981714Y-35299852D01*
X158237745Y-35163000D01*
X165527681Y-35163000D01*
X165608000Y-35170911D01*
X165688319Y-35163000D01*
X165688322Y-35163000D01*
X165928516Y-35139343D01*
X166236715Y-35045852D01*
X166520752Y-34894031D01*
X166769714Y-34689714D01*
X166820925Y-34627313D01*
X170711116Y-30737122D01*
X179525000Y-30737122D01*
X179525000Y-31862878D01*
X179744625Y-32967004D01*
X180175433Y-34007067D01*
X180800870Y-34943100D01*
X181596900Y-35739130D01*
X182532933Y-36364567D01*
X183572996Y-36795375D01*
X184677122Y-37015000D01*
X185802878Y-37015000D01*
X186907004Y-36795375D01*
X187947067Y-36364567D01*
X188883100Y-35739130D01*
X189679130Y-34943100D01*
X190304567Y-34007067D01*
X190735375Y-32967004D01*
X190955000Y-31862878D01*
X190955000Y-30737122D01*
X190735375Y-29632996D01*
X190304567Y-28592933D01*
X189679130Y-27656900D01*
X188883100Y-26860870D01*
X187947067Y-26235433D01*
X186907004Y-25804625D01*
X185802878Y-25585000D01*
X184677122Y-25585000D01*
X183572996Y-25804625D01*
X182532933Y-26235433D01*
X181596900Y-26860870D01*
X180800870Y-27656900D01*
X180175433Y-28592933D01*
X179744625Y-29632996D01*
X179525000Y-30737122D01*
X170711116Y-30737122D01*
X176469167Y-24979072D01*
X176995000Y-24979072D01*
X177119482Y-24966812D01*
X177239180Y-24930502D01*
X177349494Y-24871537D01*
X177446185Y-24792185D01*
X177525537Y-24695494D01*
X177584502Y-24585180D01*
X177620812Y-24465482D01*
X177633072Y-24341000D01*
X177633072Y-22141000D01*
X177620812Y-22016518D01*
X177584502Y-21896820D01*
X177525537Y-21786506D01*
X177446185Y-21689815D01*
X177349494Y-21610463D01*
X177239180Y-21551498D01*
X177119482Y-21515188D01*
X176995000Y-21502928D01*
X174795000Y-21502928D01*
X174670518Y-21515188D01*
X174550820Y-21551498D01*
X174440506Y-21610463D01*
X174343815Y-21689815D01*
X174264463Y-21786506D01*
X174205498Y-21896820D01*
X174169188Y-22016518D01*
X174156928Y-22141000D01*
X174156928Y-22666833D01*
X164930762Y-31893000D01*
X162687002Y-31893000D01*
X162687002Y-31749916D01*
X162909039Y-31871904D01*
X163043087Y-31831246D01*
X163297420Y-31711037D01*
X163523414Y-31543519D01*
X163712385Y-31335131D01*
X163857070Y-31093881D01*
X163951909Y-30829040D01*
X163830624Y-30607000D01*
X162687000Y-30607000D01*
X162687000Y-30627000D01*
X162433000Y-30627000D01*
X162433000Y-30607000D01*
X162413000Y-30607000D01*
X162413000Y-30353000D01*
X162433000Y-30353000D01*
X162433000Y-29210085D01*
X162687000Y-29210085D01*
X162687000Y-30353000D01*
X163830624Y-30353000D01*
X163951909Y-30130960D01*
X163857070Y-29866119D01*
X163712385Y-29624869D01*
X163523414Y-29416481D01*
X163297420Y-29248963D01*
X163043087Y-29128754D01*
X162909039Y-29088096D01*
X162687000Y-29210085D01*
X162433000Y-29210085D01*
X162210961Y-29088096D01*
X162076913Y-29128754D01*
X161822580Y-29248963D01*
X161596586Y-29416481D01*
X161407615Y-29624869D01*
X161296067Y-29810865D01*
X161291680Y-29800273D01*
X161134637Y-29565241D01*
X160934759Y-29365363D01*
X160699727Y-29208320D01*
X160438574Y-29100147D01*
X160161335Y-29045000D01*
X159878665Y-29045000D01*
X159601426Y-29100147D01*
X159340273Y-29208320D01*
X159115000Y-29358842D01*
X159115000Y-26497240D01*
X161119320Y-24492921D01*
X161181714Y-24441716D01*
X161386031Y-24192754D01*
X161453775Y-24066013D01*
X161728075Y-24340313D01*
X161779286Y-24402714D01*
X162028248Y-24607031D01*
X162312285Y-24758852D01*
X162620484Y-24852343D01*
X162860678Y-24876000D01*
X162860680Y-24876000D01*
X162940999Y-24883911D01*
X163021319Y-24876000D01*
X165148465Y-24876000D01*
X165228919Y-24909325D01*
X165564117Y-24976000D01*
X165905883Y-24976000D01*
X166241081Y-24909325D01*
X166556831Y-24778537D01*
X166840998Y-24588663D01*
X167082663Y-24346998D01*
X167272537Y-24062831D01*
X167403325Y-23747081D01*
X167470000Y-23411883D01*
X167470000Y-23070117D01*
X167403325Y-22734919D01*
X167272537Y-22419169D01*
X167082663Y-22135002D01*
X166840998Y-21893337D01*
X166556831Y-21703463D01*
X166241081Y-21572675D01*
X165905883Y-21506000D01*
X165564117Y-21506000D01*
X165228919Y-21572675D01*
X165148465Y-21606000D01*
X163609261Y-21606000D01*
X163472752Y-21493970D01*
X163188714Y-21342148D01*
X162880516Y-21248658D01*
X162560000Y-21217089D01*
X162239484Y-21248658D01*
X161931286Y-21342148D01*
X161655000Y-21489826D01*
X161655000Y-20400322D01*
X161662911Y-20320000D01*
X161631343Y-19999484D01*
X161543529Y-19710000D01*
X194920001Y-19710000D01*
X194920000Y-78760000D01*
G37*
X194920000Y-78760000D02*
X145239345Y-78760000D01*
X153983836Y-70015510D01*
X154183776Y-69771882D01*
X154382026Y-69400982D01*
X154504108Y-68998534D01*
X154545329Y-68580000D01*
X154504108Y-68161467D01*
X154382026Y-67759018D01*
X154331772Y-67665000D01*
X168905128Y-67665000D01*
X169010000Y-67675329D01*
X169114872Y-67665000D01*
X169114882Y-67665000D01*
X169428533Y-67634108D01*
X169830982Y-67512026D01*
X170201881Y-67313777D01*
X170526977Y-67046977D01*
X170593837Y-66965508D01*
X170822223Y-66737122D01*
X179525000Y-66737122D01*
X179525000Y-67862878D01*
X179744625Y-68967004D01*
X180175433Y-70007067D01*
X180800870Y-70943100D01*
X181596900Y-71739130D01*
X182532933Y-72364567D01*
X183572996Y-72795375D01*
X184677122Y-73015000D01*
X185802878Y-73015000D01*
X186907004Y-72795375D01*
X187947067Y-72364567D01*
X188883100Y-71739130D01*
X189679130Y-70943100D01*
X190304567Y-70007067D01*
X190735375Y-68967004D01*
X190955000Y-67862878D01*
X190955000Y-66737122D01*
X190735375Y-65632996D01*
X190304567Y-64592933D01*
X189679130Y-63656900D01*
X188883100Y-62860870D01*
X187947067Y-62235433D01*
X186907004Y-61804625D01*
X185802878Y-61585000D01*
X184677122Y-61585000D01*
X183572996Y-61804625D01*
X182532933Y-62235433D01*
X181596900Y-62860870D01*
X180800870Y-63656900D01*
X180175433Y-64592933D01*
X179744625Y-65632996D01*
X179525000Y-66737122D01*
X170822223Y-66737122D01*
X183000929Y-54558417D01*
X183572996Y-54795375D01*
X184677122Y-55015000D01*
X185802878Y-55015000D01*
X186907004Y-54795375D01*
X187947067Y-54364567D01*
X188883100Y-53739130D01*
X189679130Y-52943100D01*
X190304567Y-52007067D01*
X190735375Y-50967004D01*
X190955000Y-49862878D01*
X190955000Y-48737122D01*
X190735375Y-47632996D01*
X190304567Y-46592933D01*
X189679130Y-45656900D01*
X188883100Y-44860870D01*
X187947067Y-44235433D01*
X186907004Y-43804625D01*
X185802878Y-43585000D01*
X184677122Y-43585000D01*
X183572996Y-43804625D01*
X182532933Y-44235433D01*
X181596900Y-44860870D01*
X180800870Y-45656900D01*
X180175433Y-46592933D01*
X179744625Y-47632996D01*
X179525000Y-48737122D01*
X179525000Y-49862878D01*
X179744625Y-50967004D01*
X179981583Y-51539071D01*
X168125655Y-63395000D01*
X155450462Y-63395000D01*
X155855048Y-63314523D01*
X156425581Y-63078200D01*
X156939048Y-62735113D01*
X157375716Y-62298445D01*
X157718803Y-61784978D01*
X157955126Y-61214445D01*
X157973504Y-61122052D01*
X158078148Y-61226696D01*
X158591615Y-61569783D01*
X159162148Y-61806106D01*
X159767823Y-61926582D01*
X160385365Y-61926582D01*
X160991040Y-61806106D01*
X161561573Y-61569783D01*
X162075040Y-61226696D01*
X162511708Y-60790028D01*
X162854795Y-60276561D01*
X163091118Y-59706028D01*
X163211594Y-59100353D01*
X163211594Y-58482811D01*
X163091118Y-57877136D01*
X163076485Y-57841808D01*
X163272983Y-57880894D01*
X163890525Y-57880894D01*
X164496200Y-57760418D01*
X165066733Y-57524095D01*
X165580200Y-57181008D01*
X166016868Y-56744340D01*
X166359955Y-56230873D01*
X166596278Y-55660340D01*
X166716754Y-55054665D01*
X166716754Y-54437123D01*
X166596278Y-53831448D01*
X166359955Y-53260915D01*
X166016868Y-52747448D01*
X165592615Y-52323195D01*
X165828196Y-52225614D01*
X166341663Y-51882527D01*
X166778331Y-51445859D01*
X167121418Y-50932392D01*
X167357741Y-50361859D01*
X167478217Y-49756184D01*
X167478217Y-49138642D01*
X167357741Y-48532967D01*
X167121418Y-47962434D01*
X166778331Y-47448967D01*
X166341663Y-47012299D01*
X165828196Y-46669212D01*
X165257663Y-46432889D01*
X164721737Y-46326287D01*
X164897427Y-46063347D01*
X165133750Y-45492814D01*
X165254226Y-44887139D01*
X165254226Y-44269597D01*
X165133750Y-43663922D01*
X164897427Y-43093389D01*
X164554340Y-42579922D01*
X164117672Y-42143254D01*
X163604205Y-41800167D01*
X163033672Y-41563844D01*
X162427997Y-41443368D01*
X161810455Y-41443368D01*
X161204780Y-41563844D01*
X160750880Y-41751856D01*
X160750880Y-41375876D01*
X160630404Y-40770201D01*
X160394081Y-40199668D01*
X160050994Y-39686201D01*
X159750880Y-39386087D01*
X159750880Y-38253988D01*
X159761209Y-38149114D01*
X159750880Y-38044239D01*
X159750880Y-38044232D01*
X159719988Y-37730581D01*
X159701060Y-37668182D01*
X159597906Y-37328132D01*
X159531001Y-37202962D01*
X159399657Y-36957233D01*
X159132857Y-36632137D01*
X159051383Y-36565273D01*
X158134604Y-35648493D01*
X158067743Y-35567023D01*
X157806835Y-35352901D01*
X157981714Y-35299852D01*
X158237745Y-35163000D01*
X165527681Y-35163000D01*
X165608000Y-35170911D01*
X165688319Y-35163000D01*
X165688322Y-35163000D01*
X165928516Y-35139343D01*
X166236715Y-35045852D01*
X166520752Y-34894031D01*
X166769714Y-34689714D01*
X166820925Y-34627313D01*
X170711116Y-30737122D01*
X179525000Y-30737122D01*
X179525000Y-31862878D01*
X179744625Y-32967004D01*
X180175433Y-34007067D01*
X180800870Y-34943100D01*
X181596900Y-35739130D01*
X182532933Y-36364567D01*
X183572996Y-36795375D01*
X184677122Y-37015000D01*
X185802878Y-37015000D01*
X186907004Y-36795375D01*
X187947067Y-36364567D01*
X188883100Y-35739130D01*
X189679130Y-34943100D01*
X190304567Y-34007067D01*
X190735375Y-32967004D01*
X190955000Y-31862878D01*
X190955000Y-30737122D01*
X190735375Y-29632996D01*
X190304567Y-28592933D01*
X189679130Y-27656900D01*
X188883100Y-26860870D01*
X187947067Y-26235433D01*
X186907004Y-25804625D01*
X185802878Y-25585000D01*
X184677122Y-25585000D01*
X183572996Y-25804625D01*
X182532933Y-26235433D01*
X181596900Y-26860870D01*
X180800870Y-27656900D01*
X180175433Y-28592933D01*
X179744625Y-29632996D01*
X179525000Y-30737122D01*
X170711116Y-30737122D01*
X176469167Y-24979072D01*
X176995000Y-24979072D01*
X177119482Y-24966812D01*
X177239180Y-24930502D01*
X177349494Y-24871537D01*
X177446185Y-24792185D01*
X177525537Y-24695494D01*
X177584502Y-24585180D01*
X177620812Y-24465482D01*
X177633072Y-24341000D01*
X177633072Y-22141000D01*
X177620812Y-22016518D01*
X177584502Y-21896820D01*
X177525537Y-21786506D01*
X177446185Y-21689815D01*
X177349494Y-21610463D01*
X177239180Y-21551498D01*
X177119482Y-21515188D01*
X176995000Y-21502928D01*
X174795000Y-21502928D01*
X174670518Y-21515188D01*
X174550820Y-21551498D01*
X174440506Y-21610463D01*
X174343815Y-21689815D01*
X174264463Y-21786506D01*
X174205498Y-21896820D01*
X174169188Y-22016518D01*
X174156928Y-22141000D01*
X174156928Y-22666833D01*
X164930762Y-31893000D01*
X162687002Y-31893000D01*
X162687002Y-31749916D01*
X162909039Y-31871904D01*
X163043087Y-31831246D01*
X163297420Y-31711037D01*
X163523414Y-31543519D01*
X163712385Y-31335131D01*
X163857070Y-31093881D01*
X163951909Y-30829040D01*
X163830624Y-30607000D01*
X162687000Y-30607000D01*
X162687000Y-30627000D01*
X162433000Y-30627000D01*
X162433000Y-30607000D01*
X162413000Y-30607000D01*
X162413000Y-30353000D01*
X162433000Y-30353000D01*
X162433000Y-29210085D01*
X162687000Y-29210085D01*
X162687000Y-30353000D01*
X163830624Y-30353000D01*
X163951909Y-30130960D01*
X163857070Y-29866119D01*
X163712385Y-29624869D01*
X163523414Y-29416481D01*
X163297420Y-29248963D01*
X163043087Y-29128754D01*
X162909039Y-29088096D01*
X162687000Y-29210085D01*
X162433000Y-29210085D01*
X162210961Y-29088096D01*
X162076913Y-29128754D01*
X161822580Y-29248963D01*
X161596586Y-29416481D01*
X161407615Y-29624869D01*
X161296067Y-29810865D01*
X161291680Y-29800273D01*
X161134637Y-29565241D01*
X160934759Y-29365363D01*
X160699727Y-29208320D01*
X160438574Y-29100147D01*
X160161335Y-29045000D01*
X159878665Y-29045000D01*
X159601426Y-29100147D01*
X159340273Y-29208320D01*
X159115000Y-29358842D01*
X159115000Y-26497240D01*
X161119320Y-24492921D01*
X161181714Y-24441716D01*
X161386031Y-24192754D01*
X161453775Y-24066013D01*
X161728075Y-24340313D01*
X161779286Y-24402714D01*
X162028248Y-24607031D01*
X162312285Y-24758852D01*
X162620484Y-24852343D01*
X162860678Y-24876000D01*
X162860680Y-24876000D01*
X162940999Y-24883911D01*
X163021319Y-24876000D01*
X165148465Y-24876000D01*
X165228919Y-24909325D01*
X165564117Y-24976000D01*
X165905883Y-24976000D01*
X166241081Y-24909325D01*
X166556831Y-24778537D01*
X166840998Y-24588663D01*
X167082663Y-24346998D01*
X167272537Y-24062831D01*
X167403325Y-23747081D01*
X167470000Y-23411883D01*
X167470000Y-23070117D01*
X167403325Y-22734919D01*
X167272537Y-22419169D01*
X167082663Y-22135002D01*
X166840998Y-21893337D01*
X166556831Y-21703463D01*
X166241081Y-21572675D01*
X165905883Y-21506000D01*
X165564117Y-21506000D01*
X165228919Y-21572675D01*
X165148465Y-21606000D01*
X163609261Y-21606000D01*
X163472752Y-21493970D01*
X163188714Y-21342148D01*
X162880516Y-21248658D01*
X162560000Y-21217089D01*
X162239484Y-21248658D01*
X161931286Y-21342148D01*
X161655000Y-21489826D01*
X161655000Y-20400322D01*
X161662911Y-20320000D01*
X161631343Y-19999484D01*
X161543529Y-19710000D01*
X194920001Y-19710000D01*
X194920000Y-78760000D01*
G36*
X117478286Y-19898286D02*
G01*
X117427084Y-19960676D01*
X114470686Y-22917076D01*
X114408286Y-22968286D01*
X114283480Y-23120363D01*
X114139437Y-22948685D01*
X113896923Y-22754031D01*
X113621094Y-22610429D01*
X113402980Y-22539437D01*
X113157000Y-22659406D01*
X113157000Y-24003000D01*
X113177000Y-24003000D01*
X113177000Y-24257000D01*
X113157000Y-24257000D01*
X113157000Y-24277000D01*
X112903000Y-24277000D01*
X112903000Y-24257000D01*
X112883000Y-24257000D01*
X112883000Y-24003000D01*
X112903000Y-24003000D01*
X112903000Y-22659406D01*
X112657020Y-22539437D01*
X112438906Y-22610429D01*
X112163077Y-22754031D01*
X112022059Y-22867219D01*
X111973037Y-22775506D01*
X111893685Y-22678815D01*
X111796994Y-22599463D01*
X111686680Y-22540498D01*
X111566982Y-22504188D01*
X111442500Y-22491928D01*
X110854265Y-22491928D01*
X110810516Y-22478657D01*
X110570322Y-22455000D01*
X100809678Y-22455000D01*
X100569484Y-22478657D01*
X100261285Y-22572148D01*
X99977248Y-22723969D01*
X99728286Y-22928286D01*
X99523969Y-23177248D01*
X99372148Y-23461285D01*
X99278657Y-23769484D01*
X99247089Y-24090000D01*
X99278657Y-24410516D01*
X99372148Y-24718715D01*
X99523969Y-25002752D01*
X99728286Y-25251714D01*
X99977248Y-25456031D01*
X100261285Y-25607852D01*
X100569484Y-25701343D01*
X100809678Y-25725000D01*
X109311444Y-25725000D01*
X109413018Y-25755812D01*
X109537500Y-25768072D01*
X111442500Y-25768072D01*
X111566982Y-25755812D01*
X111686680Y-25719502D01*
X111796994Y-25660537D01*
X111893685Y-25581185D01*
X111973037Y-25484494D01*
X112022059Y-25392781D01*
X112163077Y-25505969D01*
X112438906Y-25649571D01*
X112657020Y-25720563D01*
X112902998Y-25600595D01*
X112902998Y-25607656D01*
X110404487Y-28106168D01*
X110323024Y-28173023D01*
X110256168Y-28254487D01*
X110256165Y-28254490D01*
X110056224Y-28498119D01*
X109857975Y-28869018D01*
X109735893Y-29271467D01*
X109694671Y-29690000D01*
X109705001Y-29794882D01*
X109705001Y-32543416D01*
X109682182Y-32468192D01*
X109548932Y-32218899D01*
X109369608Y-32000392D01*
X109151101Y-31821068D01*
X108901808Y-31687818D01*
X108631309Y-31605764D01*
X108420492Y-31585000D01*
X107479508Y-31585000D01*
X107268691Y-31605764D01*
X106998192Y-31687818D01*
X106748899Y-31821068D01*
X106530392Y-32000392D01*
X106351068Y-32218899D01*
X106217818Y-32468192D01*
X106135764Y-32738691D01*
X106108057Y-33020000D01*
X106135764Y-33301309D01*
X106217818Y-33571808D01*
X106351068Y-33821101D01*
X106530392Y-34039608D01*
X106748899Y-34218932D01*
X106876741Y-34287265D01*
X106647161Y-34437399D01*
X106445500Y-34635105D01*
X106286285Y-34868354D01*
X106175633Y-35128182D01*
X106158096Y-35210961D01*
X106280085Y-35433000D01*
X107823000Y-35433000D01*
X107823000Y-35413000D01*
X108077000Y-35413000D01*
X108077000Y-35433000D01*
X108097000Y-35433000D01*
X108097000Y-35687000D01*
X108077000Y-35687000D01*
X108077000Y-35707000D01*
X107823000Y-35707000D01*
X107823000Y-35687000D01*
X106280085Y-35687000D01*
X106158096Y-35909039D01*
X106175633Y-35991818D01*
X106286285Y-36251646D01*
X106445500Y-36484895D01*
X106647161Y-36682601D01*
X106876741Y-36832735D01*
X106748899Y-36901068D01*
X106530392Y-37080392D01*
X106351068Y-37298899D01*
X106217818Y-37548192D01*
X106135764Y-37818691D01*
X106108057Y-38100000D01*
X106135764Y-38381309D01*
X106217818Y-38651808D01*
X106351068Y-38901101D01*
X106530392Y-39119608D01*
X106748899Y-39298932D01*
X106876741Y-39367265D01*
X106647161Y-39517399D01*
X106445500Y-39715105D01*
X106286285Y-39948354D01*
X106175633Y-40208182D01*
X106158096Y-40290961D01*
X106280085Y-40513000D01*
X107823000Y-40513000D01*
X107823000Y-40493000D01*
X108077000Y-40493000D01*
X108077000Y-40513000D01*
X108097000Y-40513000D01*
X108097000Y-40767000D01*
X108077000Y-40767000D01*
X108077000Y-40787000D01*
X107823000Y-40787000D01*
X107823000Y-40767000D01*
X106280085Y-40767000D01*
X106158096Y-40989039D01*
X106175633Y-41071818D01*
X106286285Y-41331646D01*
X106445500Y-41564895D01*
X106647161Y-41762601D01*
X106876741Y-41912735D01*
X106748899Y-41981068D01*
X106530392Y-42160392D01*
X106351068Y-42378899D01*
X106217818Y-42628192D01*
X106135764Y-42898691D01*
X106108057Y-43180000D01*
X106135764Y-43461309D01*
X106217818Y-43731808D01*
X106351068Y-43981101D01*
X106530392Y-44199608D01*
X106748899Y-44378932D01*
X106876741Y-44447265D01*
X106647161Y-44597399D01*
X106445500Y-44795105D01*
X106286285Y-45028354D01*
X106175633Y-45288182D01*
X106158096Y-45370961D01*
X106280085Y-45593000D01*
X107823000Y-45593000D01*
X107823000Y-45573000D01*
X108077000Y-45573000D01*
X108077000Y-45593000D01*
X108097000Y-45593000D01*
X108097000Y-45847000D01*
X108077000Y-45847000D01*
X108077000Y-45867000D01*
X107823000Y-45867000D01*
X107823000Y-45847000D01*
X106280085Y-45847000D01*
X106158096Y-46069039D01*
X106175633Y-46151818D01*
X106286285Y-46411646D01*
X106445500Y-46644895D01*
X106481203Y-46679898D01*
X106453013Y-46703033D01*
X106444002Y-46714012D01*
X106433023Y-46723023D01*
X106166223Y-47048119D01*
X105967974Y-47419018D01*
X105845892Y-47821467D01*
X105815000Y-48135118D01*
X105815000Y-48135128D01*
X105804671Y-48240000D01*
X105815000Y-48344872D01*
X105815000Y-48364881D01*
X105845892Y-48678532D01*
X105967974Y-49080981D01*
X106166223Y-49451881D01*
X106433023Y-49776977D01*
X106758119Y-50043777D01*
X107129018Y-50242026D01*
X107531467Y-50364108D01*
X107950000Y-50405330D01*
X108368532Y-50364108D01*
X108398524Y-50355010D01*
X109295118Y-50355010D01*
X109399990Y-50365339D01*
X109504862Y-50355010D01*
X109504872Y-50355010D01*
X109818523Y-50324118D01*
X109969417Y-50278345D01*
X109390682Y-50857080D01*
X109328287Y-50908286D01*
X109254223Y-50998534D01*
X109123970Y-51157248D01*
X108972148Y-51441286D01*
X108878658Y-51749484D01*
X108862551Y-51913013D01*
X108750000Y-51901928D01*
X108727973Y-51901928D01*
X108578715Y-51822148D01*
X108270516Y-51728657D01*
X108030322Y-51705000D01*
X106087239Y-51705000D01*
X105312924Y-50930686D01*
X105261714Y-50868286D01*
X105012752Y-50663969D01*
X104728715Y-50512148D01*
X104420516Y-50418657D01*
X104180322Y-50395000D01*
X104180319Y-50395000D01*
X104100000Y-50387089D01*
X104019681Y-50395000D01*
X100809678Y-50395000D01*
X100569484Y-50418657D01*
X100261285Y-50512148D01*
X99977248Y-50663969D01*
X99728286Y-50868286D01*
X99523969Y-51117248D01*
X99372148Y-51401285D01*
X99278657Y-51709484D01*
X99247089Y-52030000D01*
X99278657Y-52350516D01*
X99372148Y-52658715D01*
X99523969Y-52942752D01*
X99728286Y-53191714D01*
X99977248Y-53396031D01*
X100261285Y-53547852D01*
X100569484Y-53641343D01*
X100809678Y-53665000D01*
X103422762Y-53665000D01*
X104197079Y-54439318D01*
X104248286Y-54501714D01*
X104497248Y-54706031D01*
X104651752Y-54788615D01*
X104781285Y-54857852D01*
X105089483Y-54951343D01*
X105277864Y-54969897D01*
X104852761Y-55395000D01*
X100809678Y-55395000D01*
X100569484Y-55418657D01*
X100261285Y-55512148D01*
X99977248Y-55663969D01*
X99728286Y-55868286D01*
X99523969Y-56117248D01*
X99372148Y-56401285D01*
X99278657Y-56709484D01*
X99247089Y-57030000D01*
X99278657Y-57350516D01*
X99372148Y-57658715D01*
X99523969Y-57942752D01*
X99728286Y-58191714D01*
X99977248Y-58396031D01*
X100261285Y-58547852D01*
X100569484Y-58641343D01*
X100809678Y-58665000D01*
X105449681Y-58665000D01*
X105530000Y-58672911D01*
X105610319Y-58665000D01*
X105610322Y-58665000D01*
X105850516Y-58641343D01*
X106158715Y-58547852D01*
X106311631Y-58466117D01*
X106338657Y-58740516D01*
X106432148Y-59048715D01*
X106583969Y-59332752D01*
X106788286Y-59581714D01*
X107037248Y-59786031D01*
X107088476Y-59813413D01*
X106886481Y-59996586D01*
X106718963Y-60222580D01*
X106598754Y-60476913D01*
X106558096Y-60610961D01*
X106680085Y-60833000D01*
X107823000Y-60833000D01*
X107823000Y-60813000D01*
X108077000Y-60813000D01*
X108077000Y-60833000D01*
X109219915Y-60833000D01*
X109227790Y-60818665D01*
X114135000Y-60818665D01*
X114135000Y-61101335D01*
X114190147Y-61378574D01*
X114298320Y-61639727D01*
X114455363Y-61874759D01*
X114655241Y-62074637D01*
X114890273Y-62231680D01*
X114900865Y-62236067D01*
X114714869Y-62347615D01*
X114506481Y-62536586D01*
X114338963Y-62762580D01*
X114218754Y-63016913D01*
X114178096Y-63150961D01*
X114300085Y-63373000D01*
X115443000Y-63373000D01*
X115443000Y-63353000D01*
X115697000Y-63353000D01*
X115697000Y-63373000D01*
X116839915Y-63373000D01*
X116961904Y-63150961D01*
X116921246Y-63016913D01*
X116801037Y-62762580D01*
X116633519Y-62536586D01*
X116425131Y-62347615D01*
X116239135Y-62236067D01*
X116249727Y-62231680D01*
X116484759Y-62074637D01*
X116684637Y-61874759D01*
X116841680Y-61639727D01*
X116949853Y-61378574D01*
X117005000Y-61101335D01*
X117005000Y-60818665D01*
X116949853Y-60541426D01*
X116841680Y-60280273D01*
X116684637Y-60045241D01*
X116484759Y-59845363D01*
X116249727Y-59688320D01*
X116239135Y-59683933D01*
X116425131Y-59572385D01*
X116633519Y-59383414D01*
X116801037Y-59157420D01*
X116921246Y-58903087D01*
X116961904Y-58769039D01*
X116839915Y-58547000D01*
X115697000Y-58547000D01*
X115697000Y-58567000D01*
X115443000Y-58567000D01*
X115443000Y-58547000D01*
X114300085Y-58547000D01*
X114178096Y-58769039D01*
X114218754Y-58903087D01*
X114338963Y-59157420D01*
X114506481Y-59383414D01*
X114714869Y-59572385D01*
X114900865Y-59683933D01*
X114890273Y-59688320D01*
X114655241Y-59845363D01*
X114455363Y-60045241D01*
X114298320Y-60280273D01*
X114190147Y-60541426D01*
X114135000Y-60818665D01*
X109227790Y-60818665D01*
X109341904Y-60610961D01*
X109301246Y-60476913D01*
X109181037Y-60222580D01*
X109061211Y-60060925D01*
X109081370Y-60062911D01*
X109161689Y-60055000D01*
X109161692Y-60055000D01*
X109401886Y-60031343D01*
X109710085Y-59937852D01*
X109994122Y-59786031D01*
X110243084Y-59581714D01*
X110294294Y-59519314D01*
X111589325Y-58224285D01*
X111651714Y-58173084D01*
X111856031Y-57924122D01*
X112007852Y-57640085D01*
X112048148Y-57507248D01*
X112101343Y-57331887D01*
X112132911Y-57011370D01*
X112125000Y-56931048D01*
X112125000Y-56229039D01*
X114178096Y-56229039D01*
X114218754Y-56363087D01*
X114338963Y-56617420D01*
X114506481Y-56843414D01*
X114714869Y-57032385D01*
X114910982Y-57150000D01*
X114714869Y-57267615D01*
X114506481Y-57456586D01*
X114338963Y-57682580D01*
X114218754Y-57936913D01*
X114178096Y-58070961D01*
X114300085Y-58293000D01*
X115443000Y-58293000D01*
X115443000Y-56007000D01*
X115697000Y-56007000D01*
X115697000Y-58293000D01*
X116839915Y-58293000D01*
X116961904Y-58070961D01*
X116921246Y-57936913D01*
X116801037Y-57682580D01*
X116633519Y-57456586D01*
X116425131Y-57267615D01*
X116229018Y-57150000D01*
X116425131Y-57032385D01*
X116633519Y-56843414D01*
X116801037Y-56617420D01*
X116921246Y-56363087D01*
X116961904Y-56229039D01*
X116839915Y-56007000D01*
X115697000Y-56007000D01*
X115443000Y-56007000D01*
X114300085Y-56007000D01*
X114178096Y-56229039D01*
X112125000Y-56229039D01*
X112125000Y-53198665D01*
X114135000Y-53198665D01*
X114135000Y-53481335D01*
X114190147Y-53758574D01*
X114298320Y-54019727D01*
X114455363Y-54254759D01*
X114655241Y-54454637D01*
X114890273Y-54611680D01*
X114900865Y-54616067D01*
X114714869Y-54727615D01*
X114506481Y-54916586D01*
X114338963Y-55142580D01*
X114218754Y-55396913D01*
X114178096Y-55530961D01*
X114300085Y-55753000D01*
X115443000Y-55753000D01*
X115443000Y-55733000D01*
X115697000Y-55733000D01*
X115697000Y-55753000D01*
X116839915Y-55753000D01*
X116961904Y-55530961D01*
X116921246Y-55396913D01*
X116801037Y-55142580D01*
X116633519Y-54916586D01*
X116425131Y-54727615D01*
X116239135Y-54616067D01*
X116249727Y-54611680D01*
X116484759Y-54454637D01*
X116684637Y-54254759D01*
X116841680Y-54019727D01*
X116949853Y-53758574D01*
X117005000Y-53481335D01*
X117005000Y-53198665D01*
X116949853Y-52921426D01*
X116841680Y-52660273D01*
X116684637Y-52425241D01*
X116484759Y-52225363D01*
X116249727Y-52068320D01*
X115988574Y-51960147D01*
X115711335Y-51905000D01*
X115428665Y-51905000D01*
X115151426Y-51960147D01*
X114890273Y-52068320D01*
X114655241Y-52225363D01*
X114455363Y-52425241D01*
X114298320Y-52660273D01*
X114190147Y-52921426D01*
X114135000Y-53198665D01*
X112125000Y-53198665D01*
X112125000Y-52747238D01*
X114977240Y-49895000D01*
X115650322Y-49895000D01*
X115890516Y-49871343D01*
X116198715Y-49777852D01*
X116347973Y-49698072D01*
X116770000Y-49698072D01*
X116894482Y-49685812D01*
X117014180Y-49649502D01*
X117124494Y-49590537D01*
X117221185Y-49511185D01*
X117300537Y-49414494D01*
X117359502Y-49304180D01*
X117395812Y-49184482D01*
X117408072Y-49060000D01*
X117408072Y-47460000D01*
X117397731Y-47355000D01*
X118689681Y-47355000D01*
X118770000Y-47362911D01*
X118850319Y-47355000D01*
X118850322Y-47355000D01*
X119090516Y-47331343D01*
X119398715Y-47237852D01*
X119682752Y-47086031D01*
X119931714Y-46881714D01*
X119982925Y-46819313D01*
X120479314Y-46322924D01*
X120541714Y-46271714D01*
X120746031Y-46022752D01*
X120897852Y-45738715D01*
X120991343Y-45430516D01*
X121015000Y-45190322D01*
X121015000Y-45190320D01*
X121022911Y-45110001D01*
X121015000Y-45029681D01*
X121015000Y-27347238D01*
X122597239Y-25765000D01*
X143912760Y-25765000D01*
X146225000Y-28077241D01*
X146224999Y-29117663D01*
X146165506Y-29149463D01*
X146068815Y-29228815D01*
X145989463Y-29325506D01*
X145930498Y-29435820D01*
X145894188Y-29555518D01*
X145881928Y-29680000D01*
X145881928Y-29702029D01*
X145802148Y-29851286D01*
X145708658Y-30159484D01*
X145677089Y-30480000D01*
X145708658Y-30800516D01*
X145802148Y-31108714D01*
X145881928Y-31257971D01*
X145881928Y-31280000D01*
X145894188Y-31404482D01*
X145930498Y-31524180D01*
X145989463Y-31634494D01*
X146068815Y-31731185D01*
X146165506Y-31810537D01*
X146275820Y-31869502D01*
X146395518Y-31905812D01*
X146520000Y-31918072D01*
X146542029Y-31918072D01*
X146691286Y-31997852D01*
X146999484Y-32091342D01*
X147320000Y-32122911D01*
X147640516Y-32091342D01*
X147948714Y-31997852D01*
X148097971Y-31918072D01*
X148120000Y-31918072D01*
X148244482Y-31905812D01*
X148364180Y-31869502D01*
X148474494Y-31810537D01*
X148571185Y-31731185D01*
X148650537Y-31634494D01*
X148709502Y-31524180D01*
X148745812Y-31404482D01*
X148746643Y-31396039D01*
X148945241Y-31594637D01*
X149180273Y-31751680D01*
X149441426Y-31859853D01*
X149718665Y-31915000D01*
X150001335Y-31915000D01*
X150278574Y-31859853D01*
X150539727Y-31751680D01*
X150774759Y-31594637D01*
X150974637Y-31394759D01*
X151008196Y-31344534D01*
X151033969Y-31392751D01*
X151238286Y-31641714D01*
X151487248Y-31846031D01*
X151771285Y-31997852D01*
X152079484Y-32091343D01*
X152400000Y-32122911D01*
X152720515Y-32091343D01*
X153028714Y-31997852D01*
X153312751Y-31846031D01*
X153561714Y-31641714D01*
X153766031Y-31392752D01*
X153791804Y-31344534D01*
X153825363Y-31394759D01*
X154025241Y-31594637D01*
X154260273Y-31751680D01*
X154521426Y-31859853D01*
X154798665Y-31915000D01*
X155081335Y-31915000D01*
X155358574Y-31859853D01*
X155619727Y-31751680D01*
X155854759Y-31594637D01*
X156054637Y-31394759D01*
X156088196Y-31344534D01*
X156113969Y-31392751D01*
X156318286Y-31641714D01*
X156567248Y-31846031D01*
X156851285Y-31997852D01*
X156946980Y-32026881D01*
X156694248Y-32161969D01*
X156445286Y-32366286D01*
X156394075Y-32428687D01*
X156140085Y-32682677D01*
X155986970Y-32869248D01*
X155835148Y-33153286D01*
X155741658Y-33461484D01*
X155710089Y-33782000D01*
X155741658Y-34102516D01*
X155835148Y-34410714D01*
X155986970Y-34694752D01*
X156191287Y-34943713D01*
X156197729Y-34949000D01*
X154681346Y-34949000D01*
X153196837Y-33464492D01*
X153129977Y-33383023D01*
X152804881Y-33116223D01*
X152433982Y-32917974D01*
X152031533Y-32795892D01*
X151717882Y-32765000D01*
X151717872Y-32765000D01*
X151613000Y-32754671D01*
X151508128Y-32765000D01*
X133985000Y-32765000D01*
X133985000Y-32017122D01*
X133765375Y-30912996D01*
X133334567Y-29872933D01*
X132709130Y-28936900D01*
X131913100Y-28140870D01*
X130977067Y-27515433D01*
X129937004Y-27084625D01*
X128832878Y-26865000D01*
X127707122Y-26865000D01*
X126602996Y-27084625D01*
X125562933Y-27515433D01*
X124626900Y-28140870D01*
X123830870Y-28936900D01*
X123205433Y-29872933D01*
X122774625Y-30912996D01*
X122555000Y-32017122D01*
X122555000Y-33142878D01*
X122774625Y-34247004D01*
X123205433Y-35287067D01*
X123830870Y-36223100D01*
X124626900Y-37019130D01*
X125562933Y-37644567D01*
X126602996Y-38075375D01*
X127707122Y-38295000D01*
X128832878Y-38295000D01*
X129937004Y-38075375D01*
X130977067Y-37644567D01*
X131889349Y-37035000D01*
X150728655Y-37035000D01*
X152213167Y-38519513D01*
X152238176Y-38549987D01*
X152147308Y-38549987D01*
X151346801Y-37749480D01*
X151279941Y-37668011D01*
X150954845Y-37401211D01*
X150583946Y-37202962D01*
X150181497Y-37080880D01*
X149867846Y-37049988D01*
X149867836Y-37049988D01*
X149762964Y-37039659D01*
X149658092Y-37049988D01*
X143799883Y-37049988D01*
X143695011Y-37039659D01*
X143590139Y-37049988D01*
X143590130Y-37049988D01*
X143276479Y-37080880D01*
X142874030Y-37202962D01*
X142503131Y-37401211D01*
X142503129Y-37401212D01*
X142503130Y-37401212D01*
X142259501Y-37601153D01*
X142259499Y-37601155D01*
X142178035Y-37668011D01*
X142111179Y-37749475D01*
X136994492Y-42866163D01*
X136913023Y-42933023D01*
X136646223Y-43258119D01*
X136447974Y-43629019D01*
X136325892Y-44031468D01*
X136295000Y-44345119D01*
X136295000Y-44345128D01*
X136284671Y-44450000D01*
X136295000Y-44554872D01*
X136295001Y-57535653D01*
X130509072Y-63321583D01*
X129937004Y-63084625D01*
X128832878Y-62865000D01*
X127707122Y-62865000D01*
X126602996Y-63084625D01*
X125562933Y-63515433D01*
X124626900Y-64140870D01*
X123830870Y-64936900D01*
X123205433Y-65872933D01*
X122774625Y-66912996D01*
X122555000Y-68017122D01*
X122555000Y-69142878D01*
X122774625Y-70247004D01*
X123205433Y-71287067D01*
X123830870Y-72223100D01*
X124626900Y-73019130D01*
X125562933Y-73644567D01*
X126602996Y-74075375D01*
X127707122Y-74295000D01*
X128832878Y-74295000D01*
X129937004Y-74075375D01*
X130977067Y-73644567D01*
X131913100Y-73019130D01*
X132709130Y-72223100D01*
X133334567Y-71287067D01*
X133765375Y-70247004D01*
X133985000Y-69142878D01*
X133985000Y-68017122D01*
X133765375Y-66912996D01*
X133528417Y-66340928D01*
X139865513Y-60003833D01*
X139946977Y-59936977D01*
X140062688Y-59795984D01*
X140213776Y-59611882D01*
X140222243Y-59596043D01*
X140412026Y-59240982D01*
X140454488Y-59101005D01*
X140534108Y-58838534D01*
X140537805Y-58800999D01*
X140565000Y-58524882D01*
X140565000Y-58524875D01*
X140575329Y-58420000D01*
X140565000Y-58315126D01*
X140565000Y-45334345D01*
X144579358Y-41319988D01*
X148878619Y-41319988D01*
X149127963Y-41569332D01*
X149127963Y-41752614D01*
X148674431Y-41564755D01*
X148068756Y-41444279D01*
X147451214Y-41444279D01*
X146845539Y-41564755D01*
X146275006Y-41801078D01*
X145761539Y-42144165D01*
X145324871Y-42580833D01*
X144981784Y-43094300D01*
X144745461Y-43664833D01*
X144624985Y-44270508D01*
X144624985Y-44888050D01*
X144745461Y-45493725D01*
X144981784Y-46064258D01*
X145157713Y-46327555D01*
X144622165Y-46434082D01*
X144051632Y-46670405D01*
X143538165Y-47013492D01*
X143101497Y-47450160D01*
X142758410Y-47963627D01*
X142522087Y-48534160D01*
X142401611Y-49139835D01*
X142401611Y-49757377D01*
X142522087Y-50363052D01*
X142758410Y-50933585D01*
X143101497Y-51447052D01*
X143538165Y-51883720D01*
X144051632Y-52226807D01*
X144287621Y-52324557D01*
X143863633Y-52748545D01*
X143520546Y-53262012D01*
X143284223Y-53832545D01*
X143163747Y-54438220D01*
X143163747Y-55055762D01*
X143284223Y-55661437D01*
X143520546Y-56231970D01*
X143863633Y-56745437D01*
X144300301Y-57182105D01*
X144813768Y-57525192D01*
X145384301Y-57761515D01*
X145989976Y-57881991D01*
X146607518Y-57881991D01*
X146804374Y-57842834D01*
X146789896Y-57877788D01*
X146669420Y-58483463D01*
X146669420Y-59101005D01*
X146789896Y-59706680D01*
X147026219Y-60277213D01*
X147369306Y-60790680D01*
X147669420Y-61090794D01*
X147669420Y-61274947D01*
X147659091Y-61379819D01*
X147669420Y-61484691D01*
X147669420Y-61484700D01*
X147700312Y-61798351D01*
X147822394Y-62200800D01*
X148020643Y-62571700D01*
X148287443Y-62896796D01*
X148368912Y-62963656D01*
X151904496Y-66499241D01*
X151579018Y-66597974D01*
X151208118Y-66796224D01*
X150964490Y-66996164D01*
X142625655Y-75335000D01*
X125341565Y-75335000D01*
X125328835Y-75319489D01*
X121515000Y-71505655D01*
X121515000Y-60354345D01*
X126030929Y-55838417D01*
X126602996Y-56075375D01*
X127707122Y-56295000D01*
X128832878Y-56295000D01*
X129937004Y-56075375D01*
X130977067Y-55644567D01*
X131913100Y-55019130D01*
X132709130Y-54223100D01*
X133334567Y-53287067D01*
X133765375Y-52247004D01*
X133985000Y-51142878D01*
X133985000Y-50017122D01*
X133765375Y-48912996D01*
X133334567Y-47872933D01*
X132709130Y-46936900D01*
X131913100Y-46140870D01*
X130977067Y-45515433D01*
X129937004Y-45084625D01*
X128832878Y-44865000D01*
X127707122Y-44865000D01*
X126602996Y-45084625D01*
X125562933Y-45515433D01*
X124626900Y-46140870D01*
X123830870Y-46936900D01*
X123205433Y-47872933D01*
X122774625Y-48912996D01*
X122555000Y-50017122D01*
X122555000Y-51142878D01*
X122774625Y-52247004D01*
X123011583Y-52819071D01*
X117944492Y-57886163D01*
X117863023Y-57953023D01*
X117596223Y-58278119D01*
X117397974Y-58649019D01*
X117275892Y-59051468D01*
X117245000Y-59365119D01*
X117245000Y-59365128D01*
X117234671Y-59470000D01*
X117245000Y-59574872D01*
X117245001Y-72285118D01*
X117234671Y-72390000D01*
X117275893Y-72808533D01*
X117397975Y-73210982D01*
X117596224Y-73581881D01*
X117796165Y-73825510D01*
X117796168Y-73825513D01*
X117863024Y-73906977D01*
X117944487Y-73973832D01*
X122309489Y-78338835D01*
X122553118Y-78538776D01*
X122633342Y-78581657D01*
X122676223Y-78661881D01*
X122756747Y-78760000D01*
X97180000Y-78760000D01*
X97180000Y-68929039D01*
X106558096Y-68929039D01*
X106598754Y-69063087D01*
X106718963Y-69317420D01*
X106886481Y-69543414D01*
X107094869Y-69732385D01*
X107336119Y-69877070D01*
X107600960Y-69971909D01*
X107823000Y-69850624D01*
X107823000Y-68707000D01*
X108077000Y-68707000D01*
X108077000Y-69850624D01*
X108299040Y-69971909D01*
X108563881Y-69877070D01*
X108805131Y-69732385D01*
X109013519Y-69543414D01*
X109181037Y-69317420D01*
X109301246Y-69063087D01*
X109341904Y-68929039D01*
X109219915Y-68707000D01*
X108077000Y-68707000D01*
X107823000Y-68707000D01*
X106680085Y-68707000D01*
X106558096Y-68929039D01*
X97180000Y-68929039D01*
X97180000Y-65898665D01*
X106515000Y-65898665D01*
X106515000Y-66181335D01*
X106570147Y-66458574D01*
X106678320Y-66719727D01*
X106835363Y-66954759D01*
X107035241Y-67154637D01*
X107270273Y-67311680D01*
X107280865Y-67316067D01*
X107094869Y-67427615D01*
X106886481Y-67616586D01*
X106718963Y-67842580D01*
X106598754Y-68096913D01*
X106558096Y-68230961D01*
X106680085Y-68453000D01*
X107823000Y-68453000D01*
X107823000Y-68433000D01*
X108077000Y-68433000D01*
X108077000Y-68453000D01*
X109219915Y-68453000D01*
X109227790Y-68438665D01*
X114135000Y-68438665D01*
X114135000Y-68721335D01*
X114190147Y-68998574D01*
X114298320Y-69259727D01*
X114455363Y-69494759D01*
X114655241Y-69694637D01*
X114890273Y-69851680D01*
X115151426Y-69959853D01*
X115428665Y-70015000D01*
X115711335Y-70015000D01*
X115988574Y-69959853D01*
X116249727Y-69851680D01*
X116484759Y-69694637D01*
X116684637Y-69494759D01*
X116841680Y-69259727D01*
X116949853Y-68998574D01*
X117005000Y-68721335D01*
X117005000Y-68438665D01*
X116949853Y-68161426D01*
X116841680Y-67900273D01*
X116684637Y-67665241D01*
X116484759Y-67465363D01*
X116249727Y-67308320D01*
X116239135Y-67303933D01*
X116425131Y-67192385D01*
X116633519Y-67003414D01*
X116801037Y-66777420D01*
X116921246Y-66523087D01*
X116961904Y-66389039D01*
X116839915Y-66167000D01*
X115697000Y-66167000D01*
X115697000Y-66187000D01*
X115443000Y-66187000D01*
X115443000Y-66167000D01*
X114300085Y-66167000D01*
X114178096Y-66389039D01*
X114218754Y-66523087D01*
X114338963Y-66777420D01*
X114506481Y-67003414D01*
X114714869Y-67192385D01*
X114900865Y-67303933D01*
X114890273Y-67308320D01*
X114655241Y-67465363D01*
X114455363Y-67665241D01*
X114298320Y-67900273D01*
X114190147Y-68161426D01*
X114135000Y-68438665D01*
X109227790Y-68438665D01*
X109341904Y-68230961D01*
X109301246Y-68096913D01*
X109181037Y-67842580D01*
X109013519Y-67616586D01*
X108805131Y-67427615D01*
X108619135Y-67316067D01*
X108629727Y-67311680D01*
X108864759Y-67154637D01*
X109064637Y-66954759D01*
X109221680Y-66719727D01*
X109329853Y-66458574D01*
X109385000Y-66181335D01*
X109385000Y-65898665D01*
X109329853Y-65621426D01*
X109221680Y-65360273D01*
X109064637Y-65125241D01*
X108864759Y-64925363D01*
X108629727Y-64768320D01*
X108619135Y-64763933D01*
X108805131Y-64652385D01*
X109013519Y-64463414D01*
X109181037Y-64237420D01*
X109301246Y-63983087D01*
X109341904Y-63849039D01*
X114178096Y-63849039D01*
X114218754Y-63983087D01*
X114338963Y-64237420D01*
X114506481Y-64463414D01*
X114714869Y-64652385D01*
X114910982Y-64770000D01*
X114714869Y-64887615D01*
X114506481Y-65076586D01*
X114338963Y-65302580D01*
X114218754Y-65556913D01*
X114178096Y-65690961D01*
X114300085Y-65913000D01*
X115443000Y-65913000D01*
X115443000Y-63627000D01*
X115697000Y-63627000D01*
X115697000Y-65913000D01*
X116839915Y-65913000D01*
X116961904Y-65690961D01*
X116921246Y-65556913D01*
X116801037Y-65302580D01*
X116633519Y-65076586D01*
X116425131Y-64887615D01*
X116229018Y-64770000D01*
X116425131Y-64652385D01*
X116633519Y-64463414D01*
X116801037Y-64237420D01*
X116921246Y-63983087D01*
X116961904Y-63849039D01*
X116839915Y-63627000D01*
X115697000Y-63627000D01*
X115443000Y-63627000D01*
X114300085Y-63627000D01*
X114178096Y-63849039D01*
X109341904Y-63849039D01*
X109219915Y-63627000D01*
X108077000Y-63627000D01*
X108077000Y-63647000D01*
X107823000Y-63647000D01*
X107823000Y-63627000D01*
X106680085Y-63627000D01*
X106558096Y-63849039D01*
X106598754Y-63983087D01*
X106718963Y-64237420D01*
X106886481Y-64463414D01*
X107094869Y-64652385D01*
X107280865Y-64763933D01*
X107270273Y-64768320D01*
X107035241Y-64925363D01*
X106835363Y-65125241D01*
X106678320Y-65360273D01*
X106570147Y-65621426D01*
X106515000Y-65898665D01*
X97180000Y-65898665D01*
X97180000Y-61892408D01*
X99493000Y-61892408D01*
X99493000Y-62167592D01*
X99546686Y-62437490D01*
X99651995Y-62691727D01*
X99804880Y-62920535D01*
X99999465Y-63115120D01*
X100228273Y-63268005D01*
X100482510Y-63373314D01*
X100752408Y-63427000D01*
X101027592Y-63427000D01*
X101297490Y-63373314D01*
X101551727Y-63268005D01*
X101780535Y-63115120D01*
X101975120Y-62920535D01*
X102128005Y-62691727D01*
X102233314Y-62437490D01*
X102287000Y-62167592D01*
X102287000Y-61892408D01*
X102233314Y-61622510D01*
X102128005Y-61368273D01*
X102088427Y-61309039D01*
X106558096Y-61309039D01*
X106598754Y-61443087D01*
X106718963Y-61697420D01*
X106886481Y-61923414D01*
X107094869Y-62112385D01*
X107290982Y-62230000D01*
X107094869Y-62347615D01*
X106886481Y-62536586D01*
X106718963Y-62762580D01*
X106598754Y-63016913D01*
X106558096Y-63150961D01*
X106680085Y-63373000D01*
X107823000Y-63373000D01*
X107823000Y-61087000D01*
X108077000Y-61087000D01*
X108077000Y-63373000D01*
X109219915Y-63373000D01*
X109341904Y-63150961D01*
X109301246Y-63016913D01*
X109181037Y-62762580D01*
X109013519Y-62536586D01*
X108805131Y-62347615D01*
X108609018Y-62230000D01*
X108805131Y-62112385D01*
X109013519Y-61923414D01*
X109181037Y-61697420D01*
X109301246Y-61443087D01*
X109341904Y-61309039D01*
X109219915Y-61087000D01*
X108077000Y-61087000D01*
X107823000Y-61087000D01*
X106680085Y-61087000D01*
X106558096Y-61309039D01*
X102088427Y-61309039D01*
X101975120Y-61139465D01*
X101780535Y-60944880D01*
X101551727Y-60791995D01*
X101297490Y-60686686D01*
X101027592Y-60633000D01*
X100752408Y-60633000D01*
X100482510Y-60686686D01*
X100228273Y-60791995D01*
X99999465Y-60944880D01*
X99804880Y-61139465D01*
X99651995Y-61368273D01*
X99546686Y-61622510D01*
X99493000Y-61892408D01*
X97180000Y-61892408D01*
X97180000Y-33952408D01*
X99493000Y-33952408D01*
X99493000Y-34227592D01*
X99546686Y-34497490D01*
X99651995Y-34751727D01*
X99804880Y-34980535D01*
X99999465Y-35175120D01*
X100228273Y-35328005D01*
X100482510Y-35433314D01*
X100752408Y-35487000D01*
X101027592Y-35487000D01*
X101297490Y-35433314D01*
X101551727Y-35328005D01*
X101780535Y-35175120D01*
X101975120Y-34980535D01*
X102128005Y-34751727D01*
X102233314Y-34497490D01*
X102287000Y-34227592D01*
X102287000Y-33952408D01*
X102233314Y-33682510D01*
X102128005Y-33428273D01*
X101975120Y-33199465D01*
X101780535Y-33004880D01*
X101551727Y-32851995D01*
X101297490Y-32746686D01*
X101027592Y-32693000D01*
X100752408Y-32693000D01*
X100482510Y-32746686D01*
X100228273Y-32851995D01*
X99999465Y-33004880D01*
X99804880Y-33199465D01*
X99651995Y-33428273D01*
X99546686Y-33682510D01*
X99493000Y-33952408D01*
X97180000Y-33952408D01*
X97180000Y-30055565D01*
X100104040Y-30055565D01*
X100171020Y-30295656D01*
X100420048Y-30412756D01*
X100687135Y-30479023D01*
X100962017Y-30491910D01*
X101234133Y-30450922D01*
X101493023Y-30357636D01*
X101608980Y-30295656D01*
X101675960Y-30055565D01*
X100890000Y-29269605D01*
X100104040Y-30055565D01*
X97180000Y-30055565D01*
X97180000Y-29162017D01*
X99488090Y-29162017D01*
X99529078Y-29434133D01*
X99622364Y-29693023D01*
X99684344Y-29808980D01*
X99924435Y-29875960D01*
X100710395Y-29090000D01*
X101069605Y-29090000D01*
X101855565Y-29875960D01*
X102095656Y-29808980D01*
X102212756Y-29559952D01*
X102279023Y-29292865D01*
X102291910Y-29017983D01*
X102250922Y-28745867D01*
X102157636Y-28486977D01*
X102095656Y-28371020D01*
X101855565Y-28304040D01*
X101069605Y-29090000D01*
X100710395Y-29090000D01*
X99924435Y-28304040D01*
X99684344Y-28371020D01*
X99567244Y-28620048D01*
X99500977Y-28887135D01*
X99488090Y-29162017D01*
X97180000Y-29162017D01*
X97180000Y-28124435D01*
X100104040Y-28124435D01*
X100890000Y-28910395D01*
X101675960Y-28124435D01*
X101608980Y-27884344D01*
X101359952Y-27767244D01*
X101092865Y-27700977D01*
X100817983Y-27688090D01*
X100545867Y-27729078D01*
X100286977Y-27822364D01*
X100171020Y-27884344D01*
X100104040Y-28124435D01*
X97180000Y-28124435D01*
X97180000Y-19710000D01*
X117707714Y-19710000D01*
X117478286Y-19898286D01*
G37*
X117478286Y-19898286D02*
X117427084Y-19960676D01*
X114470686Y-22917076D01*
X114408286Y-22968286D01*
X114283480Y-23120363D01*
X114139437Y-22948685D01*
X113896923Y-22754031D01*
X113621094Y-22610429D01*
X113402980Y-22539437D01*
X113157000Y-22659406D01*
X113157000Y-24003000D01*
X113177000Y-24003000D01*
X113177000Y-24257000D01*
X113157000Y-24257000D01*
X113157000Y-24277000D01*
X112903000Y-24277000D01*
X112903000Y-24257000D01*
X112883000Y-24257000D01*
X112883000Y-24003000D01*
X112903000Y-24003000D01*
X112903000Y-22659406D01*
X112657020Y-22539437D01*
X112438906Y-22610429D01*
X112163077Y-22754031D01*
X112022059Y-22867219D01*
X111973037Y-22775506D01*
X111893685Y-22678815D01*
X111796994Y-22599463D01*
X111686680Y-22540498D01*
X111566982Y-22504188D01*
X111442500Y-22491928D01*
X110854265Y-22491928D01*
X110810516Y-22478657D01*
X110570322Y-22455000D01*
X100809678Y-22455000D01*
X100569484Y-22478657D01*
X100261285Y-22572148D01*
X99977248Y-22723969D01*
X99728286Y-22928286D01*
X99523969Y-23177248D01*
X99372148Y-23461285D01*
X99278657Y-23769484D01*
X99247089Y-24090000D01*
X99278657Y-24410516D01*
X99372148Y-24718715D01*
X99523969Y-25002752D01*
X99728286Y-25251714D01*
X99977248Y-25456031D01*
X100261285Y-25607852D01*
X100569484Y-25701343D01*
X100809678Y-25725000D01*
X109311444Y-25725000D01*
X109413018Y-25755812D01*
X109537500Y-25768072D01*
X111442500Y-25768072D01*
X111566982Y-25755812D01*
X111686680Y-25719502D01*
X111796994Y-25660537D01*
X111893685Y-25581185D01*
X111973037Y-25484494D01*
X112022059Y-25392781D01*
X112163077Y-25505969D01*
X112438906Y-25649571D01*
X112657020Y-25720563D01*
X112902998Y-25600595D01*
X112902998Y-25607656D01*
X110404487Y-28106168D01*
X110323024Y-28173023D01*
X110256168Y-28254487D01*
X110256165Y-28254490D01*
X110056224Y-28498119D01*
X109857975Y-28869018D01*
X109735893Y-29271467D01*
X109694671Y-29690000D01*
X109705001Y-29794882D01*
X109705001Y-32543416D01*
X109682182Y-32468192D01*
X109548932Y-32218899D01*
X109369608Y-32000392D01*
X109151101Y-31821068D01*
X108901808Y-31687818D01*
X108631309Y-31605764D01*
X108420492Y-31585000D01*
X107479508Y-31585000D01*
X107268691Y-31605764D01*
X106998192Y-31687818D01*
X106748899Y-31821068D01*
X106530392Y-32000392D01*
X106351068Y-32218899D01*
X106217818Y-32468192D01*
X106135764Y-32738691D01*
X106108057Y-33020000D01*
X106135764Y-33301309D01*
X106217818Y-33571808D01*
X106351068Y-33821101D01*
X106530392Y-34039608D01*
X106748899Y-34218932D01*
X106876741Y-34287265D01*
X106647161Y-34437399D01*
X106445500Y-34635105D01*
X106286285Y-34868354D01*
X106175633Y-35128182D01*
X106158096Y-35210961D01*
X106280085Y-35433000D01*
X107823000Y-35433000D01*
X107823000Y-35413000D01*
X108077000Y-35413000D01*
X108077000Y-35433000D01*
X108097000Y-35433000D01*
X108097000Y-35687000D01*
X108077000Y-35687000D01*
X108077000Y-35707000D01*
X107823000Y-35707000D01*
X107823000Y-35687000D01*
X106280085Y-35687000D01*
X106158096Y-35909039D01*
X106175633Y-35991818D01*
X106286285Y-36251646D01*
X106445500Y-36484895D01*
X106647161Y-36682601D01*
X106876741Y-36832735D01*
X106748899Y-36901068D01*
X106530392Y-37080392D01*
X106351068Y-37298899D01*
X106217818Y-37548192D01*
X106135764Y-37818691D01*
X106108057Y-38100000D01*
X106135764Y-38381309D01*
X106217818Y-38651808D01*
X106351068Y-38901101D01*
X106530392Y-39119608D01*
X106748899Y-39298932D01*
X106876741Y-39367265D01*
X106647161Y-39517399D01*
X106445500Y-39715105D01*
X106286285Y-39948354D01*
X106175633Y-40208182D01*
X106158096Y-40290961D01*
X106280085Y-40513000D01*
X107823000Y-40513000D01*
X107823000Y-40493000D01*
X108077000Y-40493000D01*
X108077000Y-40513000D01*
X108097000Y-40513000D01*
X108097000Y-40767000D01*
X108077000Y-40767000D01*
X108077000Y-40787000D01*
X107823000Y-40787000D01*
X107823000Y-40767000D01*
X106280085Y-40767000D01*
X106158096Y-40989039D01*
X106175633Y-41071818D01*
X106286285Y-41331646D01*
X106445500Y-41564895D01*
X106647161Y-41762601D01*
X106876741Y-41912735D01*
X106748899Y-41981068D01*
X106530392Y-42160392D01*
X106351068Y-42378899D01*
X106217818Y-42628192D01*
X106135764Y-42898691D01*
X106108057Y-43180000D01*
X106135764Y-43461309D01*
X106217818Y-43731808D01*
X106351068Y-43981101D01*
X106530392Y-44199608D01*
X106748899Y-44378932D01*
X106876741Y-44447265D01*
X106647161Y-44597399D01*
X106445500Y-44795105D01*
X106286285Y-45028354D01*
X106175633Y-45288182D01*
X106158096Y-45370961D01*
X106280085Y-45593000D01*
X107823000Y-45593000D01*
X107823000Y-45573000D01*
X108077000Y-45573000D01*
X108077000Y-45593000D01*
X108097000Y-45593000D01*
X108097000Y-45847000D01*
X108077000Y-45847000D01*
X108077000Y-45867000D01*
X107823000Y-45867000D01*
X107823000Y-45847000D01*
X106280085Y-45847000D01*
X106158096Y-46069039D01*
X106175633Y-46151818D01*
X106286285Y-46411646D01*
X106445500Y-46644895D01*
X106481203Y-46679898D01*
X106453013Y-46703033D01*
X106444002Y-46714012D01*
X106433023Y-46723023D01*
X106166223Y-47048119D01*
X105967974Y-47419018D01*
X105845892Y-47821467D01*
X105815000Y-48135118D01*
X105815000Y-48135128D01*
X105804671Y-48240000D01*
X105815000Y-48344872D01*
X105815000Y-48364881D01*
X105845892Y-48678532D01*
X105967974Y-49080981D01*
X106166223Y-49451881D01*
X106433023Y-49776977D01*
X106758119Y-50043777D01*
X107129018Y-50242026D01*
X107531467Y-50364108D01*
X107950000Y-50405330D01*
X108368532Y-50364108D01*
X108398524Y-50355010D01*
X109295118Y-50355010D01*
X109399990Y-50365339D01*
X109504862Y-50355010D01*
X109504872Y-50355010D01*
X109818523Y-50324118D01*
X109969417Y-50278345D01*
X109390682Y-50857080D01*
X109328287Y-50908286D01*
X109254223Y-50998534D01*
X109123970Y-51157248D01*
X108972148Y-51441286D01*
X108878658Y-51749484D01*
X108862551Y-51913013D01*
X108750000Y-51901928D01*
X108727973Y-51901928D01*
X108578715Y-51822148D01*
X108270516Y-51728657D01*
X108030322Y-51705000D01*
X106087239Y-51705000D01*
X105312924Y-50930686D01*
X105261714Y-50868286D01*
X105012752Y-50663969D01*
X104728715Y-50512148D01*
X104420516Y-50418657D01*
X104180322Y-50395000D01*
X104180319Y-50395000D01*
X104100000Y-50387089D01*
X104019681Y-50395000D01*
X100809678Y-50395000D01*
X100569484Y-50418657D01*
X100261285Y-50512148D01*
X99977248Y-50663969D01*
X99728286Y-50868286D01*
X99523969Y-51117248D01*
X99372148Y-51401285D01*
X99278657Y-51709484D01*
X99247089Y-52030000D01*
X99278657Y-52350516D01*
X99372148Y-52658715D01*
X99523969Y-52942752D01*
X99728286Y-53191714D01*
X99977248Y-53396031D01*
X100261285Y-53547852D01*
X100569484Y-53641343D01*
X100809678Y-53665000D01*
X103422762Y-53665000D01*
X104197079Y-54439318D01*
X104248286Y-54501714D01*
X104497248Y-54706031D01*
X104651752Y-54788615D01*
X104781285Y-54857852D01*
X105089483Y-54951343D01*
X105277864Y-54969897D01*
X104852761Y-55395000D01*
X100809678Y-55395000D01*
X100569484Y-55418657D01*
X100261285Y-55512148D01*
X99977248Y-55663969D01*
X99728286Y-55868286D01*
X99523969Y-56117248D01*
X99372148Y-56401285D01*
X99278657Y-56709484D01*
X99247089Y-57030000D01*
X99278657Y-57350516D01*
X99372148Y-57658715D01*
X99523969Y-57942752D01*
X99728286Y-58191714D01*
X99977248Y-58396031D01*
X100261285Y-58547852D01*
X100569484Y-58641343D01*
X100809678Y-58665000D01*
X105449681Y-58665000D01*
X105530000Y-58672911D01*
X105610319Y-58665000D01*
X105610322Y-58665000D01*
X105850516Y-58641343D01*
X106158715Y-58547852D01*
X106311631Y-58466117D01*
X106338657Y-58740516D01*
X106432148Y-59048715D01*
X106583969Y-59332752D01*
X106788286Y-59581714D01*
X107037248Y-59786031D01*
X107088476Y-59813413D01*
X106886481Y-59996586D01*
X106718963Y-60222580D01*
X106598754Y-60476913D01*
X106558096Y-60610961D01*
X106680085Y-60833000D01*
X107823000Y-60833000D01*
X107823000Y-60813000D01*
X108077000Y-60813000D01*
X108077000Y-60833000D01*
X109219915Y-60833000D01*
X109227790Y-60818665D01*
X114135000Y-60818665D01*
X114135000Y-61101335D01*
X114190147Y-61378574D01*
X114298320Y-61639727D01*
X114455363Y-61874759D01*
X114655241Y-62074637D01*
X114890273Y-62231680D01*
X114900865Y-62236067D01*
X114714869Y-62347615D01*
X114506481Y-62536586D01*
X114338963Y-62762580D01*
X114218754Y-63016913D01*
X114178096Y-63150961D01*
X114300085Y-63373000D01*
X115443000Y-63373000D01*
X115443000Y-63353000D01*
X115697000Y-63353000D01*
X115697000Y-63373000D01*
X116839915Y-63373000D01*
X116961904Y-63150961D01*
X116921246Y-63016913D01*
X116801037Y-62762580D01*
X116633519Y-62536586D01*
X116425131Y-62347615D01*
X116239135Y-62236067D01*
X116249727Y-62231680D01*
X116484759Y-62074637D01*
X116684637Y-61874759D01*
X116841680Y-61639727D01*
X116949853Y-61378574D01*
X117005000Y-61101335D01*
X117005000Y-60818665D01*
X116949853Y-60541426D01*
X116841680Y-60280273D01*
X116684637Y-60045241D01*
X116484759Y-59845363D01*
X116249727Y-59688320D01*
X116239135Y-59683933D01*
X116425131Y-59572385D01*
X116633519Y-59383414D01*
X116801037Y-59157420D01*
X116921246Y-58903087D01*
X116961904Y-58769039D01*
X116839915Y-58547000D01*
X115697000Y-58547000D01*
X115697000Y-58567000D01*
X115443000Y-58567000D01*
X115443000Y-58547000D01*
X114300085Y-58547000D01*
X114178096Y-58769039D01*
X114218754Y-58903087D01*
X114338963Y-59157420D01*
X114506481Y-59383414D01*
X114714869Y-59572385D01*
X114900865Y-59683933D01*
X114890273Y-59688320D01*
X114655241Y-59845363D01*
X114455363Y-60045241D01*
X114298320Y-60280273D01*
X114190147Y-60541426D01*
X114135000Y-60818665D01*
X109227790Y-60818665D01*
X109341904Y-60610961D01*
X109301246Y-60476913D01*
X109181037Y-60222580D01*
X109061211Y-60060925D01*
X109081370Y-60062911D01*
X109161689Y-60055000D01*
X109161692Y-60055000D01*
X109401886Y-60031343D01*
X109710085Y-59937852D01*
X109994122Y-59786031D01*
X110243084Y-59581714D01*
X110294294Y-59519314D01*
X111589325Y-58224285D01*
X111651714Y-58173084D01*
X111856031Y-57924122D01*
X112007852Y-57640085D01*
X112048148Y-57507248D01*
X112101343Y-57331887D01*
X112132911Y-57011370D01*
X112125000Y-56931048D01*
X112125000Y-56229039D01*
X114178096Y-56229039D01*
X114218754Y-56363087D01*
X114338963Y-56617420D01*
X114506481Y-56843414D01*
X114714869Y-57032385D01*
X114910982Y-57150000D01*
X114714869Y-57267615D01*
X114506481Y-57456586D01*
X114338963Y-57682580D01*
X114218754Y-57936913D01*
X114178096Y-58070961D01*
X114300085Y-58293000D01*
X115443000Y-58293000D01*
X115443000Y-56007000D01*
X115697000Y-56007000D01*
X115697000Y-58293000D01*
X116839915Y-58293000D01*
X116961904Y-58070961D01*
X116921246Y-57936913D01*
X116801037Y-57682580D01*
X116633519Y-57456586D01*
X116425131Y-57267615D01*
X116229018Y-57150000D01*
X116425131Y-57032385D01*
X116633519Y-56843414D01*
X116801037Y-56617420D01*
X116921246Y-56363087D01*
X116961904Y-56229039D01*
X116839915Y-56007000D01*
X115697000Y-56007000D01*
X115443000Y-56007000D01*
X114300085Y-56007000D01*
X114178096Y-56229039D01*
X112125000Y-56229039D01*
X112125000Y-53198665D01*
X114135000Y-53198665D01*
X114135000Y-53481335D01*
X114190147Y-53758574D01*
X114298320Y-54019727D01*
X114455363Y-54254759D01*
X114655241Y-54454637D01*
X114890273Y-54611680D01*
X114900865Y-54616067D01*
X114714869Y-54727615D01*
X114506481Y-54916586D01*
X114338963Y-55142580D01*
X114218754Y-55396913D01*
X114178096Y-55530961D01*
X114300085Y-55753000D01*
X115443000Y-55753000D01*
X115443000Y-55733000D01*
X115697000Y-55733000D01*
X115697000Y-55753000D01*
X116839915Y-55753000D01*
X116961904Y-55530961D01*
X116921246Y-55396913D01*
X116801037Y-55142580D01*
X116633519Y-54916586D01*
X116425131Y-54727615D01*
X116239135Y-54616067D01*
X116249727Y-54611680D01*
X116484759Y-54454637D01*
X116684637Y-54254759D01*
X116841680Y-54019727D01*
X116949853Y-53758574D01*
X117005000Y-53481335D01*
X117005000Y-53198665D01*
X116949853Y-52921426D01*
X116841680Y-52660273D01*
X116684637Y-52425241D01*
X116484759Y-52225363D01*
X116249727Y-52068320D01*
X115988574Y-51960147D01*
X115711335Y-51905000D01*
X115428665Y-51905000D01*
X115151426Y-51960147D01*
X114890273Y-52068320D01*
X114655241Y-52225363D01*
X114455363Y-52425241D01*
X114298320Y-52660273D01*
X114190147Y-52921426D01*
X114135000Y-53198665D01*
X112125000Y-53198665D01*
X112125000Y-52747238D01*
X114977240Y-49895000D01*
X115650322Y-49895000D01*
X115890516Y-49871343D01*
X116198715Y-49777852D01*
X116347973Y-49698072D01*
X116770000Y-49698072D01*
X116894482Y-49685812D01*
X117014180Y-49649502D01*
X117124494Y-49590537D01*
X117221185Y-49511185D01*
X117300537Y-49414494D01*
X117359502Y-49304180D01*
X117395812Y-49184482D01*
X117408072Y-49060000D01*
X117408072Y-47460000D01*
X117397731Y-47355000D01*
X118689681Y-47355000D01*
X118770000Y-47362911D01*
X118850319Y-47355000D01*
X118850322Y-47355000D01*
X119090516Y-47331343D01*
X119398715Y-47237852D01*
X119682752Y-47086031D01*
X119931714Y-46881714D01*
X119982925Y-46819313D01*
X120479314Y-46322924D01*
X120541714Y-46271714D01*
X120746031Y-46022752D01*
X120897852Y-45738715D01*
X120991343Y-45430516D01*
X121015000Y-45190322D01*
X121015000Y-45190320D01*
X121022911Y-45110001D01*
X121015000Y-45029681D01*
X121015000Y-27347238D01*
X122597239Y-25765000D01*
X143912760Y-25765000D01*
X146225000Y-28077241D01*
X146224999Y-29117663D01*
X146165506Y-29149463D01*
X146068815Y-29228815D01*
X145989463Y-29325506D01*
X145930498Y-29435820D01*
X145894188Y-29555518D01*
X145881928Y-29680000D01*
X145881928Y-29702029D01*
X145802148Y-29851286D01*
X145708658Y-30159484D01*
X145677089Y-30480000D01*
X145708658Y-30800516D01*
X145802148Y-31108714D01*
X145881928Y-31257971D01*
X145881928Y-31280000D01*
X145894188Y-31404482D01*
X145930498Y-31524180D01*
X145989463Y-31634494D01*
X146068815Y-31731185D01*
X146165506Y-31810537D01*
X146275820Y-31869502D01*
X146395518Y-31905812D01*
X146520000Y-31918072D01*
X146542029Y-31918072D01*
X146691286Y-31997852D01*
X146999484Y-32091342D01*
X147320000Y-32122911D01*
X147640516Y-32091342D01*
X147948714Y-31997852D01*
X148097971Y-31918072D01*
X148120000Y-31918072D01*
X148244482Y-31905812D01*
X148364180Y-31869502D01*
X148474494Y-31810537D01*
X148571185Y-31731185D01*
X148650537Y-31634494D01*
X148709502Y-31524180D01*
X148745812Y-31404482D01*
X148746643Y-31396039D01*
X148945241Y-31594637D01*
X149180273Y-31751680D01*
X149441426Y-31859853D01*
X149718665Y-31915000D01*
X150001335Y-31915000D01*
X150278574Y-31859853D01*
X150539727Y-31751680D01*
X150774759Y-31594637D01*
X150974637Y-31394759D01*
X151008196Y-31344534D01*
X151033969Y-31392751D01*
X151238286Y-31641714D01*
X151487248Y-31846031D01*
X151771285Y-31997852D01*
X152079484Y-32091343D01*
X152400000Y-32122911D01*
X152720515Y-32091343D01*
X153028714Y-31997852D01*
X153312751Y-31846031D01*
X153561714Y-31641714D01*
X153766031Y-31392752D01*
X153791804Y-31344534D01*
X153825363Y-31394759D01*
X154025241Y-31594637D01*
X154260273Y-31751680D01*
X154521426Y-31859853D01*
X154798665Y-31915000D01*
X155081335Y-31915000D01*
X155358574Y-31859853D01*
X155619727Y-31751680D01*
X155854759Y-31594637D01*
X156054637Y-31394759D01*
X156088196Y-31344534D01*
X156113969Y-31392751D01*
X156318286Y-31641714D01*
X156567248Y-31846031D01*
X156851285Y-31997852D01*
X156946980Y-32026881D01*
X156694248Y-32161969D01*
X156445286Y-32366286D01*
X156394075Y-32428687D01*
X156140085Y-32682677D01*
X155986970Y-32869248D01*
X155835148Y-33153286D01*
X155741658Y-33461484D01*
X155710089Y-33782000D01*
X155741658Y-34102516D01*
X155835148Y-34410714D01*
X155986970Y-34694752D01*
X156191287Y-34943713D01*
X156197729Y-34949000D01*
X154681346Y-34949000D01*
X153196837Y-33464492D01*
X153129977Y-33383023D01*
X152804881Y-33116223D01*
X152433982Y-32917974D01*
X152031533Y-32795892D01*
X151717882Y-32765000D01*
X151717872Y-32765000D01*
X151613000Y-32754671D01*
X151508128Y-32765000D01*
X133985000Y-32765000D01*
X133985000Y-32017122D01*
X133765375Y-30912996D01*
X133334567Y-29872933D01*
X132709130Y-28936900D01*
X131913100Y-28140870D01*
X130977067Y-27515433D01*
X129937004Y-27084625D01*
X128832878Y-26865000D01*
X127707122Y-26865000D01*
X126602996Y-27084625D01*
X125562933Y-27515433D01*
X124626900Y-28140870D01*
X123830870Y-28936900D01*
X123205433Y-29872933D01*
X122774625Y-30912996D01*
X122555000Y-32017122D01*
X122555000Y-33142878D01*
X122774625Y-34247004D01*
X123205433Y-35287067D01*
X123830870Y-36223100D01*
X124626900Y-37019130D01*
X125562933Y-37644567D01*
X126602996Y-38075375D01*
X127707122Y-38295000D01*
X128832878Y-38295000D01*
X129937004Y-38075375D01*
X130977067Y-37644567D01*
X131889349Y-37035000D01*
X150728655Y-37035000D01*
X152213167Y-38519513D01*
X152238176Y-38549987D01*
X152147308Y-38549987D01*
X151346801Y-37749480D01*
X151279941Y-37668011D01*
X150954845Y-37401211D01*
X150583946Y-37202962D01*
X150181497Y-37080880D01*
X149867846Y-37049988D01*
X149867836Y-37049988D01*
X149762964Y-37039659D01*
X149658092Y-37049988D01*
X143799883Y-37049988D01*
X143695011Y-37039659D01*
X143590139Y-37049988D01*
X143590130Y-37049988D01*
X143276479Y-37080880D01*
X142874030Y-37202962D01*
X142503131Y-37401211D01*
X142503129Y-37401212D01*
X142503130Y-37401212D01*
X142259501Y-37601153D01*
X142259499Y-37601155D01*
X142178035Y-37668011D01*
X142111179Y-37749475D01*
X136994492Y-42866163D01*
X136913023Y-42933023D01*
X136646223Y-43258119D01*
X136447974Y-43629019D01*
X136325892Y-44031468D01*
X136295000Y-44345119D01*
X136295000Y-44345128D01*
X136284671Y-44450000D01*
X136295000Y-44554872D01*
X136295001Y-57535653D01*
X130509072Y-63321583D01*
X129937004Y-63084625D01*
X128832878Y-62865000D01*
X127707122Y-62865000D01*
X126602996Y-63084625D01*
X125562933Y-63515433D01*
X124626900Y-64140870D01*
X123830870Y-64936900D01*
X123205433Y-65872933D01*
X122774625Y-66912996D01*
X122555000Y-68017122D01*
X122555000Y-69142878D01*
X122774625Y-70247004D01*
X123205433Y-71287067D01*
X123830870Y-72223100D01*
X124626900Y-73019130D01*
X125562933Y-73644567D01*
X126602996Y-74075375D01*
X127707122Y-74295000D01*
X128832878Y-74295000D01*
X129937004Y-74075375D01*
X130977067Y-73644567D01*
X131913100Y-73019130D01*
X132709130Y-72223100D01*
X133334567Y-71287067D01*
X133765375Y-70247004D01*
X133985000Y-69142878D01*
X133985000Y-68017122D01*
X133765375Y-66912996D01*
X133528417Y-66340928D01*
X139865513Y-60003833D01*
X139946977Y-59936977D01*
X140062688Y-59795984D01*
X140213776Y-59611882D01*
X140222243Y-59596043D01*
X140412026Y-59240982D01*
X140454488Y-59101005D01*
X140534108Y-58838534D01*
X140537805Y-58800999D01*
X140565000Y-58524882D01*
X140565000Y-58524875D01*
X140575329Y-58420000D01*
X140565000Y-58315126D01*
X140565000Y-45334345D01*
X144579358Y-41319988D01*
X148878619Y-41319988D01*
X149127963Y-41569332D01*
X149127963Y-41752614D01*
X148674431Y-41564755D01*
X148068756Y-41444279D01*
X147451214Y-41444279D01*
X146845539Y-41564755D01*
X146275006Y-41801078D01*
X145761539Y-42144165D01*
X145324871Y-42580833D01*
X144981784Y-43094300D01*
X144745461Y-43664833D01*
X144624985Y-44270508D01*
X144624985Y-44888050D01*
X144745461Y-45493725D01*
X144981784Y-46064258D01*
X145157713Y-46327555D01*
X144622165Y-46434082D01*
X144051632Y-46670405D01*
X143538165Y-47013492D01*
X143101497Y-47450160D01*
X142758410Y-47963627D01*
X142522087Y-48534160D01*
X142401611Y-49139835D01*
X142401611Y-49757377D01*
X142522087Y-50363052D01*
X142758410Y-50933585D01*
X143101497Y-51447052D01*
X143538165Y-51883720D01*
X144051632Y-52226807D01*
X144287621Y-52324557D01*
X143863633Y-52748545D01*
X143520546Y-53262012D01*
X143284223Y-53832545D01*
X143163747Y-54438220D01*
X143163747Y-55055762D01*
X143284223Y-55661437D01*
X143520546Y-56231970D01*
X143863633Y-56745437D01*
X144300301Y-57182105D01*
X144813768Y-57525192D01*
X145384301Y-57761515D01*
X145989976Y-57881991D01*
X146607518Y-57881991D01*
X146804374Y-57842834D01*
X146789896Y-57877788D01*
X146669420Y-58483463D01*
X146669420Y-59101005D01*
X146789896Y-59706680D01*
X147026219Y-60277213D01*
X147369306Y-60790680D01*
X147669420Y-61090794D01*
X147669420Y-61274947D01*
X147659091Y-61379819D01*
X147669420Y-61484691D01*
X147669420Y-61484700D01*
X147700312Y-61798351D01*
X147822394Y-62200800D01*
X148020643Y-62571700D01*
X148287443Y-62896796D01*
X148368912Y-62963656D01*
X151904496Y-66499241D01*
X151579018Y-66597974D01*
X151208118Y-66796224D01*
X150964490Y-66996164D01*
X142625655Y-75335000D01*
X125341565Y-75335000D01*
X125328835Y-75319489D01*
X121515000Y-71505655D01*
X121515000Y-60354345D01*
X126030929Y-55838417D01*
X126602996Y-56075375D01*
X127707122Y-56295000D01*
X128832878Y-56295000D01*
X129937004Y-56075375D01*
X130977067Y-55644567D01*
X131913100Y-55019130D01*
X132709130Y-54223100D01*
X133334567Y-53287067D01*
X133765375Y-52247004D01*
X133985000Y-51142878D01*
X133985000Y-50017122D01*
X133765375Y-48912996D01*
X133334567Y-47872933D01*
X132709130Y-46936900D01*
X131913100Y-46140870D01*
X130977067Y-45515433D01*
X129937004Y-45084625D01*
X128832878Y-44865000D01*
X127707122Y-44865000D01*
X126602996Y-45084625D01*
X125562933Y-45515433D01*
X124626900Y-46140870D01*
X123830870Y-46936900D01*
X123205433Y-47872933D01*
X122774625Y-48912996D01*
X122555000Y-50017122D01*
X122555000Y-51142878D01*
X122774625Y-52247004D01*
X123011583Y-52819071D01*
X117944492Y-57886163D01*
X117863023Y-57953023D01*
X117596223Y-58278119D01*
X117397974Y-58649019D01*
X117275892Y-59051468D01*
X117245000Y-59365119D01*
X117245000Y-59365128D01*
X117234671Y-59470000D01*
X117245000Y-59574872D01*
X117245001Y-72285118D01*
X117234671Y-72390000D01*
X117275893Y-72808533D01*
X117397975Y-73210982D01*
X117596224Y-73581881D01*
X117796165Y-73825510D01*
X117796168Y-73825513D01*
X117863024Y-73906977D01*
X117944487Y-73973832D01*
X122309489Y-78338835D01*
X122553118Y-78538776D01*
X122633342Y-78581657D01*
X122676223Y-78661881D01*
X122756747Y-78760000D01*
X97180000Y-78760000D01*
X97180000Y-68929039D01*
X106558096Y-68929039D01*
X106598754Y-69063087D01*
X106718963Y-69317420D01*
X106886481Y-69543414D01*
X107094869Y-69732385D01*
X107336119Y-69877070D01*
X107600960Y-69971909D01*
X107823000Y-69850624D01*
X107823000Y-68707000D01*
X108077000Y-68707000D01*
X108077000Y-69850624D01*
X108299040Y-69971909D01*
X108563881Y-69877070D01*
X108805131Y-69732385D01*
X109013519Y-69543414D01*
X109181037Y-69317420D01*
X109301246Y-69063087D01*
X109341904Y-68929039D01*
X109219915Y-68707000D01*
X108077000Y-68707000D01*
X107823000Y-68707000D01*
X106680085Y-68707000D01*
X106558096Y-68929039D01*
X97180000Y-68929039D01*
X97180000Y-65898665D01*
X106515000Y-65898665D01*
X106515000Y-66181335D01*
X106570147Y-66458574D01*
X106678320Y-66719727D01*
X106835363Y-66954759D01*
X107035241Y-67154637D01*
X107270273Y-67311680D01*
X107280865Y-67316067D01*
X107094869Y-67427615D01*
X106886481Y-67616586D01*
X106718963Y-67842580D01*
X106598754Y-68096913D01*
X106558096Y-68230961D01*
X106680085Y-68453000D01*
X107823000Y-68453000D01*
X107823000Y-68433000D01*
X108077000Y-68433000D01*
X108077000Y-68453000D01*
X109219915Y-68453000D01*
X109227790Y-68438665D01*
X114135000Y-68438665D01*
X114135000Y-68721335D01*
X114190147Y-68998574D01*
X114298320Y-69259727D01*
X114455363Y-69494759D01*
X114655241Y-69694637D01*
X114890273Y-69851680D01*
X115151426Y-69959853D01*
X115428665Y-70015000D01*
X115711335Y-70015000D01*
X115988574Y-69959853D01*
X116249727Y-69851680D01*
X116484759Y-69694637D01*
X116684637Y-69494759D01*
X116841680Y-69259727D01*
X116949853Y-68998574D01*
X117005000Y-68721335D01*
X117005000Y-68438665D01*
X116949853Y-68161426D01*
X116841680Y-67900273D01*
X116684637Y-67665241D01*
X116484759Y-67465363D01*
X116249727Y-67308320D01*
X116239135Y-67303933D01*
X116425131Y-67192385D01*
X116633519Y-67003414D01*
X116801037Y-66777420D01*
X116921246Y-66523087D01*
X116961904Y-66389039D01*
X116839915Y-66167000D01*
X115697000Y-66167000D01*
X115697000Y-66187000D01*
X115443000Y-66187000D01*
X115443000Y-66167000D01*
X114300085Y-66167000D01*
X114178096Y-66389039D01*
X114218754Y-66523087D01*
X114338963Y-66777420D01*
X114506481Y-67003414D01*
X114714869Y-67192385D01*
X114900865Y-67303933D01*
X114890273Y-67308320D01*
X114655241Y-67465363D01*
X114455363Y-67665241D01*
X114298320Y-67900273D01*
X114190147Y-68161426D01*
X114135000Y-68438665D01*
X109227790Y-68438665D01*
X109341904Y-68230961D01*
X109301246Y-68096913D01*
X109181037Y-67842580D01*
X109013519Y-67616586D01*
X108805131Y-67427615D01*
X108619135Y-67316067D01*
X108629727Y-67311680D01*
X108864759Y-67154637D01*
X109064637Y-66954759D01*
X109221680Y-66719727D01*
X109329853Y-66458574D01*
X109385000Y-66181335D01*
X109385000Y-65898665D01*
X109329853Y-65621426D01*
X109221680Y-65360273D01*
X109064637Y-65125241D01*
X108864759Y-64925363D01*
X108629727Y-64768320D01*
X108619135Y-64763933D01*
X108805131Y-64652385D01*
X109013519Y-64463414D01*
X109181037Y-64237420D01*
X109301246Y-63983087D01*
X109341904Y-63849039D01*
X114178096Y-63849039D01*
X114218754Y-63983087D01*
X114338963Y-64237420D01*
X114506481Y-64463414D01*
X114714869Y-64652385D01*
X114910982Y-64770000D01*
X114714869Y-64887615D01*
X114506481Y-65076586D01*
X114338963Y-65302580D01*
X114218754Y-65556913D01*
X114178096Y-65690961D01*
X114300085Y-65913000D01*
X115443000Y-65913000D01*
X115443000Y-63627000D01*
X115697000Y-63627000D01*
X115697000Y-65913000D01*
X116839915Y-65913000D01*
X116961904Y-65690961D01*
X116921246Y-65556913D01*
X116801037Y-65302580D01*
X116633519Y-65076586D01*
X116425131Y-64887615D01*
X116229018Y-64770000D01*
X116425131Y-64652385D01*
X116633519Y-64463414D01*
X116801037Y-64237420D01*
X116921246Y-63983087D01*
X116961904Y-63849039D01*
X116839915Y-63627000D01*
X115697000Y-63627000D01*
X115443000Y-63627000D01*
X114300085Y-63627000D01*
X114178096Y-63849039D01*
X109341904Y-63849039D01*
X109219915Y-63627000D01*
X108077000Y-63627000D01*
X108077000Y-63647000D01*
X107823000Y-63647000D01*
X107823000Y-63627000D01*
X106680085Y-63627000D01*
X106558096Y-63849039D01*
X106598754Y-63983087D01*
X106718963Y-64237420D01*
X106886481Y-64463414D01*
X107094869Y-64652385D01*
X107280865Y-64763933D01*
X107270273Y-64768320D01*
X107035241Y-64925363D01*
X106835363Y-65125241D01*
X106678320Y-65360273D01*
X106570147Y-65621426D01*
X106515000Y-65898665D01*
X97180000Y-65898665D01*
X97180000Y-61892408D01*
X99493000Y-61892408D01*
X99493000Y-62167592D01*
X99546686Y-62437490D01*
X99651995Y-62691727D01*
X99804880Y-62920535D01*
X99999465Y-63115120D01*
X100228273Y-63268005D01*
X100482510Y-63373314D01*
X100752408Y-63427000D01*
X101027592Y-63427000D01*
X101297490Y-63373314D01*
X101551727Y-63268005D01*
X101780535Y-63115120D01*
X101975120Y-62920535D01*
X102128005Y-62691727D01*
X102233314Y-62437490D01*
X102287000Y-62167592D01*
X102287000Y-61892408D01*
X102233314Y-61622510D01*
X102128005Y-61368273D01*
X102088427Y-61309039D01*
X106558096Y-61309039D01*
X106598754Y-61443087D01*
X106718963Y-61697420D01*
X106886481Y-61923414D01*
X107094869Y-62112385D01*
X107290982Y-62230000D01*
X107094869Y-62347615D01*
X106886481Y-62536586D01*
X106718963Y-62762580D01*
X106598754Y-63016913D01*
X106558096Y-63150961D01*
X106680085Y-63373000D01*
X107823000Y-63373000D01*
X107823000Y-61087000D01*
X108077000Y-61087000D01*
X108077000Y-63373000D01*
X109219915Y-63373000D01*
X109341904Y-63150961D01*
X109301246Y-63016913D01*
X109181037Y-62762580D01*
X109013519Y-62536586D01*
X108805131Y-62347615D01*
X108609018Y-62230000D01*
X108805131Y-62112385D01*
X109013519Y-61923414D01*
X109181037Y-61697420D01*
X109301246Y-61443087D01*
X109341904Y-61309039D01*
X109219915Y-61087000D01*
X108077000Y-61087000D01*
X107823000Y-61087000D01*
X106680085Y-61087000D01*
X106558096Y-61309039D01*
X102088427Y-61309039D01*
X101975120Y-61139465D01*
X101780535Y-60944880D01*
X101551727Y-60791995D01*
X101297490Y-60686686D01*
X101027592Y-60633000D01*
X100752408Y-60633000D01*
X100482510Y-60686686D01*
X100228273Y-60791995D01*
X99999465Y-60944880D01*
X99804880Y-61139465D01*
X99651995Y-61368273D01*
X99546686Y-61622510D01*
X99493000Y-61892408D01*
X97180000Y-61892408D01*
X97180000Y-33952408D01*
X99493000Y-33952408D01*
X99493000Y-34227592D01*
X99546686Y-34497490D01*
X99651995Y-34751727D01*
X99804880Y-34980535D01*
X99999465Y-35175120D01*
X100228273Y-35328005D01*
X100482510Y-35433314D01*
X100752408Y-35487000D01*
X101027592Y-35487000D01*
X101297490Y-35433314D01*
X101551727Y-35328005D01*
X101780535Y-35175120D01*
X101975120Y-34980535D01*
X102128005Y-34751727D01*
X102233314Y-34497490D01*
X102287000Y-34227592D01*
X102287000Y-33952408D01*
X102233314Y-33682510D01*
X102128005Y-33428273D01*
X101975120Y-33199465D01*
X101780535Y-33004880D01*
X101551727Y-32851995D01*
X101297490Y-32746686D01*
X101027592Y-32693000D01*
X100752408Y-32693000D01*
X100482510Y-32746686D01*
X100228273Y-32851995D01*
X99999465Y-33004880D01*
X99804880Y-33199465D01*
X99651995Y-33428273D01*
X99546686Y-33682510D01*
X99493000Y-33952408D01*
X97180000Y-33952408D01*
X97180000Y-30055565D01*
X100104040Y-30055565D01*
X100171020Y-30295656D01*
X100420048Y-30412756D01*
X100687135Y-30479023D01*
X100962017Y-30491910D01*
X101234133Y-30450922D01*
X101493023Y-30357636D01*
X101608980Y-30295656D01*
X101675960Y-30055565D01*
X100890000Y-29269605D01*
X100104040Y-30055565D01*
X97180000Y-30055565D01*
X97180000Y-29162017D01*
X99488090Y-29162017D01*
X99529078Y-29434133D01*
X99622364Y-29693023D01*
X99684344Y-29808980D01*
X99924435Y-29875960D01*
X100710395Y-29090000D01*
X101069605Y-29090000D01*
X101855565Y-29875960D01*
X102095656Y-29808980D01*
X102212756Y-29559952D01*
X102279023Y-29292865D01*
X102291910Y-29017983D01*
X102250922Y-28745867D01*
X102157636Y-28486977D01*
X102095656Y-28371020D01*
X101855565Y-28304040D01*
X101069605Y-29090000D01*
X100710395Y-29090000D01*
X99924435Y-28304040D01*
X99684344Y-28371020D01*
X99567244Y-28620048D01*
X99500977Y-28887135D01*
X99488090Y-29162017D01*
X97180000Y-29162017D01*
X97180000Y-28124435D01*
X100104040Y-28124435D01*
X100890000Y-28910395D01*
X101675960Y-28124435D01*
X101608980Y-27884344D01*
X101359952Y-27767244D01*
X101092865Y-27700977D01*
X100817983Y-27688090D01*
X100545867Y-27729078D01*
X100286977Y-27822364D01*
X100171020Y-27884344D01*
X100104040Y-28124435D01*
X97180000Y-28124435D01*
X97180000Y-19710000D01*
X117707714Y-19710000D01*
X117478286Y-19898286D01*
G36*
X121007248Y-22763969D02*
G01*
X120758286Y-22968286D01*
X120707080Y-23030681D01*
X118280682Y-25457080D01*
X118218287Y-25508286D01*
X118040435Y-25725000D01*
X118013970Y-25757248D01*
X117862148Y-26041286D01*
X117768658Y-26349484D01*
X117737089Y-26670000D01*
X117745001Y-26750329D01*
X117745000Y-44085000D01*
X117088080Y-44085000D01*
X117233715Y-43871646D01*
X117344367Y-43611818D01*
X117361904Y-43529039D01*
X117239915Y-43307000D01*
X115697000Y-43307000D01*
X115697000Y-43327000D01*
X115443000Y-43327000D01*
X115443000Y-43307000D01*
X115423000Y-43307000D01*
X115423000Y-43053000D01*
X115443000Y-43053000D01*
X115443000Y-43033000D01*
X115697000Y-43033000D01*
X115697000Y-43053000D01*
X117239915Y-43053000D01*
X117361904Y-42830961D01*
X117344367Y-42748182D01*
X117233715Y-42488354D01*
X117074500Y-42255105D01*
X116872839Y-42057399D01*
X116643259Y-41907265D01*
X116771101Y-41838932D01*
X116989608Y-41659608D01*
X117168932Y-41441101D01*
X117302182Y-41191808D01*
X117384236Y-40921309D01*
X117411943Y-40640000D01*
X117384236Y-40358691D01*
X117302182Y-40088192D01*
X117168932Y-39838899D01*
X116989608Y-39620392D01*
X116771101Y-39441068D01*
X116643259Y-39372735D01*
X116872839Y-39222601D01*
X117074500Y-39024895D01*
X117233715Y-38791646D01*
X117344367Y-38531818D01*
X117361904Y-38449039D01*
X117239915Y-38227000D01*
X115697000Y-38227000D01*
X115697000Y-38247000D01*
X115443000Y-38247000D01*
X115443000Y-38227000D01*
X115423000Y-38227000D01*
X115423000Y-37973000D01*
X115443000Y-37973000D01*
X115443000Y-37953000D01*
X115697000Y-37953000D01*
X115697000Y-37973000D01*
X117239915Y-37973000D01*
X117361904Y-37750961D01*
X117344367Y-37668182D01*
X117233715Y-37408354D01*
X117074500Y-37175105D01*
X116872839Y-36977399D01*
X116643259Y-36827265D01*
X116771101Y-36758932D01*
X116989608Y-36579608D01*
X117168932Y-36361101D01*
X117302182Y-36111808D01*
X117384236Y-35841309D01*
X117411943Y-35560000D01*
X117384236Y-35278691D01*
X117302182Y-35008192D01*
X117168932Y-34758899D01*
X116989608Y-34540392D01*
X116771101Y-34361068D01*
X116643259Y-34292735D01*
X116872839Y-34142601D01*
X117074500Y-33944895D01*
X117233715Y-33711646D01*
X117344367Y-33451818D01*
X117361904Y-33369039D01*
X117239915Y-33147000D01*
X115697000Y-33147000D01*
X115697000Y-33167000D01*
X115443000Y-33167000D01*
X115443000Y-33147000D01*
X115423000Y-33147000D01*
X115423000Y-32893000D01*
X115443000Y-32893000D01*
X115443000Y-31585000D01*
X115697000Y-31585000D01*
X115697000Y-32893000D01*
X117239915Y-32893000D01*
X117361904Y-32670961D01*
X117344367Y-32588182D01*
X117233715Y-32328354D01*
X117074500Y-32095105D01*
X116872839Y-31897399D01*
X116636483Y-31742834D01*
X116374514Y-31637350D01*
X116097000Y-31585000D01*
X115697000Y-31585000D01*
X115443000Y-31585000D01*
X115043000Y-31585000D01*
X114765486Y-31637350D01*
X114503517Y-31742834D01*
X114267161Y-31897399D01*
X114065500Y-32095105D01*
X113975000Y-32227687D01*
X113975000Y-30574345D01*
X117266345Y-27283001D01*
X117466286Y-27039372D01*
X117664536Y-26668472D01*
X117786618Y-26266024D01*
X117827839Y-25847490D01*
X117786618Y-25428957D01*
X117664536Y-25026508D01*
X117466286Y-24655609D01*
X117416858Y-24595381D01*
X119317240Y-22695000D01*
X121136280Y-22695000D01*
X121007248Y-22763969D01*
G37*
X121007248Y-22763969D02*
X120758286Y-22968286D01*
X120707080Y-23030681D01*
X118280682Y-25457080D01*
X118218287Y-25508286D01*
X118040435Y-25725000D01*
X118013970Y-25757248D01*
X117862148Y-26041286D01*
X117768658Y-26349484D01*
X117737089Y-26670000D01*
X117745001Y-26750329D01*
X117745000Y-44085000D01*
X117088080Y-44085000D01*
X117233715Y-43871646D01*
X117344367Y-43611818D01*
X117361904Y-43529039D01*
X117239915Y-43307000D01*
X115697000Y-43307000D01*
X115697000Y-43327000D01*
X115443000Y-43327000D01*
X115443000Y-43307000D01*
X115423000Y-43307000D01*
X115423000Y-43053000D01*
X115443000Y-43053000D01*
X115443000Y-43033000D01*
X115697000Y-43033000D01*
X115697000Y-43053000D01*
X117239915Y-43053000D01*
X117361904Y-42830961D01*
X117344367Y-42748182D01*
X117233715Y-42488354D01*
X117074500Y-42255105D01*
X116872839Y-42057399D01*
X116643259Y-41907265D01*
X116771101Y-41838932D01*
X116989608Y-41659608D01*
X117168932Y-41441101D01*
X117302182Y-41191808D01*
X117384236Y-40921309D01*
X117411943Y-40640000D01*
X117384236Y-40358691D01*
X117302182Y-40088192D01*
X117168932Y-39838899D01*
X116989608Y-39620392D01*
X116771101Y-39441068D01*
X116643259Y-39372735D01*
X116872839Y-39222601D01*
X117074500Y-39024895D01*
X117233715Y-38791646D01*
X117344367Y-38531818D01*
X117361904Y-38449039D01*
X117239915Y-38227000D01*
X115697000Y-38227000D01*
X115697000Y-38247000D01*
X115443000Y-38247000D01*
X115443000Y-38227000D01*
X115423000Y-38227000D01*
X115423000Y-37973000D01*
X115443000Y-37973000D01*
X115443000Y-37953000D01*
X115697000Y-37953000D01*
X115697000Y-37973000D01*
X117239915Y-37973000D01*
X117361904Y-37750961D01*
X117344367Y-37668182D01*
X117233715Y-37408354D01*
X117074500Y-37175105D01*
X116872839Y-36977399D01*
X116643259Y-36827265D01*
X116771101Y-36758932D01*
X116989608Y-36579608D01*
X117168932Y-36361101D01*
X117302182Y-36111808D01*
X117384236Y-35841309D01*
X117411943Y-35560000D01*
X117384236Y-35278691D01*
X117302182Y-35008192D01*
X117168932Y-34758899D01*
X116989608Y-34540392D01*
X116771101Y-34361068D01*
X116643259Y-34292735D01*
X116872839Y-34142601D01*
X117074500Y-33944895D01*
X117233715Y-33711646D01*
X117344367Y-33451818D01*
X117361904Y-33369039D01*
X117239915Y-33147000D01*
X115697000Y-33147000D01*
X115697000Y-33167000D01*
X115443000Y-33167000D01*
X115443000Y-33147000D01*
X115423000Y-33147000D01*
X115423000Y-32893000D01*
X115443000Y-32893000D01*
X115443000Y-31585000D01*
X115697000Y-31585000D01*
X115697000Y-32893000D01*
X117239915Y-32893000D01*
X117361904Y-32670961D01*
X117344367Y-32588182D01*
X117233715Y-32328354D01*
X117074500Y-32095105D01*
X116872839Y-31897399D01*
X116636483Y-31742834D01*
X116374514Y-31637350D01*
X116097000Y-31585000D01*
X115697000Y-31585000D01*
X115443000Y-31585000D01*
X115043000Y-31585000D01*
X114765486Y-31637350D01*
X114503517Y-31742834D01*
X114267161Y-31897399D01*
X114065500Y-32095105D01*
X113975000Y-32227687D01*
X113975000Y-30574345D01*
X117266345Y-27283001D01*
X117466286Y-27039372D01*
X117664536Y-26668472D01*
X117786618Y-26266024D01*
X117827839Y-25847490D01*
X117786618Y-25428957D01*
X117664536Y-25026508D01*
X117466286Y-24655609D01*
X117416858Y-24595381D01*
X119317240Y-22695000D01*
X121136280Y-22695000D01*
X121007248Y-22763969D01*
%TD*%
M02*
