%TF.GenerationSoftware,KiCad,Pcbnew,(5.1.5)-3*%
%TF.CreationDate,2020-11-20T20:56:09+01:00*%
%TF.ProjectId,PCB,5043422e-6b69-4636-9164-5f7063625858,rev?*%
%TF.SameCoordinates,Original*%
%TF.FileFunction,Copper,L2,Bot*%
%TF.FilePolarity,Positive*%
%FSLAX46Y46*%
G04 Gerber Fmt 4.6, Leading zero omitted, Abs format (unit mm)*
G04 Created by KiCad (PCBNEW (5.1.5)-3) date 2020-11-20 20:56:09*
%MOMM*%
%LPD*%
G04 APERTURE LIST*
%TA.AperFunction,ComponentPad*%
%ADD10O,2.200000X2.200000*%
%TD*%
%TA.AperFunction,ComponentPad*%
%ADD11R,2.200000X2.200000*%
%TD*%
%TA.AperFunction,ComponentPad*%
%ADD12C,10.160000*%
%TD*%
%TA.AperFunction,ComponentPad*%
%ADD13O,2.400000X1.600000*%
%TD*%
%TA.AperFunction,ComponentPad*%
%ADD14R,2.400000X1.600000*%
%TD*%
%TA.AperFunction,ComponentPad*%
%ADD15O,1.600000X1.600000*%
%TD*%
%TA.AperFunction,ComponentPad*%
%ADD16R,1.600000X1.600000*%
%TD*%
%TA.AperFunction,ComponentPad*%
%ADD17O,1.905000X2.000000*%
%TD*%
%TA.AperFunction,ComponentPad*%
%ADD18R,1.905000X2.000000*%
%TD*%
%TA.AperFunction,ComponentPad*%
%ADD19C,5.000000*%
%TD*%
%TA.AperFunction,ComponentPad*%
%ADD20C,1.524000*%
%TD*%
%TA.AperFunction,ViaPad*%
%ADD21C,0.800000*%
%TD*%
%TA.AperFunction,Conductor*%
%ADD22C,2.000000*%
%TD*%
%TA.AperFunction,Conductor*%
%ADD23C,3.000000*%
%TD*%
%TA.AperFunction,Conductor*%
%ADD24C,0.254000*%
%TD*%
G04 APERTURE END LIST*
D10*
%TO.P,D1,2*%
%TO.N,Net-(D1-Pad2)*%
X165735000Y-23241000D03*
D11*
%TO.P,D1,1*%
%TO.N,+15V*%
X175895000Y-23241000D03*
%TD*%
D12*
%TO.P,J4,3*%
%TO.N,Net-(J4-Pad3)*%
X185240000Y-31300000D03*
%TO.P,J4,2*%
%TO.N,Net-(J4-Pad2)*%
X185240000Y-49300000D03*
%TO.P,J4,1*%
%TO.N,Net-(J4-Pad1)*%
X185240000Y-67300000D03*
%TD*%
D13*
%TO.P,U4,14*%
%TO.N,+5V*%
X107950000Y-48260000D03*
%TO.P,U4,7*%
%TO.N,GND*%
X115570000Y-33020000D03*
%TO.P,U4,13*%
X107950000Y-45720000D03*
%TO.P,U4,6*%
%TO.N,Net-(U4-Pad6)*%
X115570000Y-35560000D03*
%TO.P,U4,12*%
%TO.N,Net-(U4-Pad12)*%
X107950000Y-43180000D03*
%TO.P,U4,5*%
%TO.N,GND*%
X115570000Y-38100000D03*
%TO.P,U4,11*%
X107950000Y-40640000D03*
%TO.P,U4,4*%
%TO.N,Net-(U4-Pad4)*%
X115570000Y-40640000D03*
%TO.P,U4,10*%
%TO.N,Net-(U4-Pad10)*%
X107950000Y-38100000D03*
%TO.P,U4,3*%
%TO.N,GND*%
X115570000Y-43180000D03*
%TO.P,U4,9*%
X107950000Y-35560000D03*
%TO.P,U4,2*%
%TO.N,Net-(U3-Pad1)*%
X115570000Y-45720000D03*
%TO.P,U4,8*%
%TO.N,Net-(U4-Pad8)*%
X107950000Y-33020000D03*
D14*
%TO.P,U4,1*%
%TO.N,Net-(U2-Pad3)*%
X115570000Y-48260000D03*
%TD*%
D15*
%TO.P,U3,14*%
%TO.N,+5V*%
X147320000Y-22860000D03*
%TO.P,U3,7*%
%TO.N,GND*%
X162560000Y-30480000D03*
%TO.P,U3,13*%
%TO.N,Net-(U3-Pad1)*%
X149860000Y-22860000D03*
%TO.P,U3,6*%
%TO.N,Net-(D1-Pad2)*%
X160020000Y-30480000D03*
%TO.P,U3,12*%
X152400000Y-22860000D03*
%TO.P,U3,5*%
%TO.N,Net-(U3-Pad1)*%
X157480000Y-30480000D03*
%TO.P,U3,11*%
X154940000Y-22860000D03*
%TO.P,U3,4*%
%TO.N,Net-(D1-Pad2)*%
X154940000Y-30480000D03*
%TO.P,U3,10*%
X157480000Y-22860000D03*
%TO.P,U3,3*%
%TO.N,Net-(U3-Pad1)*%
X152400000Y-30480000D03*
%TO.P,U3,9*%
X160020000Y-22860000D03*
%TO.P,U3,2*%
%TO.N,Net-(D1-Pad2)*%
X149860000Y-30480000D03*
%TO.P,U3,8*%
X162560000Y-22860000D03*
D16*
%TO.P,U3,1*%
%TO.N,Net-(U3-Pad1)*%
X147320000Y-30480000D03*
%TD*%
D15*
%TO.P,U2,14*%
%TO.N,+5V*%
X115570000Y-53340000D03*
%TO.P,U2,7*%
%TO.N,GND*%
X107950000Y-68580000D03*
%TO.P,U2,13*%
X115570000Y-55880000D03*
%TO.P,U2,6*%
%TO.N,Net-(U2-Pad6)*%
X107950000Y-66040000D03*
%TO.P,U2,12*%
%TO.N,GND*%
X115570000Y-58420000D03*
%TO.P,U2,5*%
X107950000Y-63500000D03*
%TO.P,U2,11*%
%TO.N,Net-(U2-Pad11)*%
X115570000Y-60960000D03*
%TO.P,U2,4*%
%TO.N,GND*%
X107950000Y-60960000D03*
%TO.P,U2,10*%
X115570000Y-63500000D03*
%TO.P,U2,3*%
%TO.N,Net-(U2-Pad3)*%
X107950000Y-58420000D03*
%TO.P,U2,9*%
%TO.N,GND*%
X115570000Y-66040000D03*
%TO.P,U2,2*%
%TO.N,Net-(J2-Pad2)*%
X107950000Y-55880000D03*
%TO.P,U2,8*%
%TO.N,Net-(U2-Pad8)*%
X115570000Y-68580000D03*
D16*
%TO.P,U2,1*%
%TO.N,Net-(J2-Pad1)*%
X107950000Y-53340000D03*
%TD*%
D17*
%TO.P,U1,3*%
%TO.N,+5V*%
X115570000Y-24130000D03*
%TO.P,U1,2*%
%TO.N,GND*%
X113030000Y-24130000D03*
D18*
%TO.P,U1,1*%
%TO.N,+15V*%
X110490000Y-24130000D03*
%TD*%
D19*
%TO.P,Q1,11*%
%TO.N,Net-(J3-Pad1)*%
X152262963Y-41684987D02*
X152262963Y-41684987D01*
%TO.P,Q1,10*%
%TO.N,+15V*%
X147759985Y-44579279D02*
X147759985Y-44579279D01*
%TO.P,Q1,9*%
%TO.N,Net-(J4-Pad1)*%
X145536611Y-49448606D02*
X145536611Y-49448606D01*
%TO.P,Q1,8*%
%TO.N,Net-(R1-Pad8)*%
X146298747Y-54746991D02*
X146298747Y-54746991D01*
%TO.P,Q1,7*%
%TO.N,Net-(J4-Pad2)*%
X149804420Y-58792234D02*
X149804420Y-58792234D01*
%TO.P,Q1,6*%
%TO.N,Net-(J3-Pad2)*%
X154940602Y-60299999D02*
X154940602Y-60299999D01*
%TO.P,Q1,5*%
%TO.N,Net-(R1-Pad5)*%
X160076594Y-58791582D02*
X160076594Y-58791582D01*
%TO.P,Q1,4*%
%TO.N,Net-(R1-Pad4)*%
X163581754Y-54745894D02*
X163581754Y-54745894D01*
%TO.P,Q1,3*%
%TO.N,Net-(J4-Pad3)*%
X164343217Y-49447413D02*
X164343217Y-49447413D01*
%TO.P,Q1,2*%
%TO.N,Net-(D1-Pad2)*%
X162119226Y-44578368D02*
X162119226Y-44578368D01*
%TO.P,Q1,1*%
%TO.N,Net-(J3-Pad3)*%
X157615880Y-41684647D02*
X157615880Y-41684647D01*
%TD*%
D12*
%TO.P,J3,3*%
%TO.N,Net-(J3-Pad3)*%
X128270000Y-32580000D03*
%TO.P,J3,2*%
%TO.N,Net-(J3-Pad2)*%
X128270000Y-50580000D03*
%TO.P,J3,1*%
%TO.N,Net-(J3-Pad1)*%
X128270000Y-68580000D03*
%TD*%
D20*
%TO.P,J2,3*%
%TO.N,Net-(J2-Pad3)*%
X100890000Y-62030000D03*
%TO.P,J2,2*%
%TO.N,Net-(J2-Pad2)*%
X100890000Y-57030000D03*
%TO.P,J2,1*%
%TO.N,Net-(J2-Pad1)*%
X100890000Y-52030000D03*
%TD*%
%TO.P,J1,3*%
%TO.N,Net-(J1-Pad3)*%
X100890000Y-34090000D03*
%TO.P,J1,2*%
%TO.N,GND*%
X100890000Y-29090000D03*
%TO.P,J1,1*%
%TO.N,+15V*%
X100890000Y-24090000D03*
%TD*%
D21*
%TO.N,+15V*%
X157353000Y-33782000D03*
%TO.N,GND*%
X101520000Y-44140000D03*
%TO.N,Net-(J3-Pad2)*%
X152400000Y-68580000D03*
%TD*%
D22*
%TO.N,Net-(D1-Pad2)*%
X162560000Y-22860000D02*
X162560000Y-24130000D01*
X162560000Y-24130000D02*
X161290000Y-25400000D01*
X157480000Y-23991370D02*
X157480000Y-22860000D01*
X158888630Y-25400000D02*
X157480000Y-23991370D01*
X160020000Y-25400000D02*
X160020000Y-30480000D01*
X160020000Y-25400000D02*
X158888630Y-25400000D01*
X161290000Y-25400000D02*
X160020000Y-25400000D01*
X157480000Y-22860000D02*
X157480000Y-20320000D01*
X157480000Y-20320000D02*
X152400000Y-20320000D01*
X152400000Y-20320000D02*
X152400000Y-22860000D01*
X149860000Y-30480000D02*
X149860000Y-27940000D01*
X152400000Y-25400000D02*
X152400000Y-22860000D01*
X149860000Y-27940000D02*
X152400000Y-25400000D01*
X152400000Y-26808630D02*
X152400000Y-25400000D01*
X154940000Y-29348630D02*
X152400000Y-26808630D01*
X154940000Y-30480000D02*
X154940000Y-29348630D01*
X160020000Y-30480000D02*
X160020000Y-31623000D01*
X162119226Y-33722226D02*
X162119226Y-44578368D01*
X160020000Y-31623000D02*
X162119226Y-33722226D01*
%TO.N,+15V*%
X110490000Y-24711559D02*
X110490000Y-24130000D01*
X114988441Y-29210000D02*
X110490000Y-24711559D01*
X119380000Y-29210000D02*
X114988441Y-29210000D01*
D23*
X147759985Y-43290015D02*
X145109970Y-40640000D01*
X147759985Y-44579279D02*
X147759985Y-43290015D01*
X119380000Y-34290000D02*
X119380000Y-29210000D01*
X125730000Y-40640000D02*
X119380000Y-34290000D01*
X110377490Y-25276205D02*
X110377490Y-24130000D01*
X119380000Y-29210000D02*
X114311285Y-29210000D01*
X114311285Y-29210000D02*
X110377490Y-25276205D01*
X138430000Y-40640000D02*
X125730000Y-40640000D01*
X145109970Y-40640000D02*
X138430000Y-40640000D01*
D22*
X157353000Y-33782000D02*
X157353000Y-33782000D01*
X147193000Y-33528000D02*
X157099000Y-33528000D01*
X157099000Y-33528000D02*
X157353000Y-33782000D01*
X138430000Y-40640000D02*
X140081000Y-40640000D01*
X140081000Y-40640000D02*
X147193000Y-33528000D01*
%TO.N,Net-(J3-Pad2)*%
X154940602Y-66039398D02*
X152400000Y-68580000D01*
D23*
X154940602Y-66039398D02*
X152753553Y-68226447D01*
X154940602Y-66039398D02*
X154940602Y-60299999D01*
%TO.N,Net-(J4-Pad3)*%
X182441000Y-31300000D02*
X185240000Y-31300000D01*
X175260000Y-38481000D02*
X182441000Y-31300000D01*
X164343217Y-49447413D02*
X175260000Y-38530630D01*
X175260000Y-38530630D02*
X175260000Y-38481000D01*
%TO.N,Net-(J4-Pad1)*%
X173746000Y-67300000D02*
X185240000Y-67300000D01*
X169291000Y-71755000D02*
X173736000Y-67310000D01*
X168656000Y-72390000D02*
X169291000Y-71755000D01*
X150960000Y-72390000D02*
X168656000Y-72390000D01*
X147320000Y-64770000D02*
X147320000Y-68750000D01*
X141770000Y-59220000D02*
X147320000Y-64770000D01*
X147320000Y-68750000D02*
X150960000Y-72390000D01*
X145536611Y-49448606D02*
X144438227Y-50546990D01*
X141770000Y-53059736D02*
X141770000Y-59220000D01*
X144438227Y-50546990D02*
X144282746Y-50546990D01*
X144282746Y-50546990D02*
X141770000Y-53059736D01*
D22*
%TO.N,+5V*%
X113030000Y-53340000D02*
X107950000Y-48260000D01*
X115570000Y-53340000D02*
X113030000Y-53340000D01*
%TD*%
D24*
%TO.N,GND*%
G36*
X150788657Y-19999484D02*
G01*
X150757089Y-20320000D01*
X150765000Y-20400323D01*
X150765001Y-21738843D01*
X150539727Y-21588320D01*
X150278574Y-21480147D01*
X150001335Y-21425000D01*
X149718665Y-21425000D01*
X149441426Y-21480147D01*
X149180273Y-21588320D01*
X148945241Y-21745363D01*
X148745363Y-21945241D01*
X148590000Y-22177759D01*
X148434637Y-21945241D01*
X148234759Y-21745363D01*
X147999727Y-21588320D01*
X147738574Y-21480147D01*
X147461335Y-21425000D01*
X147178665Y-21425000D01*
X146901426Y-21480147D01*
X146640273Y-21588320D01*
X146405241Y-21745363D01*
X146205363Y-21945241D01*
X146048320Y-22180273D01*
X145940147Y-22441426D01*
X145885000Y-22718665D01*
X145885000Y-23001335D01*
X145940147Y-23278574D01*
X146048320Y-23539727D01*
X146205363Y-23774759D01*
X146405241Y-23974637D01*
X146640273Y-24131680D01*
X146901426Y-24239853D01*
X147178665Y-24295000D01*
X147461335Y-24295000D01*
X147738574Y-24239853D01*
X147999727Y-24131680D01*
X148234759Y-23974637D01*
X148434637Y-23774759D01*
X148590000Y-23542241D01*
X148745363Y-23774759D01*
X148945241Y-23974637D01*
X149180273Y-24131680D01*
X149441426Y-24239853D01*
X149718665Y-24295000D01*
X150001335Y-24295000D01*
X150278574Y-24239853D01*
X150539727Y-24131680D01*
X150765001Y-23981157D01*
X150765000Y-24722761D01*
X148760682Y-26727080D01*
X148698287Y-26778286D01*
X148583749Y-26917852D01*
X148493970Y-27027248D01*
X148342148Y-27311286D01*
X148248658Y-27619484D01*
X148217089Y-27940000D01*
X148225001Y-28020329D01*
X148225001Y-29052269D01*
X148120000Y-29041928D01*
X146520000Y-29041928D01*
X146395518Y-29054188D01*
X146275820Y-29090498D01*
X146165506Y-29149463D01*
X146068815Y-29228815D01*
X145989463Y-29325506D01*
X145930498Y-29435820D01*
X145894188Y-29555518D01*
X145881928Y-29680000D01*
X145881928Y-31280000D01*
X145894188Y-31404482D01*
X145930498Y-31524180D01*
X145989463Y-31634494D01*
X146068815Y-31731185D01*
X146165506Y-31810537D01*
X146275820Y-31869502D01*
X146395518Y-31905812D01*
X146520000Y-31918072D01*
X146867818Y-31918072D01*
X146596446Y-32000392D01*
X146564285Y-32010148D01*
X146280248Y-32161969D01*
X146031286Y-32366286D01*
X145980080Y-32428681D01*
X139903762Y-38505000D01*
X126614346Y-38505000D01*
X125888956Y-37779610D01*
X126602996Y-38075375D01*
X127707122Y-38295000D01*
X128832878Y-38295000D01*
X129937004Y-38075375D01*
X130977067Y-37644567D01*
X131913100Y-37019130D01*
X132709130Y-36223100D01*
X133334567Y-35287067D01*
X133765375Y-34247004D01*
X133985000Y-33142878D01*
X133985000Y-32017122D01*
X133765375Y-30912996D01*
X133334567Y-29872933D01*
X132709130Y-28936900D01*
X131913100Y-28140870D01*
X130977067Y-27515433D01*
X129937004Y-27084625D01*
X128832878Y-26865000D01*
X127707122Y-26865000D01*
X126602996Y-27084625D01*
X125562933Y-27515433D01*
X124626900Y-28140870D01*
X123830870Y-28936900D01*
X123205433Y-29872933D01*
X122774625Y-30912996D01*
X122555000Y-32017122D01*
X122555000Y-33142878D01*
X122774625Y-34247004D01*
X123070390Y-34961045D01*
X121515000Y-33405655D01*
X121515000Y-29314882D01*
X121525330Y-29210000D01*
X121484108Y-28791467D01*
X121362026Y-28389018D01*
X121163777Y-28018119D01*
X120896977Y-27693023D01*
X120571881Y-27426223D01*
X120200982Y-27227974D01*
X119798533Y-27105892D01*
X119484882Y-27075000D01*
X119380000Y-27064670D01*
X119275118Y-27075000D01*
X115195631Y-27075000D01*
X113719151Y-25598521D01*
X113896923Y-25505969D01*
X114139437Y-25311315D01*
X114294837Y-25126101D01*
X114442037Y-25305463D01*
X114683766Y-25503845D01*
X114959552Y-25651255D01*
X115258797Y-25742030D01*
X115570000Y-25772681D01*
X115881204Y-25742030D01*
X116180449Y-25651255D01*
X116456235Y-25503845D01*
X116697963Y-25305463D01*
X116896345Y-25063734D01*
X117043755Y-24787948D01*
X117134530Y-24488703D01*
X117157500Y-24255485D01*
X117157500Y-24004514D01*
X117134530Y-23771296D01*
X117043755Y-23472051D01*
X116896345Y-23196265D01*
X116697963Y-22954537D01*
X116456234Y-22756155D01*
X116180448Y-22608745D01*
X115881203Y-22517970D01*
X115570000Y-22487319D01*
X115258796Y-22517970D01*
X114959551Y-22608745D01*
X114683765Y-22756155D01*
X114442037Y-22954537D01*
X114294838Y-23133900D01*
X114139437Y-22948685D01*
X113896923Y-22754031D01*
X113621094Y-22610429D01*
X113402980Y-22539437D01*
X113157000Y-22659406D01*
X113157000Y-24003000D01*
X113177000Y-24003000D01*
X113177000Y-24257000D01*
X113157000Y-24257000D01*
X113157000Y-24277000D01*
X112903000Y-24277000D01*
X112903000Y-24257000D01*
X112883000Y-24257000D01*
X112883000Y-24003000D01*
X112903000Y-24003000D01*
X112903000Y-22659406D01*
X112657020Y-22539437D01*
X112438906Y-22610429D01*
X112163077Y-22754031D01*
X112070905Y-22828013D01*
X111894467Y-22613023D01*
X111569371Y-22346223D01*
X111198472Y-22147974D01*
X110796023Y-22025892D01*
X110377490Y-21984670D01*
X109958958Y-22025892D01*
X109556509Y-22147974D01*
X109185610Y-22346223D01*
X108860514Y-22613023D01*
X108593714Y-22938119D01*
X108395465Y-23309018D01*
X108273382Y-23711467D01*
X108242490Y-24025118D01*
X108242490Y-25171333D01*
X108232161Y-25276205D01*
X108242490Y-25381077D01*
X108242490Y-25381086D01*
X108273382Y-25694737D01*
X108395464Y-26097186D01*
X108593713Y-26468086D01*
X108860513Y-26793182D01*
X108941982Y-26860042D01*
X112727452Y-30645513D01*
X112794308Y-30726977D01*
X112875772Y-30793833D01*
X112875774Y-30793835D01*
X112982554Y-30881467D01*
X113119404Y-30993777D01*
X113490303Y-31192026D01*
X113892752Y-31314108D01*
X114206403Y-31345000D01*
X114206412Y-31345000D01*
X114311284Y-31355329D01*
X114416156Y-31345000D01*
X117245001Y-31345000D01*
X117245000Y-32354854D01*
X117233715Y-32328354D01*
X117074500Y-32095105D01*
X116872839Y-31897399D01*
X116636483Y-31742834D01*
X116374514Y-31637350D01*
X116097000Y-31585000D01*
X115697000Y-31585000D01*
X115697000Y-32893000D01*
X115717000Y-32893000D01*
X115717000Y-33147000D01*
X115697000Y-33147000D01*
X115697000Y-33167000D01*
X115443000Y-33167000D01*
X115443000Y-33147000D01*
X113900085Y-33147000D01*
X113778096Y-33369039D01*
X113795633Y-33451818D01*
X113906285Y-33711646D01*
X114065500Y-33944895D01*
X114267161Y-34142601D01*
X114496741Y-34292735D01*
X114368899Y-34361068D01*
X114150392Y-34540392D01*
X113971068Y-34758899D01*
X113837818Y-35008192D01*
X113755764Y-35278691D01*
X113728057Y-35560000D01*
X113755764Y-35841309D01*
X113837818Y-36111808D01*
X113971068Y-36361101D01*
X114150392Y-36579608D01*
X114368899Y-36758932D01*
X114496741Y-36827265D01*
X114267161Y-36977399D01*
X114065500Y-37175105D01*
X113906285Y-37408354D01*
X113795633Y-37668182D01*
X113778096Y-37750961D01*
X113900085Y-37973000D01*
X115443000Y-37973000D01*
X115443000Y-37953000D01*
X115697000Y-37953000D01*
X115697000Y-37973000D01*
X117239915Y-37973000D01*
X117361904Y-37750961D01*
X117344367Y-37668182D01*
X117233715Y-37408354D01*
X117074500Y-37175105D01*
X116872839Y-36977399D01*
X116643259Y-36827265D01*
X116771101Y-36758932D01*
X116989608Y-36579608D01*
X117168932Y-36361101D01*
X117302182Y-36111808D01*
X117384236Y-35841309D01*
X117411943Y-35560000D01*
X117384236Y-35278691D01*
X117302182Y-35008192D01*
X117168932Y-34758899D01*
X116989608Y-34540392D01*
X116771101Y-34361068D01*
X116643259Y-34292735D01*
X116872839Y-34142601D01*
X117074500Y-33944895D01*
X117233715Y-33711646D01*
X117245000Y-33685147D01*
X117245000Y-34185128D01*
X117234671Y-34290000D01*
X117245000Y-34394872D01*
X117245000Y-34394881D01*
X117275892Y-34708532D01*
X117397974Y-35110981D01*
X117596223Y-35481881D01*
X117863023Y-35806977D01*
X117944492Y-35873837D01*
X124146167Y-42075513D01*
X124213023Y-42156977D01*
X124294487Y-42223833D01*
X124294489Y-42223835D01*
X124466338Y-42364868D01*
X124538119Y-42423777D01*
X124909018Y-42622026D01*
X125311467Y-42744108D01*
X125625118Y-42775000D01*
X125625127Y-42775000D01*
X125729999Y-42785329D01*
X125834871Y-42775000D01*
X144225625Y-42775000D01*
X144853831Y-43403206D01*
X144745461Y-43664833D01*
X144624985Y-44270508D01*
X144624985Y-44888050D01*
X144745461Y-45493725D01*
X144981784Y-46064258D01*
X145157713Y-46327555D01*
X144622165Y-46434082D01*
X144051632Y-46670405D01*
X143538165Y-47013492D01*
X143101497Y-47450160D01*
X142758410Y-47963627D01*
X142522087Y-48534160D01*
X142401611Y-49139835D01*
X142401611Y-49408779D01*
X140334492Y-51475899D01*
X140253023Y-51542759D01*
X139986223Y-51867855D01*
X139787974Y-52238755D01*
X139665892Y-52641204D01*
X139635000Y-52954855D01*
X139635000Y-52954864D01*
X139624671Y-53059736D01*
X139635000Y-53164608D01*
X139635001Y-59115118D01*
X139624671Y-59220000D01*
X139665893Y-59638533D01*
X139787975Y-60040982D01*
X139986224Y-60411881D01*
X140186165Y-60655510D01*
X140186168Y-60655513D01*
X140253024Y-60736977D01*
X140334487Y-60803832D01*
X145185000Y-65654346D01*
X145185001Y-68645119D01*
X145174671Y-68750000D01*
X145215893Y-69168533D01*
X145337975Y-69570982D01*
X145536224Y-69941881D01*
X145736165Y-70185510D01*
X145736168Y-70185513D01*
X145803024Y-70266977D01*
X145884487Y-70333832D01*
X149376167Y-73825513D01*
X149443023Y-73906977D01*
X149524487Y-73973833D01*
X149524489Y-73973835D01*
X149648216Y-74075375D01*
X149768119Y-74173777D01*
X150139018Y-74372026D01*
X150541467Y-74494108D01*
X150855118Y-74525000D01*
X150855127Y-74525000D01*
X150959999Y-74535329D01*
X151064871Y-74525000D01*
X168551128Y-74525000D01*
X168656000Y-74535329D01*
X168760872Y-74525000D01*
X168760882Y-74525000D01*
X169074533Y-74494108D01*
X169476982Y-74372026D01*
X169847881Y-74173777D01*
X170172977Y-73906977D01*
X170239837Y-73825508D01*
X170874836Y-73190509D01*
X174630346Y-69435000D01*
X179938475Y-69435000D01*
X180175433Y-70007067D01*
X180800870Y-70943100D01*
X181596900Y-71739130D01*
X182532933Y-72364567D01*
X183572996Y-72795375D01*
X184677122Y-73015000D01*
X185802878Y-73015000D01*
X186907004Y-72795375D01*
X187947067Y-72364567D01*
X188883100Y-71739130D01*
X189679130Y-70943100D01*
X190304567Y-70007067D01*
X190735375Y-68967004D01*
X190955000Y-67862878D01*
X190955000Y-66737122D01*
X190735375Y-65632996D01*
X190304567Y-64592933D01*
X189679130Y-63656900D01*
X188883100Y-62860870D01*
X187947067Y-62235433D01*
X186907004Y-61804625D01*
X185802878Y-61585000D01*
X184677122Y-61585000D01*
X183572996Y-61804625D01*
X182532933Y-62235433D01*
X181596900Y-62860870D01*
X180800870Y-63656900D01*
X180175433Y-64592933D01*
X179938475Y-65165000D01*
X173739339Y-65165000D01*
X173735999Y-65164671D01*
X173732659Y-65165000D01*
X173641118Y-65165000D01*
X173327467Y-65195892D01*
X172925018Y-65317974D01*
X172554119Y-65516223D01*
X172229023Y-65783023D01*
X172162167Y-65864487D01*
X167855491Y-70171164D01*
X167771655Y-70255000D01*
X153421153Y-70255000D01*
X153574535Y-70208472D01*
X153945434Y-70010223D01*
X154189063Y-69810282D01*
X156376115Y-67623231D01*
X156457579Y-67556375D01*
X156724379Y-67231279D01*
X156922628Y-66860380D01*
X157044710Y-66457931D01*
X157075602Y-66144280D01*
X157075602Y-66144271D01*
X157085931Y-66039399D01*
X157075602Y-65934527D01*
X157075602Y-62598559D01*
X157375716Y-62298445D01*
X157718803Y-61784978D01*
X157955126Y-61214445D01*
X157973504Y-61122052D01*
X158078148Y-61226696D01*
X158591615Y-61569783D01*
X159162148Y-61806106D01*
X159767823Y-61926582D01*
X160385365Y-61926582D01*
X160991040Y-61806106D01*
X161561573Y-61569783D01*
X162075040Y-61226696D01*
X162511708Y-60790028D01*
X162854795Y-60276561D01*
X163091118Y-59706028D01*
X163211594Y-59100353D01*
X163211594Y-58482811D01*
X163091118Y-57877136D01*
X163076485Y-57841808D01*
X163272983Y-57880894D01*
X163890525Y-57880894D01*
X164496200Y-57760418D01*
X165066733Y-57524095D01*
X165580200Y-57181008D01*
X166016868Y-56744340D01*
X166359955Y-56230873D01*
X166596278Y-55660340D01*
X166716754Y-55054665D01*
X166716754Y-54437123D01*
X166596278Y-53831448D01*
X166359955Y-53260915D01*
X166016868Y-52747448D01*
X165592615Y-52323195D01*
X165828196Y-52225614D01*
X166341663Y-51882527D01*
X166778331Y-51445859D01*
X167121418Y-50932392D01*
X167357741Y-50361859D01*
X167478217Y-49756184D01*
X167478217Y-49331758D01*
X168072853Y-48737122D01*
X179525000Y-48737122D01*
X179525000Y-49862878D01*
X179744625Y-50967004D01*
X180175433Y-52007067D01*
X180800870Y-52943100D01*
X181596900Y-53739130D01*
X182532933Y-54364567D01*
X183572996Y-54795375D01*
X184677122Y-55015000D01*
X185802878Y-55015000D01*
X186907004Y-54795375D01*
X187947067Y-54364567D01*
X188883100Y-53739130D01*
X189679130Y-52943100D01*
X190304567Y-52007067D01*
X190735375Y-50967004D01*
X190955000Y-49862878D01*
X190955000Y-48737122D01*
X190735375Y-47632996D01*
X190304567Y-46592933D01*
X189679130Y-45656900D01*
X188883100Y-44860870D01*
X187947067Y-44235433D01*
X186907004Y-43804625D01*
X185802878Y-43585000D01*
X184677122Y-43585000D01*
X183572996Y-43804625D01*
X182532933Y-44235433D01*
X181596900Y-44860870D01*
X180800870Y-45656900D01*
X180175433Y-46592933D01*
X179744625Y-47632996D01*
X179525000Y-48737122D01*
X168072853Y-48737122D01*
X176695513Y-40114463D01*
X176776977Y-40047607D01*
X176843833Y-39966143D01*
X176843836Y-39966140D01*
X177043776Y-39722512D01*
X177047736Y-39715105D01*
X177050601Y-39709744D01*
X181309058Y-35451288D01*
X181596900Y-35739130D01*
X182532933Y-36364567D01*
X183572996Y-36795375D01*
X184677122Y-37015000D01*
X185802878Y-37015000D01*
X186907004Y-36795375D01*
X187947067Y-36364567D01*
X188883100Y-35739130D01*
X189679130Y-34943100D01*
X190304567Y-34007067D01*
X190735375Y-32967004D01*
X190955000Y-31862878D01*
X190955000Y-30737122D01*
X190735375Y-29632996D01*
X190304567Y-28592933D01*
X189679130Y-27656900D01*
X188883100Y-26860870D01*
X187947067Y-26235433D01*
X186907004Y-25804625D01*
X185802878Y-25585000D01*
X184677122Y-25585000D01*
X183572996Y-25804625D01*
X182532933Y-26235433D01*
X181596900Y-26860870D01*
X180800870Y-27656900D01*
X180175433Y-28592933D01*
X179744625Y-29632996D01*
X179525000Y-30737122D01*
X179525000Y-31196654D01*
X173824492Y-36897163D01*
X173743023Y-36964023D01*
X173476223Y-37289119D01*
X173469400Y-37301884D01*
X165031417Y-45739868D01*
X165133750Y-45492814D01*
X165254226Y-44887139D01*
X165254226Y-44269597D01*
X165133750Y-43663922D01*
X164897427Y-43093389D01*
X164554340Y-42579922D01*
X164117672Y-42143254D01*
X163754226Y-41900408D01*
X163754226Y-33802545D01*
X163762137Y-33722226D01*
X163743007Y-33528000D01*
X163730569Y-33401710D01*
X163637078Y-33093511D01*
X163485257Y-32809474D01*
X163280940Y-32560512D01*
X163218546Y-32509307D01*
X162624239Y-31915000D01*
X162687002Y-31915000D01*
X162687002Y-31749916D01*
X162909039Y-31871904D01*
X163043087Y-31831246D01*
X163297420Y-31711037D01*
X163523414Y-31543519D01*
X163712385Y-31335131D01*
X163857070Y-31093881D01*
X163951909Y-30829040D01*
X163830624Y-30607000D01*
X162687000Y-30607000D01*
X162687000Y-30627000D01*
X162433000Y-30627000D01*
X162433000Y-30607000D01*
X162413000Y-30607000D01*
X162413000Y-30353000D01*
X162433000Y-30353000D01*
X162433000Y-29210085D01*
X162687000Y-29210085D01*
X162687000Y-30353000D01*
X163830624Y-30353000D01*
X163951909Y-30130960D01*
X163857070Y-29866119D01*
X163712385Y-29624869D01*
X163523414Y-29416481D01*
X163297420Y-29248963D01*
X163043087Y-29128754D01*
X162909039Y-29088096D01*
X162687000Y-29210085D01*
X162433000Y-29210085D01*
X162210961Y-29088096D01*
X162076913Y-29128754D01*
X161822580Y-29248963D01*
X161655000Y-29373182D01*
X161655000Y-26997849D01*
X161918715Y-26917852D01*
X162202752Y-26766031D01*
X162451714Y-26561714D01*
X162502924Y-26499314D01*
X163659318Y-25342921D01*
X163721714Y-25291714D01*
X163926031Y-25042752D01*
X164077852Y-24758715D01*
X164171343Y-24450516D01*
X164195000Y-24210322D01*
X164195000Y-24210320D01*
X164202911Y-24130001D01*
X164195931Y-24059132D01*
X164197463Y-24062831D01*
X164387337Y-24346998D01*
X164629002Y-24588663D01*
X164913169Y-24778537D01*
X165228919Y-24909325D01*
X165564117Y-24976000D01*
X165905883Y-24976000D01*
X166241081Y-24909325D01*
X166556831Y-24778537D01*
X166840998Y-24588663D01*
X167082663Y-24346998D01*
X167272537Y-24062831D01*
X167403325Y-23747081D01*
X167470000Y-23411883D01*
X167470000Y-23070117D01*
X167403325Y-22734919D01*
X167272537Y-22419169D01*
X167086671Y-22141000D01*
X174156928Y-22141000D01*
X174156928Y-24341000D01*
X174169188Y-24465482D01*
X174205498Y-24585180D01*
X174264463Y-24695494D01*
X174343815Y-24792185D01*
X174440506Y-24871537D01*
X174550820Y-24930502D01*
X174670518Y-24966812D01*
X174795000Y-24979072D01*
X176995000Y-24979072D01*
X177119482Y-24966812D01*
X177239180Y-24930502D01*
X177349494Y-24871537D01*
X177446185Y-24792185D01*
X177525537Y-24695494D01*
X177584502Y-24585180D01*
X177620812Y-24465482D01*
X177633072Y-24341000D01*
X177633072Y-22141000D01*
X177620812Y-22016518D01*
X177584502Y-21896820D01*
X177525537Y-21786506D01*
X177446185Y-21689815D01*
X177349494Y-21610463D01*
X177239180Y-21551498D01*
X177119482Y-21515188D01*
X176995000Y-21502928D01*
X174795000Y-21502928D01*
X174670518Y-21515188D01*
X174550820Y-21551498D01*
X174440506Y-21610463D01*
X174343815Y-21689815D01*
X174264463Y-21786506D01*
X174205498Y-21896820D01*
X174169188Y-22016518D01*
X174156928Y-22141000D01*
X167086671Y-22141000D01*
X167082663Y-22135002D01*
X166840998Y-21893337D01*
X166556831Y-21703463D01*
X166241081Y-21572675D01*
X165905883Y-21506000D01*
X165564117Y-21506000D01*
X165228919Y-21572675D01*
X164913169Y-21703463D01*
X164629002Y-21893337D01*
X164387337Y-22135002D01*
X164197463Y-22419169D01*
X164161317Y-22506433D01*
X164077852Y-22231285D01*
X163926031Y-21947248D01*
X163721714Y-21698286D01*
X163472751Y-21493969D01*
X163188714Y-21342148D01*
X162880515Y-21248657D01*
X162560000Y-21217089D01*
X162239484Y-21248657D01*
X161931285Y-21342148D01*
X161647248Y-21493969D01*
X161398286Y-21698286D01*
X161193969Y-21947249D01*
X161168196Y-21995466D01*
X161134637Y-21945241D01*
X160934759Y-21745363D01*
X160699727Y-21588320D01*
X160438574Y-21480147D01*
X160161335Y-21425000D01*
X159878665Y-21425000D01*
X159601426Y-21480147D01*
X159340273Y-21588320D01*
X159115000Y-21738842D01*
X159115000Y-20400322D01*
X159122911Y-20320000D01*
X159091343Y-19999484D01*
X159003529Y-19710000D01*
X194920001Y-19710000D01*
X194920000Y-78760000D01*
X97180000Y-78760000D01*
X97180000Y-68929039D01*
X106558096Y-68929039D01*
X106598754Y-69063087D01*
X106718963Y-69317420D01*
X106886481Y-69543414D01*
X107094869Y-69732385D01*
X107336119Y-69877070D01*
X107600960Y-69971909D01*
X107823000Y-69850624D01*
X107823000Y-68707000D01*
X108077000Y-68707000D01*
X108077000Y-69850624D01*
X108299040Y-69971909D01*
X108563881Y-69877070D01*
X108805131Y-69732385D01*
X109013519Y-69543414D01*
X109181037Y-69317420D01*
X109301246Y-69063087D01*
X109341904Y-68929039D01*
X109219915Y-68707000D01*
X108077000Y-68707000D01*
X107823000Y-68707000D01*
X106680085Y-68707000D01*
X106558096Y-68929039D01*
X97180000Y-68929039D01*
X97180000Y-65898665D01*
X106515000Y-65898665D01*
X106515000Y-66181335D01*
X106570147Y-66458574D01*
X106678320Y-66719727D01*
X106835363Y-66954759D01*
X107035241Y-67154637D01*
X107270273Y-67311680D01*
X107280865Y-67316067D01*
X107094869Y-67427615D01*
X106886481Y-67616586D01*
X106718963Y-67842580D01*
X106598754Y-68096913D01*
X106558096Y-68230961D01*
X106680085Y-68453000D01*
X107823000Y-68453000D01*
X107823000Y-68433000D01*
X108077000Y-68433000D01*
X108077000Y-68453000D01*
X109219915Y-68453000D01*
X109227790Y-68438665D01*
X114135000Y-68438665D01*
X114135000Y-68721335D01*
X114190147Y-68998574D01*
X114298320Y-69259727D01*
X114455363Y-69494759D01*
X114655241Y-69694637D01*
X114890273Y-69851680D01*
X115151426Y-69959853D01*
X115428665Y-70015000D01*
X115711335Y-70015000D01*
X115988574Y-69959853D01*
X116249727Y-69851680D01*
X116484759Y-69694637D01*
X116684637Y-69494759D01*
X116841680Y-69259727D01*
X116949853Y-68998574D01*
X117005000Y-68721335D01*
X117005000Y-68438665D01*
X116949853Y-68161426D01*
X116890081Y-68017122D01*
X122555000Y-68017122D01*
X122555000Y-69142878D01*
X122774625Y-70247004D01*
X123205433Y-71287067D01*
X123830870Y-72223100D01*
X124626900Y-73019130D01*
X125562933Y-73644567D01*
X126602996Y-74075375D01*
X127707122Y-74295000D01*
X128832878Y-74295000D01*
X129937004Y-74075375D01*
X130977067Y-73644567D01*
X131913100Y-73019130D01*
X132709130Y-72223100D01*
X133334567Y-71287067D01*
X133765375Y-70247004D01*
X133985000Y-69142878D01*
X133985000Y-68017122D01*
X133765375Y-66912996D01*
X133334567Y-65872933D01*
X132709130Y-64936900D01*
X131913100Y-64140870D01*
X130977067Y-63515433D01*
X129937004Y-63084625D01*
X128832878Y-62865000D01*
X127707122Y-62865000D01*
X126602996Y-63084625D01*
X125562933Y-63515433D01*
X124626900Y-64140870D01*
X123830870Y-64936900D01*
X123205433Y-65872933D01*
X122774625Y-66912996D01*
X122555000Y-68017122D01*
X116890081Y-68017122D01*
X116841680Y-67900273D01*
X116684637Y-67665241D01*
X116484759Y-67465363D01*
X116249727Y-67308320D01*
X116239135Y-67303933D01*
X116425131Y-67192385D01*
X116633519Y-67003414D01*
X116801037Y-66777420D01*
X116921246Y-66523087D01*
X116961904Y-66389039D01*
X116839915Y-66167000D01*
X115697000Y-66167000D01*
X115697000Y-66187000D01*
X115443000Y-66187000D01*
X115443000Y-66167000D01*
X114300085Y-66167000D01*
X114178096Y-66389039D01*
X114218754Y-66523087D01*
X114338963Y-66777420D01*
X114506481Y-67003414D01*
X114714869Y-67192385D01*
X114900865Y-67303933D01*
X114890273Y-67308320D01*
X114655241Y-67465363D01*
X114455363Y-67665241D01*
X114298320Y-67900273D01*
X114190147Y-68161426D01*
X114135000Y-68438665D01*
X109227790Y-68438665D01*
X109341904Y-68230961D01*
X109301246Y-68096913D01*
X109181037Y-67842580D01*
X109013519Y-67616586D01*
X108805131Y-67427615D01*
X108619135Y-67316067D01*
X108629727Y-67311680D01*
X108864759Y-67154637D01*
X109064637Y-66954759D01*
X109221680Y-66719727D01*
X109329853Y-66458574D01*
X109385000Y-66181335D01*
X109385000Y-65898665D01*
X109329853Y-65621426D01*
X109221680Y-65360273D01*
X109064637Y-65125241D01*
X108864759Y-64925363D01*
X108629727Y-64768320D01*
X108619135Y-64763933D01*
X108805131Y-64652385D01*
X109013519Y-64463414D01*
X109181037Y-64237420D01*
X109301246Y-63983087D01*
X109341904Y-63849039D01*
X114178096Y-63849039D01*
X114218754Y-63983087D01*
X114338963Y-64237420D01*
X114506481Y-64463414D01*
X114714869Y-64652385D01*
X114910982Y-64770000D01*
X114714869Y-64887615D01*
X114506481Y-65076586D01*
X114338963Y-65302580D01*
X114218754Y-65556913D01*
X114178096Y-65690961D01*
X114300085Y-65913000D01*
X115443000Y-65913000D01*
X115443000Y-63627000D01*
X115697000Y-63627000D01*
X115697000Y-65913000D01*
X116839915Y-65913000D01*
X116961904Y-65690961D01*
X116921246Y-65556913D01*
X116801037Y-65302580D01*
X116633519Y-65076586D01*
X116425131Y-64887615D01*
X116229018Y-64770000D01*
X116425131Y-64652385D01*
X116633519Y-64463414D01*
X116801037Y-64237420D01*
X116921246Y-63983087D01*
X116961904Y-63849039D01*
X116839915Y-63627000D01*
X115697000Y-63627000D01*
X115443000Y-63627000D01*
X114300085Y-63627000D01*
X114178096Y-63849039D01*
X109341904Y-63849039D01*
X109219915Y-63627000D01*
X108077000Y-63627000D01*
X108077000Y-63647000D01*
X107823000Y-63647000D01*
X107823000Y-63627000D01*
X106680085Y-63627000D01*
X106558096Y-63849039D01*
X106598754Y-63983087D01*
X106718963Y-64237420D01*
X106886481Y-64463414D01*
X107094869Y-64652385D01*
X107280865Y-64763933D01*
X107270273Y-64768320D01*
X107035241Y-64925363D01*
X106835363Y-65125241D01*
X106678320Y-65360273D01*
X106570147Y-65621426D01*
X106515000Y-65898665D01*
X97180000Y-65898665D01*
X97180000Y-61892408D01*
X99493000Y-61892408D01*
X99493000Y-62167592D01*
X99546686Y-62437490D01*
X99651995Y-62691727D01*
X99804880Y-62920535D01*
X99999465Y-63115120D01*
X100228273Y-63268005D01*
X100482510Y-63373314D01*
X100752408Y-63427000D01*
X101027592Y-63427000D01*
X101297490Y-63373314D01*
X101551727Y-63268005D01*
X101780535Y-63115120D01*
X101975120Y-62920535D01*
X102128005Y-62691727D01*
X102233314Y-62437490D01*
X102287000Y-62167592D01*
X102287000Y-61892408D01*
X102233314Y-61622510D01*
X102128005Y-61368273D01*
X102088427Y-61309039D01*
X106558096Y-61309039D01*
X106598754Y-61443087D01*
X106718963Y-61697420D01*
X106886481Y-61923414D01*
X107094869Y-62112385D01*
X107290982Y-62230000D01*
X107094869Y-62347615D01*
X106886481Y-62536586D01*
X106718963Y-62762580D01*
X106598754Y-63016913D01*
X106558096Y-63150961D01*
X106680085Y-63373000D01*
X107823000Y-63373000D01*
X107823000Y-61087000D01*
X108077000Y-61087000D01*
X108077000Y-63373000D01*
X109219915Y-63373000D01*
X109341904Y-63150961D01*
X109301246Y-63016913D01*
X109181037Y-62762580D01*
X109013519Y-62536586D01*
X108805131Y-62347615D01*
X108609018Y-62230000D01*
X108805131Y-62112385D01*
X109013519Y-61923414D01*
X109181037Y-61697420D01*
X109301246Y-61443087D01*
X109341904Y-61309039D01*
X109219915Y-61087000D01*
X108077000Y-61087000D01*
X107823000Y-61087000D01*
X106680085Y-61087000D01*
X106558096Y-61309039D01*
X102088427Y-61309039D01*
X101975120Y-61139465D01*
X101780535Y-60944880D01*
X101551727Y-60791995D01*
X101297490Y-60686686D01*
X101027592Y-60633000D01*
X100752408Y-60633000D01*
X100482510Y-60686686D01*
X100228273Y-60791995D01*
X99999465Y-60944880D01*
X99804880Y-61139465D01*
X99651995Y-61368273D01*
X99546686Y-61622510D01*
X99493000Y-61892408D01*
X97180000Y-61892408D01*
X97180000Y-56892408D01*
X99493000Y-56892408D01*
X99493000Y-57167592D01*
X99546686Y-57437490D01*
X99651995Y-57691727D01*
X99804880Y-57920535D01*
X99999465Y-58115120D01*
X100228273Y-58268005D01*
X100482510Y-58373314D01*
X100752408Y-58427000D01*
X101027592Y-58427000D01*
X101297490Y-58373314D01*
X101551727Y-58268005D01*
X101780535Y-58115120D01*
X101975120Y-57920535D01*
X102128005Y-57691727D01*
X102233314Y-57437490D01*
X102287000Y-57167592D01*
X102287000Y-56892408D01*
X102233314Y-56622510D01*
X102128005Y-56368273D01*
X101975120Y-56139465D01*
X101780535Y-55944880D01*
X101551727Y-55791995D01*
X101297490Y-55686686D01*
X101027592Y-55633000D01*
X100752408Y-55633000D01*
X100482510Y-55686686D01*
X100228273Y-55791995D01*
X99999465Y-55944880D01*
X99804880Y-56139465D01*
X99651995Y-56368273D01*
X99546686Y-56622510D01*
X99493000Y-56892408D01*
X97180000Y-56892408D01*
X97180000Y-51892408D01*
X99493000Y-51892408D01*
X99493000Y-52167592D01*
X99546686Y-52437490D01*
X99651995Y-52691727D01*
X99804880Y-52920535D01*
X99999465Y-53115120D01*
X100228273Y-53268005D01*
X100482510Y-53373314D01*
X100752408Y-53427000D01*
X101027592Y-53427000D01*
X101297490Y-53373314D01*
X101551727Y-53268005D01*
X101780535Y-53115120D01*
X101975120Y-52920535D01*
X102128005Y-52691727D01*
X102190852Y-52540000D01*
X106511928Y-52540000D01*
X106511928Y-54140000D01*
X106524188Y-54264482D01*
X106560498Y-54384180D01*
X106619463Y-54494494D01*
X106698815Y-54591185D01*
X106795506Y-54670537D01*
X106905820Y-54729502D01*
X107025518Y-54765812D01*
X107033961Y-54766643D01*
X106835363Y-54965241D01*
X106678320Y-55200273D01*
X106570147Y-55461426D01*
X106515000Y-55738665D01*
X106515000Y-56021335D01*
X106570147Y-56298574D01*
X106678320Y-56559727D01*
X106835363Y-56794759D01*
X107035241Y-56994637D01*
X107267759Y-57150000D01*
X107035241Y-57305363D01*
X106835363Y-57505241D01*
X106678320Y-57740273D01*
X106570147Y-58001426D01*
X106515000Y-58278665D01*
X106515000Y-58561335D01*
X106570147Y-58838574D01*
X106678320Y-59099727D01*
X106835363Y-59334759D01*
X107035241Y-59534637D01*
X107270273Y-59691680D01*
X107280865Y-59696067D01*
X107094869Y-59807615D01*
X106886481Y-59996586D01*
X106718963Y-60222580D01*
X106598754Y-60476913D01*
X106558096Y-60610961D01*
X106680085Y-60833000D01*
X107823000Y-60833000D01*
X107823000Y-60813000D01*
X108077000Y-60813000D01*
X108077000Y-60833000D01*
X109219915Y-60833000D01*
X109227790Y-60818665D01*
X114135000Y-60818665D01*
X114135000Y-61101335D01*
X114190147Y-61378574D01*
X114298320Y-61639727D01*
X114455363Y-61874759D01*
X114655241Y-62074637D01*
X114890273Y-62231680D01*
X114900865Y-62236067D01*
X114714869Y-62347615D01*
X114506481Y-62536586D01*
X114338963Y-62762580D01*
X114218754Y-63016913D01*
X114178096Y-63150961D01*
X114300085Y-63373000D01*
X115443000Y-63373000D01*
X115443000Y-63353000D01*
X115697000Y-63353000D01*
X115697000Y-63373000D01*
X116839915Y-63373000D01*
X116961904Y-63150961D01*
X116921246Y-63016913D01*
X116801037Y-62762580D01*
X116633519Y-62536586D01*
X116425131Y-62347615D01*
X116239135Y-62236067D01*
X116249727Y-62231680D01*
X116484759Y-62074637D01*
X116684637Y-61874759D01*
X116841680Y-61639727D01*
X116949853Y-61378574D01*
X117005000Y-61101335D01*
X117005000Y-60818665D01*
X116949853Y-60541426D01*
X116841680Y-60280273D01*
X116684637Y-60045241D01*
X116484759Y-59845363D01*
X116249727Y-59688320D01*
X116239135Y-59683933D01*
X116425131Y-59572385D01*
X116633519Y-59383414D01*
X116801037Y-59157420D01*
X116921246Y-58903087D01*
X116961904Y-58769039D01*
X116839915Y-58547000D01*
X115697000Y-58547000D01*
X115697000Y-58567000D01*
X115443000Y-58567000D01*
X115443000Y-58547000D01*
X114300085Y-58547000D01*
X114178096Y-58769039D01*
X114218754Y-58903087D01*
X114338963Y-59157420D01*
X114506481Y-59383414D01*
X114714869Y-59572385D01*
X114900865Y-59683933D01*
X114890273Y-59688320D01*
X114655241Y-59845363D01*
X114455363Y-60045241D01*
X114298320Y-60280273D01*
X114190147Y-60541426D01*
X114135000Y-60818665D01*
X109227790Y-60818665D01*
X109341904Y-60610961D01*
X109301246Y-60476913D01*
X109181037Y-60222580D01*
X109013519Y-59996586D01*
X108805131Y-59807615D01*
X108619135Y-59696067D01*
X108629727Y-59691680D01*
X108864759Y-59534637D01*
X109064637Y-59334759D01*
X109221680Y-59099727D01*
X109329853Y-58838574D01*
X109385000Y-58561335D01*
X109385000Y-58278665D01*
X109329853Y-58001426D01*
X109221680Y-57740273D01*
X109064637Y-57505241D01*
X108864759Y-57305363D01*
X108632241Y-57150000D01*
X108864759Y-56994637D01*
X109064637Y-56794759D01*
X109221680Y-56559727D01*
X109329853Y-56298574D01*
X109343684Y-56229039D01*
X114178096Y-56229039D01*
X114218754Y-56363087D01*
X114338963Y-56617420D01*
X114506481Y-56843414D01*
X114714869Y-57032385D01*
X114910982Y-57150000D01*
X114714869Y-57267615D01*
X114506481Y-57456586D01*
X114338963Y-57682580D01*
X114218754Y-57936913D01*
X114178096Y-58070961D01*
X114300085Y-58293000D01*
X115443000Y-58293000D01*
X115443000Y-56007000D01*
X115697000Y-56007000D01*
X115697000Y-58293000D01*
X116839915Y-58293000D01*
X116961904Y-58070961D01*
X116921246Y-57936913D01*
X116801037Y-57682580D01*
X116633519Y-57456586D01*
X116425131Y-57267615D01*
X116229018Y-57150000D01*
X116425131Y-57032385D01*
X116633519Y-56843414D01*
X116801037Y-56617420D01*
X116921246Y-56363087D01*
X116961904Y-56229039D01*
X116839915Y-56007000D01*
X115697000Y-56007000D01*
X115443000Y-56007000D01*
X114300085Y-56007000D01*
X114178096Y-56229039D01*
X109343684Y-56229039D01*
X109385000Y-56021335D01*
X109385000Y-55738665D01*
X109329853Y-55461426D01*
X109221680Y-55200273D01*
X109064637Y-54965241D01*
X108866039Y-54766643D01*
X108874482Y-54765812D01*
X108994180Y-54729502D01*
X109104494Y-54670537D01*
X109201185Y-54591185D01*
X109280537Y-54494494D01*
X109339502Y-54384180D01*
X109375812Y-54264482D01*
X109388072Y-54140000D01*
X109388072Y-52540000D01*
X109375812Y-52415518D01*
X109339502Y-52295820D01*
X109280537Y-52185506D01*
X109201185Y-52088815D01*
X109104494Y-52009463D01*
X108994180Y-51950498D01*
X108874482Y-51914188D01*
X108750000Y-51901928D01*
X107150000Y-51901928D01*
X107025518Y-51914188D01*
X106905820Y-51950498D01*
X106795506Y-52009463D01*
X106698815Y-52088815D01*
X106619463Y-52185506D01*
X106560498Y-52295820D01*
X106524188Y-52415518D01*
X106511928Y-52540000D01*
X102190852Y-52540000D01*
X102233314Y-52437490D01*
X102287000Y-52167592D01*
X102287000Y-51892408D01*
X102233314Y-51622510D01*
X102128005Y-51368273D01*
X101975120Y-51139465D01*
X101780535Y-50944880D01*
X101551727Y-50791995D01*
X101297490Y-50686686D01*
X101027592Y-50633000D01*
X100752408Y-50633000D01*
X100482510Y-50686686D01*
X100228273Y-50791995D01*
X99999465Y-50944880D01*
X99804880Y-51139465D01*
X99651995Y-51368273D01*
X99546686Y-51622510D01*
X99493000Y-51892408D01*
X97180000Y-51892408D01*
X97180000Y-48260000D01*
X106108057Y-48260000D01*
X106135764Y-48541309D01*
X106217818Y-48811808D01*
X106351068Y-49061101D01*
X106530392Y-49279608D01*
X106748899Y-49458932D01*
X106937507Y-49559745D01*
X111817080Y-54439319D01*
X111868286Y-54501714D01*
X112117248Y-54706031D01*
X112401285Y-54857852D01*
X112709484Y-54951343D01*
X112949678Y-54975000D01*
X112949680Y-54975000D01*
X113030000Y-54982911D01*
X113110319Y-54975000D01*
X114463182Y-54975000D01*
X114338963Y-55142580D01*
X114218754Y-55396913D01*
X114178096Y-55530961D01*
X114300085Y-55753000D01*
X115443000Y-55753000D01*
X115443000Y-55733000D01*
X115697000Y-55733000D01*
X115697000Y-55753000D01*
X116839915Y-55753000D01*
X116961904Y-55530961D01*
X116921246Y-55396913D01*
X116801037Y-55142580D01*
X116633519Y-54916586D01*
X116431524Y-54733413D01*
X116482752Y-54706031D01*
X116731714Y-54501714D01*
X116936031Y-54252752D01*
X117087852Y-53968715D01*
X117181343Y-53660516D01*
X117212911Y-53340000D01*
X117181343Y-53019484D01*
X117087852Y-52711285D01*
X116936031Y-52427248D01*
X116731714Y-52178286D01*
X116482752Y-51973969D01*
X116198715Y-51822148D01*
X115890516Y-51728657D01*
X115650322Y-51705000D01*
X113707239Y-51705000D01*
X112019361Y-50017122D01*
X122555000Y-50017122D01*
X122555000Y-51142878D01*
X122774625Y-52247004D01*
X123205433Y-53287067D01*
X123830870Y-54223100D01*
X124626900Y-55019130D01*
X125562933Y-55644567D01*
X126602996Y-56075375D01*
X127707122Y-56295000D01*
X128832878Y-56295000D01*
X129937004Y-56075375D01*
X130977067Y-55644567D01*
X131913100Y-55019130D01*
X132709130Y-54223100D01*
X133334567Y-53287067D01*
X133765375Y-52247004D01*
X133985000Y-51142878D01*
X133985000Y-50017122D01*
X133765375Y-48912996D01*
X133334567Y-47872933D01*
X132709130Y-46936900D01*
X131913100Y-46140870D01*
X130977067Y-45515433D01*
X129937004Y-45084625D01*
X128832878Y-44865000D01*
X127707122Y-44865000D01*
X126602996Y-45084625D01*
X125562933Y-45515433D01*
X124626900Y-46140870D01*
X123830870Y-46936900D01*
X123205433Y-47872933D01*
X122774625Y-48912996D01*
X122555000Y-50017122D01*
X112019361Y-50017122D01*
X109649745Y-47647507D01*
X109548932Y-47458899D01*
X109369608Y-47240392D01*
X109151101Y-47061068D01*
X109023259Y-46992735D01*
X109252839Y-46842601D01*
X109454500Y-46644895D01*
X109613715Y-46411646D01*
X109724367Y-46151818D01*
X109741904Y-46069039D01*
X109619915Y-45847000D01*
X108077000Y-45847000D01*
X108077000Y-45867000D01*
X107823000Y-45867000D01*
X107823000Y-45847000D01*
X106280085Y-45847000D01*
X106158096Y-46069039D01*
X106175633Y-46151818D01*
X106286285Y-46411646D01*
X106445500Y-46644895D01*
X106647161Y-46842601D01*
X106876741Y-46992735D01*
X106748899Y-47061068D01*
X106530392Y-47240392D01*
X106351068Y-47458899D01*
X106217818Y-47708192D01*
X106135764Y-47978691D01*
X106108057Y-48260000D01*
X97180000Y-48260000D01*
X97180000Y-45720000D01*
X113728057Y-45720000D01*
X113755764Y-46001309D01*
X113837818Y-46271808D01*
X113971068Y-46521101D01*
X114150392Y-46739608D01*
X114263482Y-46832419D01*
X114245518Y-46834188D01*
X114125820Y-46870498D01*
X114015506Y-46929463D01*
X113918815Y-47008815D01*
X113839463Y-47105506D01*
X113780498Y-47215820D01*
X113744188Y-47335518D01*
X113731928Y-47460000D01*
X113731928Y-49060000D01*
X113744188Y-49184482D01*
X113780498Y-49304180D01*
X113839463Y-49414494D01*
X113918815Y-49511185D01*
X114015506Y-49590537D01*
X114125820Y-49649502D01*
X114245518Y-49685812D01*
X114370000Y-49698072D01*
X116770000Y-49698072D01*
X116894482Y-49685812D01*
X117014180Y-49649502D01*
X117124494Y-49590537D01*
X117221185Y-49511185D01*
X117300537Y-49414494D01*
X117359502Y-49304180D01*
X117395812Y-49184482D01*
X117408072Y-49060000D01*
X117408072Y-47460000D01*
X117395812Y-47335518D01*
X117359502Y-47215820D01*
X117300537Y-47105506D01*
X117221185Y-47008815D01*
X117124494Y-46929463D01*
X117014180Y-46870498D01*
X116894482Y-46834188D01*
X116876518Y-46832419D01*
X116989608Y-46739608D01*
X117168932Y-46521101D01*
X117302182Y-46271808D01*
X117384236Y-46001309D01*
X117411943Y-45720000D01*
X117384236Y-45438691D01*
X117302182Y-45168192D01*
X117168932Y-44918899D01*
X116989608Y-44700392D01*
X116771101Y-44521068D01*
X116643259Y-44452735D01*
X116872839Y-44302601D01*
X117074500Y-44104895D01*
X117233715Y-43871646D01*
X117344367Y-43611818D01*
X117361904Y-43529039D01*
X117239915Y-43307000D01*
X115697000Y-43307000D01*
X115697000Y-43327000D01*
X115443000Y-43327000D01*
X115443000Y-43307000D01*
X113900085Y-43307000D01*
X113778096Y-43529039D01*
X113795633Y-43611818D01*
X113906285Y-43871646D01*
X114065500Y-44104895D01*
X114267161Y-44302601D01*
X114496741Y-44452735D01*
X114368899Y-44521068D01*
X114150392Y-44700392D01*
X113971068Y-44918899D01*
X113837818Y-45168192D01*
X113755764Y-45438691D01*
X113728057Y-45720000D01*
X97180000Y-45720000D01*
X97180000Y-43180000D01*
X106108057Y-43180000D01*
X106135764Y-43461309D01*
X106217818Y-43731808D01*
X106351068Y-43981101D01*
X106530392Y-44199608D01*
X106748899Y-44378932D01*
X106876741Y-44447265D01*
X106647161Y-44597399D01*
X106445500Y-44795105D01*
X106286285Y-45028354D01*
X106175633Y-45288182D01*
X106158096Y-45370961D01*
X106280085Y-45593000D01*
X107823000Y-45593000D01*
X107823000Y-45573000D01*
X108077000Y-45573000D01*
X108077000Y-45593000D01*
X109619915Y-45593000D01*
X109741904Y-45370961D01*
X109724367Y-45288182D01*
X109613715Y-45028354D01*
X109454500Y-44795105D01*
X109252839Y-44597399D01*
X109023259Y-44447265D01*
X109151101Y-44378932D01*
X109369608Y-44199608D01*
X109548932Y-43981101D01*
X109682182Y-43731808D01*
X109764236Y-43461309D01*
X109791943Y-43180000D01*
X109764236Y-42898691D01*
X109682182Y-42628192D01*
X109548932Y-42378899D01*
X109369608Y-42160392D01*
X109151101Y-41981068D01*
X109023259Y-41912735D01*
X109252839Y-41762601D01*
X109454500Y-41564895D01*
X109613715Y-41331646D01*
X109724367Y-41071818D01*
X109741904Y-40989039D01*
X109619915Y-40767000D01*
X108077000Y-40767000D01*
X108077000Y-40787000D01*
X107823000Y-40787000D01*
X107823000Y-40767000D01*
X106280085Y-40767000D01*
X106158096Y-40989039D01*
X106175633Y-41071818D01*
X106286285Y-41331646D01*
X106445500Y-41564895D01*
X106647161Y-41762601D01*
X106876741Y-41912735D01*
X106748899Y-41981068D01*
X106530392Y-42160392D01*
X106351068Y-42378899D01*
X106217818Y-42628192D01*
X106135764Y-42898691D01*
X106108057Y-43180000D01*
X97180000Y-43180000D01*
X97180000Y-40640000D01*
X113728057Y-40640000D01*
X113755764Y-40921309D01*
X113837818Y-41191808D01*
X113971068Y-41441101D01*
X114150392Y-41659608D01*
X114368899Y-41838932D01*
X114496741Y-41907265D01*
X114267161Y-42057399D01*
X114065500Y-42255105D01*
X113906285Y-42488354D01*
X113795633Y-42748182D01*
X113778096Y-42830961D01*
X113900085Y-43053000D01*
X115443000Y-43053000D01*
X115443000Y-43033000D01*
X115697000Y-43033000D01*
X115697000Y-43053000D01*
X117239915Y-43053000D01*
X117361904Y-42830961D01*
X117344367Y-42748182D01*
X117233715Y-42488354D01*
X117074500Y-42255105D01*
X116872839Y-42057399D01*
X116643259Y-41907265D01*
X116771101Y-41838932D01*
X116989608Y-41659608D01*
X117168932Y-41441101D01*
X117302182Y-41191808D01*
X117384236Y-40921309D01*
X117411943Y-40640000D01*
X117384236Y-40358691D01*
X117302182Y-40088192D01*
X117168932Y-39838899D01*
X116989608Y-39620392D01*
X116771101Y-39441068D01*
X116643259Y-39372735D01*
X116872839Y-39222601D01*
X117074500Y-39024895D01*
X117233715Y-38791646D01*
X117344367Y-38531818D01*
X117361904Y-38449039D01*
X117239915Y-38227000D01*
X115697000Y-38227000D01*
X115697000Y-38247000D01*
X115443000Y-38247000D01*
X115443000Y-38227000D01*
X113900085Y-38227000D01*
X113778096Y-38449039D01*
X113795633Y-38531818D01*
X113906285Y-38791646D01*
X114065500Y-39024895D01*
X114267161Y-39222601D01*
X114496741Y-39372735D01*
X114368899Y-39441068D01*
X114150392Y-39620392D01*
X113971068Y-39838899D01*
X113837818Y-40088192D01*
X113755764Y-40358691D01*
X113728057Y-40640000D01*
X97180000Y-40640000D01*
X97180000Y-38100000D01*
X106108057Y-38100000D01*
X106135764Y-38381309D01*
X106217818Y-38651808D01*
X106351068Y-38901101D01*
X106530392Y-39119608D01*
X106748899Y-39298932D01*
X106876741Y-39367265D01*
X106647161Y-39517399D01*
X106445500Y-39715105D01*
X106286285Y-39948354D01*
X106175633Y-40208182D01*
X106158096Y-40290961D01*
X106280085Y-40513000D01*
X107823000Y-40513000D01*
X107823000Y-40493000D01*
X108077000Y-40493000D01*
X108077000Y-40513000D01*
X109619915Y-40513000D01*
X109741904Y-40290961D01*
X109724367Y-40208182D01*
X109613715Y-39948354D01*
X109454500Y-39715105D01*
X109252839Y-39517399D01*
X109023259Y-39367265D01*
X109151101Y-39298932D01*
X109369608Y-39119608D01*
X109548932Y-38901101D01*
X109682182Y-38651808D01*
X109764236Y-38381309D01*
X109791943Y-38100000D01*
X109764236Y-37818691D01*
X109682182Y-37548192D01*
X109548932Y-37298899D01*
X109369608Y-37080392D01*
X109151101Y-36901068D01*
X109023259Y-36832735D01*
X109252839Y-36682601D01*
X109454500Y-36484895D01*
X109613715Y-36251646D01*
X109724367Y-35991818D01*
X109741904Y-35909039D01*
X109619915Y-35687000D01*
X108077000Y-35687000D01*
X108077000Y-35707000D01*
X107823000Y-35707000D01*
X107823000Y-35687000D01*
X106280085Y-35687000D01*
X106158096Y-35909039D01*
X106175633Y-35991818D01*
X106286285Y-36251646D01*
X106445500Y-36484895D01*
X106647161Y-36682601D01*
X106876741Y-36832735D01*
X106748899Y-36901068D01*
X106530392Y-37080392D01*
X106351068Y-37298899D01*
X106217818Y-37548192D01*
X106135764Y-37818691D01*
X106108057Y-38100000D01*
X97180000Y-38100000D01*
X97180000Y-33952408D01*
X99493000Y-33952408D01*
X99493000Y-34227592D01*
X99546686Y-34497490D01*
X99651995Y-34751727D01*
X99804880Y-34980535D01*
X99999465Y-35175120D01*
X100228273Y-35328005D01*
X100482510Y-35433314D01*
X100752408Y-35487000D01*
X101027592Y-35487000D01*
X101297490Y-35433314D01*
X101551727Y-35328005D01*
X101780535Y-35175120D01*
X101975120Y-34980535D01*
X102128005Y-34751727D01*
X102233314Y-34497490D01*
X102287000Y-34227592D01*
X102287000Y-33952408D01*
X102233314Y-33682510D01*
X102128005Y-33428273D01*
X101975120Y-33199465D01*
X101795655Y-33020000D01*
X106108057Y-33020000D01*
X106135764Y-33301309D01*
X106217818Y-33571808D01*
X106351068Y-33821101D01*
X106530392Y-34039608D01*
X106748899Y-34218932D01*
X106876741Y-34287265D01*
X106647161Y-34437399D01*
X106445500Y-34635105D01*
X106286285Y-34868354D01*
X106175633Y-35128182D01*
X106158096Y-35210961D01*
X106280085Y-35433000D01*
X107823000Y-35433000D01*
X107823000Y-35413000D01*
X108077000Y-35413000D01*
X108077000Y-35433000D01*
X109619915Y-35433000D01*
X109741904Y-35210961D01*
X109724367Y-35128182D01*
X109613715Y-34868354D01*
X109454500Y-34635105D01*
X109252839Y-34437399D01*
X109023259Y-34287265D01*
X109151101Y-34218932D01*
X109369608Y-34039608D01*
X109548932Y-33821101D01*
X109682182Y-33571808D01*
X109764236Y-33301309D01*
X109791943Y-33020000D01*
X109764236Y-32738691D01*
X109743691Y-32670961D01*
X113778096Y-32670961D01*
X113900085Y-32893000D01*
X115443000Y-32893000D01*
X115443000Y-31585000D01*
X115043000Y-31585000D01*
X114765486Y-31637350D01*
X114503517Y-31742834D01*
X114267161Y-31897399D01*
X114065500Y-32095105D01*
X113906285Y-32328354D01*
X113795633Y-32588182D01*
X113778096Y-32670961D01*
X109743691Y-32670961D01*
X109682182Y-32468192D01*
X109548932Y-32218899D01*
X109369608Y-32000392D01*
X109151101Y-31821068D01*
X108901808Y-31687818D01*
X108631309Y-31605764D01*
X108420492Y-31585000D01*
X107479508Y-31585000D01*
X107268691Y-31605764D01*
X106998192Y-31687818D01*
X106748899Y-31821068D01*
X106530392Y-32000392D01*
X106351068Y-32218899D01*
X106217818Y-32468192D01*
X106135764Y-32738691D01*
X106108057Y-33020000D01*
X101795655Y-33020000D01*
X101780535Y-33004880D01*
X101551727Y-32851995D01*
X101297490Y-32746686D01*
X101027592Y-32693000D01*
X100752408Y-32693000D01*
X100482510Y-32746686D01*
X100228273Y-32851995D01*
X99999465Y-33004880D01*
X99804880Y-33199465D01*
X99651995Y-33428273D01*
X99546686Y-33682510D01*
X99493000Y-33952408D01*
X97180000Y-33952408D01*
X97180000Y-30055565D01*
X100104040Y-30055565D01*
X100171020Y-30295656D01*
X100420048Y-30412756D01*
X100687135Y-30479023D01*
X100962017Y-30491910D01*
X101234133Y-30450922D01*
X101493023Y-30357636D01*
X101608980Y-30295656D01*
X101675960Y-30055565D01*
X100890000Y-29269605D01*
X100104040Y-30055565D01*
X97180000Y-30055565D01*
X97180000Y-29162017D01*
X99488090Y-29162017D01*
X99529078Y-29434133D01*
X99622364Y-29693023D01*
X99684344Y-29808980D01*
X99924435Y-29875960D01*
X100710395Y-29090000D01*
X101069605Y-29090000D01*
X101855565Y-29875960D01*
X102095656Y-29808980D01*
X102212756Y-29559952D01*
X102279023Y-29292865D01*
X102291910Y-29017983D01*
X102250922Y-28745867D01*
X102157636Y-28486977D01*
X102095656Y-28371020D01*
X101855565Y-28304040D01*
X101069605Y-29090000D01*
X100710395Y-29090000D01*
X99924435Y-28304040D01*
X99684344Y-28371020D01*
X99567244Y-28620048D01*
X99500977Y-28887135D01*
X99488090Y-29162017D01*
X97180000Y-29162017D01*
X97180000Y-28124435D01*
X100104040Y-28124435D01*
X100890000Y-28910395D01*
X101675960Y-28124435D01*
X101608980Y-27884344D01*
X101359952Y-27767244D01*
X101092865Y-27700977D01*
X100817983Y-27688090D01*
X100545867Y-27729078D01*
X100286977Y-27822364D01*
X100171020Y-27884344D01*
X100104040Y-28124435D01*
X97180000Y-28124435D01*
X97180000Y-23952408D01*
X99493000Y-23952408D01*
X99493000Y-24227592D01*
X99546686Y-24497490D01*
X99651995Y-24751727D01*
X99804880Y-24980535D01*
X99999465Y-25175120D01*
X100228273Y-25328005D01*
X100482510Y-25433314D01*
X100752408Y-25487000D01*
X101027592Y-25487000D01*
X101297490Y-25433314D01*
X101551727Y-25328005D01*
X101780535Y-25175120D01*
X101975120Y-24980535D01*
X102128005Y-24751727D01*
X102233314Y-24497490D01*
X102287000Y-24227592D01*
X102287000Y-23952408D01*
X102233314Y-23682510D01*
X102128005Y-23428273D01*
X101975120Y-23199465D01*
X101780535Y-23004880D01*
X101551727Y-22851995D01*
X101297490Y-22746686D01*
X101027592Y-22693000D01*
X100752408Y-22693000D01*
X100482510Y-22746686D01*
X100228273Y-22851995D01*
X99999465Y-23004880D01*
X99804880Y-23199465D01*
X99651995Y-23428273D01*
X99546686Y-23682510D01*
X99493000Y-23952408D01*
X97180000Y-23952408D01*
X97180000Y-19710000D01*
X150876471Y-19710000D01*
X150788657Y-19999484D01*
G37*
X150788657Y-19999484D02*
X150757089Y-20320000D01*
X150765000Y-20400323D01*
X150765001Y-21738843D01*
X150539727Y-21588320D01*
X150278574Y-21480147D01*
X150001335Y-21425000D01*
X149718665Y-21425000D01*
X149441426Y-21480147D01*
X149180273Y-21588320D01*
X148945241Y-21745363D01*
X148745363Y-21945241D01*
X148590000Y-22177759D01*
X148434637Y-21945241D01*
X148234759Y-21745363D01*
X147999727Y-21588320D01*
X147738574Y-21480147D01*
X147461335Y-21425000D01*
X147178665Y-21425000D01*
X146901426Y-21480147D01*
X146640273Y-21588320D01*
X146405241Y-21745363D01*
X146205363Y-21945241D01*
X146048320Y-22180273D01*
X145940147Y-22441426D01*
X145885000Y-22718665D01*
X145885000Y-23001335D01*
X145940147Y-23278574D01*
X146048320Y-23539727D01*
X146205363Y-23774759D01*
X146405241Y-23974637D01*
X146640273Y-24131680D01*
X146901426Y-24239853D01*
X147178665Y-24295000D01*
X147461335Y-24295000D01*
X147738574Y-24239853D01*
X147999727Y-24131680D01*
X148234759Y-23974637D01*
X148434637Y-23774759D01*
X148590000Y-23542241D01*
X148745363Y-23774759D01*
X148945241Y-23974637D01*
X149180273Y-24131680D01*
X149441426Y-24239853D01*
X149718665Y-24295000D01*
X150001335Y-24295000D01*
X150278574Y-24239853D01*
X150539727Y-24131680D01*
X150765001Y-23981157D01*
X150765000Y-24722761D01*
X148760682Y-26727080D01*
X148698287Y-26778286D01*
X148583749Y-26917852D01*
X148493970Y-27027248D01*
X148342148Y-27311286D01*
X148248658Y-27619484D01*
X148217089Y-27940000D01*
X148225001Y-28020329D01*
X148225001Y-29052269D01*
X148120000Y-29041928D01*
X146520000Y-29041928D01*
X146395518Y-29054188D01*
X146275820Y-29090498D01*
X146165506Y-29149463D01*
X146068815Y-29228815D01*
X145989463Y-29325506D01*
X145930498Y-29435820D01*
X145894188Y-29555518D01*
X145881928Y-29680000D01*
X145881928Y-31280000D01*
X145894188Y-31404482D01*
X145930498Y-31524180D01*
X145989463Y-31634494D01*
X146068815Y-31731185D01*
X146165506Y-31810537D01*
X146275820Y-31869502D01*
X146395518Y-31905812D01*
X146520000Y-31918072D01*
X146867818Y-31918072D01*
X146596446Y-32000392D01*
X146564285Y-32010148D01*
X146280248Y-32161969D01*
X146031286Y-32366286D01*
X145980080Y-32428681D01*
X139903762Y-38505000D01*
X126614346Y-38505000D01*
X125888956Y-37779610D01*
X126602996Y-38075375D01*
X127707122Y-38295000D01*
X128832878Y-38295000D01*
X129937004Y-38075375D01*
X130977067Y-37644567D01*
X131913100Y-37019130D01*
X132709130Y-36223100D01*
X133334567Y-35287067D01*
X133765375Y-34247004D01*
X133985000Y-33142878D01*
X133985000Y-32017122D01*
X133765375Y-30912996D01*
X133334567Y-29872933D01*
X132709130Y-28936900D01*
X131913100Y-28140870D01*
X130977067Y-27515433D01*
X129937004Y-27084625D01*
X128832878Y-26865000D01*
X127707122Y-26865000D01*
X126602996Y-27084625D01*
X125562933Y-27515433D01*
X124626900Y-28140870D01*
X123830870Y-28936900D01*
X123205433Y-29872933D01*
X122774625Y-30912996D01*
X122555000Y-32017122D01*
X122555000Y-33142878D01*
X122774625Y-34247004D01*
X123070390Y-34961045D01*
X121515000Y-33405655D01*
X121515000Y-29314882D01*
X121525330Y-29210000D01*
X121484108Y-28791467D01*
X121362026Y-28389018D01*
X121163777Y-28018119D01*
X120896977Y-27693023D01*
X120571881Y-27426223D01*
X120200982Y-27227974D01*
X119798533Y-27105892D01*
X119484882Y-27075000D01*
X119380000Y-27064670D01*
X119275118Y-27075000D01*
X115195631Y-27075000D01*
X113719151Y-25598521D01*
X113896923Y-25505969D01*
X114139437Y-25311315D01*
X114294837Y-25126101D01*
X114442037Y-25305463D01*
X114683766Y-25503845D01*
X114959552Y-25651255D01*
X115258797Y-25742030D01*
X115570000Y-25772681D01*
X115881204Y-25742030D01*
X116180449Y-25651255D01*
X116456235Y-25503845D01*
X116697963Y-25305463D01*
X116896345Y-25063734D01*
X117043755Y-24787948D01*
X117134530Y-24488703D01*
X117157500Y-24255485D01*
X117157500Y-24004514D01*
X117134530Y-23771296D01*
X117043755Y-23472051D01*
X116896345Y-23196265D01*
X116697963Y-22954537D01*
X116456234Y-22756155D01*
X116180448Y-22608745D01*
X115881203Y-22517970D01*
X115570000Y-22487319D01*
X115258796Y-22517970D01*
X114959551Y-22608745D01*
X114683765Y-22756155D01*
X114442037Y-22954537D01*
X114294838Y-23133900D01*
X114139437Y-22948685D01*
X113896923Y-22754031D01*
X113621094Y-22610429D01*
X113402980Y-22539437D01*
X113157000Y-22659406D01*
X113157000Y-24003000D01*
X113177000Y-24003000D01*
X113177000Y-24257000D01*
X113157000Y-24257000D01*
X113157000Y-24277000D01*
X112903000Y-24277000D01*
X112903000Y-24257000D01*
X112883000Y-24257000D01*
X112883000Y-24003000D01*
X112903000Y-24003000D01*
X112903000Y-22659406D01*
X112657020Y-22539437D01*
X112438906Y-22610429D01*
X112163077Y-22754031D01*
X112070905Y-22828013D01*
X111894467Y-22613023D01*
X111569371Y-22346223D01*
X111198472Y-22147974D01*
X110796023Y-22025892D01*
X110377490Y-21984670D01*
X109958958Y-22025892D01*
X109556509Y-22147974D01*
X109185610Y-22346223D01*
X108860514Y-22613023D01*
X108593714Y-22938119D01*
X108395465Y-23309018D01*
X108273382Y-23711467D01*
X108242490Y-24025118D01*
X108242490Y-25171333D01*
X108232161Y-25276205D01*
X108242490Y-25381077D01*
X108242490Y-25381086D01*
X108273382Y-25694737D01*
X108395464Y-26097186D01*
X108593713Y-26468086D01*
X108860513Y-26793182D01*
X108941982Y-26860042D01*
X112727452Y-30645513D01*
X112794308Y-30726977D01*
X112875772Y-30793833D01*
X112875774Y-30793835D01*
X112982554Y-30881467D01*
X113119404Y-30993777D01*
X113490303Y-31192026D01*
X113892752Y-31314108D01*
X114206403Y-31345000D01*
X114206412Y-31345000D01*
X114311284Y-31355329D01*
X114416156Y-31345000D01*
X117245001Y-31345000D01*
X117245000Y-32354854D01*
X117233715Y-32328354D01*
X117074500Y-32095105D01*
X116872839Y-31897399D01*
X116636483Y-31742834D01*
X116374514Y-31637350D01*
X116097000Y-31585000D01*
X115697000Y-31585000D01*
X115697000Y-32893000D01*
X115717000Y-32893000D01*
X115717000Y-33147000D01*
X115697000Y-33147000D01*
X115697000Y-33167000D01*
X115443000Y-33167000D01*
X115443000Y-33147000D01*
X113900085Y-33147000D01*
X113778096Y-33369039D01*
X113795633Y-33451818D01*
X113906285Y-33711646D01*
X114065500Y-33944895D01*
X114267161Y-34142601D01*
X114496741Y-34292735D01*
X114368899Y-34361068D01*
X114150392Y-34540392D01*
X113971068Y-34758899D01*
X113837818Y-35008192D01*
X113755764Y-35278691D01*
X113728057Y-35560000D01*
X113755764Y-35841309D01*
X113837818Y-36111808D01*
X113971068Y-36361101D01*
X114150392Y-36579608D01*
X114368899Y-36758932D01*
X114496741Y-36827265D01*
X114267161Y-36977399D01*
X114065500Y-37175105D01*
X113906285Y-37408354D01*
X113795633Y-37668182D01*
X113778096Y-37750961D01*
X113900085Y-37973000D01*
X115443000Y-37973000D01*
X115443000Y-37953000D01*
X115697000Y-37953000D01*
X115697000Y-37973000D01*
X117239915Y-37973000D01*
X117361904Y-37750961D01*
X117344367Y-37668182D01*
X117233715Y-37408354D01*
X117074500Y-37175105D01*
X116872839Y-36977399D01*
X116643259Y-36827265D01*
X116771101Y-36758932D01*
X116989608Y-36579608D01*
X117168932Y-36361101D01*
X117302182Y-36111808D01*
X117384236Y-35841309D01*
X117411943Y-35560000D01*
X117384236Y-35278691D01*
X117302182Y-35008192D01*
X117168932Y-34758899D01*
X116989608Y-34540392D01*
X116771101Y-34361068D01*
X116643259Y-34292735D01*
X116872839Y-34142601D01*
X117074500Y-33944895D01*
X117233715Y-33711646D01*
X117245000Y-33685147D01*
X117245000Y-34185128D01*
X117234671Y-34290000D01*
X117245000Y-34394872D01*
X117245000Y-34394881D01*
X117275892Y-34708532D01*
X117397974Y-35110981D01*
X117596223Y-35481881D01*
X117863023Y-35806977D01*
X117944492Y-35873837D01*
X124146167Y-42075513D01*
X124213023Y-42156977D01*
X124294487Y-42223833D01*
X124294489Y-42223835D01*
X124466338Y-42364868D01*
X124538119Y-42423777D01*
X124909018Y-42622026D01*
X125311467Y-42744108D01*
X125625118Y-42775000D01*
X125625127Y-42775000D01*
X125729999Y-42785329D01*
X125834871Y-42775000D01*
X144225625Y-42775000D01*
X144853831Y-43403206D01*
X144745461Y-43664833D01*
X144624985Y-44270508D01*
X144624985Y-44888050D01*
X144745461Y-45493725D01*
X144981784Y-46064258D01*
X145157713Y-46327555D01*
X144622165Y-46434082D01*
X144051632Y-46670405D01*
X143538165Y-47013492D01*
X143101497Y-47450160D01*
X142758410Y-47963627D01*
X142522087Y-48534160D01*
X142401611Y-49139835D01*
X142401611Y-49408779D01*
X140334492Y-51475899D01*
X140253023Y-51542759D01*
X139986223Y-51867855D01*
X139787974Y-52238755D01*
X139665892Y-52641204D01*
X139635000Y-52954855D01*
X139635000Y-52954864D01*
X139624671Y-53059736D01*
X139635000Y-53164608D01*
X139635001Y-59115118D01*
X139624671Y-59220000D01*
X139665893Y-59638533D01*
X139787975Y-60040982D01*
X139986224Y-60411881D01*
X140186165Y-60655510D01*
X140186168Y-60655513D01*
X140253024Y-60736977D01*
X140334487Y-60803832D01*
X145185000Y-65654346D01*
X145185001Y-68645119D01*
X145174671Y-68750000D01*
X145215893Y-69168533D01*
X145337975Y-69570982D01*
X145536224Y-69941881D01*
X145736165Y-70185510D01*
X145736168Y-70185513D01*
X145803024Y-70266977D01*
X145884487Y-70333832D01*
X149376167Y-73825513D01*
X149443023Y-73906977D01*
X149524487Y-73973833D01*
X149524489Y-73973835D01*
X149648216Y-74075375D01*
X149768119Y-74173777D01*
X150139018Y-74372026D01*
X150541467Y-74494108D01*
X150855118Y-74525000D01*
X150855127Y-74525000D01*
X150959999Y-74535329D01*
X151064871Y-74525000D01*
X168551128Y-74525000D01*
X168656000Y-74535329D01*
X168760872Y-74525000D01*
X168760882Y-74525000D01*
X169074533Y-74494108D01*
X169476982Y-74372026D01*
X169847881Y-74173777D01*
X170172977Y-73906977D01*
X170239837Y-73825508D01*
X170874836Y-73190509D01*
X174630346Y-69435000D01*
X179938475Y-69435000D01*
X180175433Y-70007067D01*
X180800870Y-70943100D01*
X181596900Y-71739130D01*
X182532933Y-72364567D01*
X183572996Y-72795375D01*
X184677122Y-73015000D01*
X185802878Y-73015000D01*
X186907004Y-72795375D01*
X187947067Y-72364567D01*
X188883100Y-71739130D01*
X189679130Y-70943100D01*
X190304567Y-70007067D01*
X190735375Y-68967004D01*
X190955000Y-67862878D01*
X190955000Y-66737122D01*
X190735375Y-65632996D01*
X190304567Y-64592933D01*
X189679130Y-63656900D01*
X188883100Y-62860870D01*
X187947067Y-62235433D01*
X186907004Y-61804625D01*
X185802878Y-61585000D01*
X184677122Y-61585000D01*
X183572996Y-61804625D01*
X182532933Y-62235433D01*
X181596900Y-62860870D01*
X180800870Y-63656900D01*
X180175433Y-64592933D01*
X179938475Y-65165000D01*
X173739339Y-65165000D01*
X173735999Y-65164671D01*
X173732659Y-65165000D01*
X173641118Y-65165000D01*
X173327467Y-65195892D01*
X172925018Y-65317974D01*
X172554119Y-65516223D01*
X172229023Y-65783023D01*
X172162167Y-65864487D01*
X167855491Y-70171164D01*
X167771655Y-70255000D01*
X153421153Y-70255000D01*
X153574535Y-70208472D01*
X153945434Y-70010223D01*
X154189063Y-69810282D01*
X156376115Y-67623231D01*
X156457579Y-67556375D01*
X156724379Y-67231279D01*
X156922628Y-66860380D01*
X157044710Y-66457931D01*
X157075602Y-66144280D01*
X157075602Y-66144271D01*
X157085931Y-66039399D01*
X157075602Y-65934527D01*
X157075602Y-62598559D01*
X157375716Y-62298445D01*
X157718803Y-61784978D01*
X157955126Y-61214445D01*
X157973504Y-61122052D01*
X158078148Y-61226696D01*
X158591615Y-61569783D01*
X159162148Y-61806106D01*
X159767823Y-61926582D01*
X160385365Y-61926582D01*
X160991040Y-61806106D01*
X161561573Y-61569783D01*
X162075040Y-61226696D01*
X162511708Y-60790028D01*
X162854795Y-60276561D01*
X163091118Y-59706028D01*
X163211594Y-59100353D01*
X163211594Y-58482811D01*
X163091118Y-57877136D01*
X163076485Y-57841808D01*
X163272983Y-57880894D01*
X163890525Y-57880894D01*
X164496200Y-57760418D01*
X165066733Y-57524095D01*
X165580200Y-57181008D01*
X166016868Y-56744340D01*
X166359955Y-56230873D01*
X166596278Y-55660340D01*
X166716754Y-55054665D01*
X166716754Y-54437123D01*
X166596278Y-53831448D01*
X166359955Y-53260915D01*
X166016868Y-52747448D01*
X165592615Y-52323195D01*
X165828196Y-52225614D01*
X166341663Y-51882527D01*
X166778331Y-51445859D01*
X167121418Y-50932392D01*
X167357741Y-50361859D01*
X167478217Y-49756184D01*
X167478217Y-49331758D01*
X168072853Y-48737122D01*
X179525000Y-48737122D01*
X179525000Y-49862878D01*
X179744625Y-50967004D01*
X180175433Y-52007067D01*
X180800870Y-52943100D01*
X181596900Y-53739130D01*
X182532933Y-54364567D01*
X183572996Y-54795375D01*
X184677122Y-55015000D01*
X185802878Y-55015000D01*
X186907004Y-54795375D01*
X187947067Y-54364567D01*
X188883100Y-53739130D01*
X189679130Y-52943100D01*
X190304567Y-52007067D01*
X190735375Y-50967004D01*
X190955000Y-49862878D01*
X190955000Y-48737122D01*
X190735375Y-47632996D01*
X190304567Y-46592933D01*
X189679130Y-45656900D01*
X188883100Y-44860870D01*
X187947067Y-44235433D01*
X186907004Y-43804625D01*
X185802878Y-43585000D01*
X184677122Y-43585000D01*
X183572996Y-43804625D01*
X182532933Y-44235433D01*
X181596900Y-44860870D01*
X180800870Y-45656900D01*
X180175433Y-46592933D01*
X179744625Y-47632996D01*
X179525000Y-48737122D01*
X168072853Y-48737122D01*
X176695513Y-40114463D01*
X176776977Y-40047607D01*
X176843833Y-39966143D01*
X176843836Y-39966140D01*
X177043776Y-39722512D01*
X177047736Y-39715105D01*
X177050601Y-39709744D01*
X181309058Y-35451288D01*
X181596900Y-35739130D01*
X182532933Y-36364567D01*
X183572996Y-36795375D01*
X184677122Y-37015000D01*
X185802878Y-37015000D01*
X186907004Y-36795375D01*
X187947067Y-36364567D01*
X188883100Y-35739130D01*
X189679130Y-34943100D01*
X190304567Y-34007067D01*
X190735375Y-32967004D01*
X190955000Y-31862878D01*
X190955000Y-30737122D01*
X190735375Y-29632996D01*
X190304567Y-28592933D01*
X189679130Y-27656900D01*
X188883100Y-26860870D01*
X187947067Y-26235433D01*
X186907004Y-25804625D01*
X185802878Y-25585000D01*
X184677122Y-25585000D01*
X183572996Y-25804625D01*
X182532933Y-26235433D01*
X181596900Y-26860870D01*
X180800870Y-27656900D01*
X180175433Y-28592933D01*
X179744625Y-29632996D01*
X179525000Y-30737122D01*
X179525000Y-31196654D01*
X173824492Y-36897163D01*
X173743023Y-36964023D01*
X173476223Y-37289119D01*
X173469400Y-37301884D01*
X165031417Y-45739868D01*
X165133750Y-45492814D01*
X165254226Y-44887139D01*
X165254226Y-44269597D01*
X165133750Y-43663922D01*
X164897427Y-43093389D01*
X164554340Y-42579922D01*
X164117672Y-42143254D01*
X163754226Y-41900408D01*
X163754226Y-33802545D01*
X163762137Y-33722226D01*
X163743007Y-33528000D01*
X163730569Y-33401710D01*
X163637078Y-33093511D01*
X163485257Y-32809474D01*
X163280940Y-32560512D01*
X163218546Y-32509307D01*
X162624239Y-31915000D01*
X162687002Y-31915000D01*
X162687002Y-31749916D01*
X162909039Y-31871904D01*
X163043087Y-31831246D01*
X163297420Y-31711037D01*
X163523414Y-31543519D01*
X163712385Y-31335131D01*
X163857070Y-31093881D01*
X163951909Y-30829040D01*
X163830624Y-30607000D01*
X162687000Y-30607000D01*
X162687000Y-30627000D01*
X162433000Y-30627000D01*
X162433000Y-30607000D01*
X162413000Y-30607000D01*
X162413000Y-30353000D01*
X162433000Y-30353000D01*
X162433000Y-29210085D01*
X162687000Y-29210085D01*
X162687000Y-30353000D01*
X163830624Y-30353000D01*
X163951909Y-30130960D01*
X163857070Y-29866119D01*
X163712385Y-29624869D01*
X163523414Y-29416481D01*
X163297420Y-29248963D01*
X163043087Y-29128754D01*
X162909039Y-29088096D01*
X162687000Y-29210085D01*
X162433000Y-29210085D01*
X162210961Y-29088096D01*
X162076913Y-29128754D01*
X161822580Y-29248963D01*
X161655000Y-29373182D01*
X161655000Y-26997849D01*
X161918715Y-26917852D01*
X162202752Y-26766031D01*
X162451714Y-26561714D01*
X162502924Y-26499314D01*
X163659318Y-25342921D01*
X163721714Y-25291714D01*
X163926031Y-25042752D01*
X164077852Y-24758715D01*
X164171343Y-24450516D01*
X164195000Y-24210322D01*
X164195000Y-24210320D01*
X164202911Y-24130001D01*
X164195931Y-24059132D01*
X164197463Y-24062831D01*
X164387337Y-24346998D01*
X164629002Y-24588663D01*
X164913169Y-24778537D01*
X165228919Y-24909325D01*
X165564117Y-24976000D01*
X165905883Y-24976000D01*
X166241081Y-24909325D01*
X166556831Y-24778537D01*
X166840998Y-24588663D01*
X167082663Y-24346998D01*
X167272537Y-24062831D01*
X167403325Y-23747081D01*
X167470000Y-23411883D01*
X167470000Y-23070117D01*
X167403325Y-22734919D01*
X167272537Y-22419169D01*
X167086671Y-22141000D01*
X174156928Y-22141000D01*
X174156928Y-24341000D01*
X174169188Y-24465482D01*
X174205498Y-24585180D01*
X174264463Y-24695494D01*
X174343815Y-24792185D01*
X174440506Y-24871537D01*
X174550820Y-24930502D01*
X174670518Y-24966812D01*
X174795000Y-24979072D01*
X176995000Y-24979072D01*
X177119482Y-24966812D01*
X177239180Y-24930502D01*
X177349494Y-24871537D01*
X177446185Y-24792185D01*
X177525537Y-24695494D01*
X177584502Y-24585180D01*
X177620812Y-24465482D01*
X177633072Y-24341000D01*
X177633072Y-22141000D01*
X177620812Y-22016518D01*
X177584502Y-21896820D01*
X177525537Y-21786506D01*
X177446185Y-21689815D01*
X177349494Y-21610463D01*
X177239180Y-21551498D01*
X177119482Y-21515188D01*
X176995000Y-21502928D01*
X174795000Y-21502928D01*
X174670518Y-21515188D01*
X174550820Y-21551498D01*
X174440506Y-21610463D01*
X174343815Y-21689815D01*
X174264463Y-21786506D01*
X174205498Y-21896820D01*
X174169188Y-22016518D01*
X174156928Y-22141000D01*
X167086671Y-22141000D01*
X167082663Y-22135002D01*
X166840998Y-21893337D01*
X166556831Y-21703463D01*
X166241081Y-21572675D01*
X165905883Y-21506000D01*
X165564117Y-21506000D01*
X165228919Y-21572675D01*
X164913169Y-21703463D01*
X164629002Y-21893337D01*
X164387337Y-22135002D01*
X164197463Y-22419169D01*
X164161317Y-22506433D01*
X164077852Y-22231285D01*
X163926031Y-21947248D01*
X163721714Y-21698286D01*
X163472751Y-21493969D01*
X163188714Y-21342148D01*
X162880515Y-21248657D01*
X162560000Y-21217089D01*
X162239484Y-21248657D01*
X161931285Y-21342148D01*
X161647248Y-21493969D01*
X161398286Y-21698286D01*
X161193969Y-21947249D01*
X161168196Y-21995466D01*
X161134637Y-21945241D01*
X160934759Y-21745363D01*
X160699727Y-21588320D01*
X160438574Y-21480147D01*
X160161335Y-21425000D01*
X159878665Y-21425000D01*
X159601426Y-21480147D01*
X159340273Y-21588320D01*
X159115000Y-21738842D01*
X159115000Y-20400322D01*
X159122911Y-20320000D01*
X159091343Y-19999484D01*
X159003529Y-19710000D01*
X194920001Y-19710000D01*
X194920000Y-78760000D01*
X97180000Y-78760000D01*
X97180000Y-68929039D01*
X106558096Y-68929039D01*
X106598754Y-69063087D01*
X106718963Y-69317420D01*
X106886481Y-69543414D01*
X107094869Y-69732385D01*
X107336119Y-69877070D01*
X107600960Y-69971909D01*
X107823000Y-69850624D01*
X107823000Y-68707000D01*
X108077000Y-68707000D01*
X108077000Y-69850624D01*
X108299040Y-69971909D01*
X108563881Y-69877070D01*
X108805131Y-69732385D01*
X109013519Y-69543414D01*
X109181037Y-69317420D01*
X109301246Y-69063087D01*
X109341904Y-68929039D01*
X109219915Y-68707000D01*
X108077000Y-68707000D01*
X107823000Y-68707000D01*
X106680085Y-68707000D01*
X106558096Y-68929039D01*
X97180000Y-68929039D01*
X97180000Y-65898665D01*
X106515000Y-65898665D01*
X106515000Y-66181335D01*
X106570147Y-66458574D01*
X106678320Y-66719727D01*
X106835363Y-66954759D01*
X107035241Y-67154637D01*
X107270273Y-67311680D01*
X107280865Y-67316067D01*
X107094869Y-67427615D01*
X106886481Y-67616586D01*
X106718963Y-67842580D01*
X106598754Y-68096913D01*
X106558096Y-68230961D01*
X106680085Y-68453000D01*
X107823000Y-68453000D01*
X107823000Y-68433000D01*
X108077000Y-68433000D01*
X108077000Y-68453000D01*
X109219915Y-68453000D01*
X109227790Y-68438665D01*
X114135000Y-68438665D01*
X114135000Y-68721335D01*
X114190147Y-68998574D01*
X114298320Y-69259727D01*
X114455363Y-69494759D01*
X114655241Y-69694637D01*
X114890273Y-69851680D01*
X115151426Y-69959853D01*
X115428665Y-70015000D01*
X115711335Y-70015000D01*
X115988574Y-69959853D01*
X116249727Y-69851680D01*
X116484759Y-69694637D01*
X116684637Y-69494759D01*
X116841680Y-69259727D01*
X116949853Y-68998574D01*
X117005000Y-68721335D01*
X117005000Y-68438665D01*
X116949853Y-68161426D01*
X116890081Y-68017122D01*
X122555000Y-68017122D01*
X122555000Y-69142878D01*
X122774625Y-70247004D01*
X123205433Y-71287067D01*
X123830870Y-72223100D01*
X124626900Y-73019130D01*
X125562933Y-73644567D01*
X126602996Y-74075375D01*
X127707122Y-74295000D01*
X128832878Y-74295000D01*
X129937004Y-74075375D01*
X130977067Y-73644567D01*
X131913100Y-73019130D01*
X132709130Y-72223100D01*
X133334567Y-71287067D01*
X133765375Y-70247004D01*
X133985000Y-69142878D01*
X133985000Y-68017122D01*
X133765375Y-66912996D01*
X133334567Y-65872933D01*
X132709130Y-64936900D01*
X131913100Y-64140870D01*
X130977067Y-63515433D01*
X129937004Y-63084625D01*
X128832878Y-62865000D01*
X127707122Y-62865000D01*
X126602996Y-63084625D01*
X125562933Y-63515433D01*
X124626900Y-64140870D01*
X123830870Y-64936900D01*
X123205433Y-65872933D01*
X122774625Y-66912996D01*
X122555000Y-68017122D01*
X116890081Y-68017122D01*
X116841680Y-67900273D01*
X116684637Y-67665241D01*
X116484759Y-67465363D01*
X116249727Y-67308320D01*
X116239135Y-67303933D01*
X116425131Y-67192385D01*
X116633519Y-67003414D01*
X116801037Y-66777420D01*
X116921246Y-66523087D01*
X116961904Y-66389039D01*
X116839915Y-66167000D01*
X115697000Y-66167000D01*
X115697000Y-66187000D01*
X115443000Y-66187000D01*
X115443000Y-66167000D01*
X114300085Y-66167000D01*
X114178096Y-66389039D01*
X114218754Y-66523087D01*
X114338963Y-66777420D01*
X114506481Y-67003414D01*
X114714869Y-67192385D01*
X114900865Y-67303933D01*
X114890273Y-67308320D01*
X114655241Y-67465363D01*
X114455363Y-67665241D01*
X114298320Y-67900273D01*
X114190147Y-68161426D01*
X114135000Y-68438665D01*
X109227790Y-68438665D01*
X109341904Y-68230961D01*
X109301246Y-68096913D01*
X109181037Y-67842580D01*
X109013519Y-67616586D01*
X108805131Y-67427615D01*
X108619135Y-67316067D01*
X108629727Y-67311680D01*
X108864759Y-67154637D01*
X109064637Y-66954759D01*
X109221680Y-66719727D01*
X109329853Y-66458574D01*
X109385000Y-66181335D01*
X109385000Y-65898665D01*
X109329853Y-65621426D01*
X109221680Y-65360273D01*
X109064637Y-65125241D01*
X108864759Y-64925363D01*
X108629727Y-64768320D01*
X108619135Y-64763933D01*
X108805131Y-64652385D01*
X109013519Y-64463414D01*
X109181037Y-64237420D01*
X109301246Y-63983087D01*
X109341904Y-63849039D01*
X114178096Y-63849039D01*
X114218754Y-63983087D01*
X114338963Y-64237420D01*
X114506481Y-64463414D01*
X114714869Y-64652385D01*
X114910982Y-64770000D01*
X114714869Y-64887615D01*
X114506481Y-65076586D01*
X114338963Y-65302580D01*
X114218754Y-65556913D01*
X114178096Y-65690961D01*
X114300085Y-65913000D01*
X115443000Y-65913000D01*
X115443000Y-63627000D01*
X115697000Y-63627000D01*
X115697000Y-65913000D01*
X116839915Y-65913000D01*
X116961904Y-65690961D01*
X116921246Y-65556913D01*
X116801037Y-65302580D01*
X116633519Y-65076586D01*
X116425131Y-64887615D01*
X116229018Y-64770000D01*
X116425131Y-64652385D01*
X116633519Y-64463414D01*
X116801037Y-64237420D01*
X116921246Y-63983087D01*
X116961904Y-63849039D01*
X116839915Y-63627000D01*
X115697000Y-63627000D01*
X115443000Y-63627000D01*
X114300085Y-63627000D01*
X114178096Y-63849039D01*
X109341904Y-63849039D01*
X109219915Y-63627000D01*
X108077000Y-63627000D01*
X108077000Y-63647000D01*
X107823000Y-63647000D01*
X107823000Y-63627000D01*
X106680085Y-63627000D01*
X106558096Y-63849039D01*
X106598754Y-63983087D01*
X106718963Y-64237420D01*
X106886481Y-64463414D01*
X107094869Y-64652385D01*
X107280865Y-64763933D01*
X107270273Y-64768320D01*
X107035241Y-64925363D01*
X106835363Y-65125241D01*
X106678320Y-65360273D01*
X106570147Y-65621426D01*
X106515000Y-65898665D01*
X97180000Y-65898665D01*
X97180000Y-61892408D01*
X99493000Y-61892408D01*
X99493000Y-62167592D01*
X99546686Y-62437490D01*
X99651995Y-62691727D01*
X99804880Y-62920535D01*
X99999465Y-63115120D01*
X100228273Y-63268005D01*
X100482510Y-63373314D01*
X100752408Y-63427000D01*
X101027592Y-63427000D01*
X101297490Y-63373314D01*
X101551727Y-63268005D01*
X101780535Y-63115120D01*
X101975120Y-62920535D01*
X102128005Y-62691727D01*
X102233314Y-62437490D01*
X102287000Y-62167592D01*
X102287000Y-61892408D01*
X102233314Y-61622510D01*
X102128005Y-61368273D01*
X102088427Y-61309039D01*
X106558096Y-61309039D01*
X106598754Y-61443087D01*
X106718963Y-61697420D01*
X106886481Y-61923414D01*
X107094869Y-62112385D01*
X107290982Y-62230000D01*
X107094869Y-62347615D01*
X106886481Y-62536586D01*
X106718963Y-62762580D01*
X106598754Y-63016913D01*
X106558096Y-63150961D01*
X106680085Y-63373000D01*
X107823000Y-63373000D01*
X107823000Y-61087000D01*
X108077000Y-61087000D01*
X108077000Y-63373000D01*
X109219915Y-63373000D01*
X109341904Y-63150961D01*
X109301246Y-63016913D01*
X109181037Y-62762580D01*
X109013519Y-62536586D01*
X108805131Y-62347615D01*
X108609018Y-62230000D01*
X108805131Y-62112385D01*
X109013519Y-61923414D01*
X109181037Y-61697420D01*
X109301246Y-61443087D01*
X109341904Y-61309039D01*
X109219915Y-61087000D01*
X108077000Y-61087000D01*
X107823000Y-61087000D01*
X106680085Y-61087000D01*
X106558096Y-61309039D01*
X102088427Y-61309039D01*
X101975120Y-61139465D01*
X101780535Y-60944880D01*
X101551727Y-60791995D01*
X101297490Y-60686686D01*
X101027592Y-60633000D01*
X100752408Y-60633000D01*
X100482510Y-60686686D01*
X100228273Y-60791995D01*
X99999465Y-60944880D01*
X99804880Y-61139465D01*
X99651995Y-61368273D01*
X99546686Y-61622510D01*
X99493000Y-61892408D01*
X97180000Y-61892408D01*
X97180000Y-56892408D01*
X99493000Y-56892408D01*
X99493000Y-57167592D01*
X99546686Y-57437490D01*
X99651995Y-57691727D01*
X99804880Y-57920535D01*
X99999465Y-58115120D01*
X100228273Y-58268005D01*
X100482510Y-58373314D01*
X100752408Y-58427000D01*
X101027592Y-58427000D01*
X101297490Y-58373314D01*
X101551727Y-58268005D01*
X101780535Y-58115120D01*
X101975120Y-57920535D01*
X102128005Y-57691727D01*
X102233314Y-57437490D01*
X102287000Y-57167592D01*
X102287000Y-56892408D01*
X102233314Y-56622510D01*
X102128005Y-56368273D01*
X101975120Y-56139465D01*
X101780535Y-55944880D01*
X101551727Y-55791995D01*
X101297490Y-55686686D01*
X101027592Y-55633000D01*
X100752408Y-55633000D01*
X100482510Y-55686686D01*
X100228273Y-55791995D01*
X99999465Y-55944880D01*
X99804880Y-56139465D01*
X99651995Y-56368273D01*
X99546686Y-56622510D01*
X99493000Y-56892408D01*
X97180000Y-56892408D01*
X97180000Y-51892408D01*
X99493000Y-51892408D01*
X99493000Y-52167592D01*
X99546686Y-52437490D01*
X99651995Y-52691727D01*
X99804880Y-52920535D01*
X99999465Y-53115120D01*
X100228273Y-53268005D01*
X100482510Y-53373314D01*
X100752408Y-53427000D01*
X101027592Y-53427000D01*
X101297490Y-53373314D01*
X101551727Y-53268005D01*
X101780535Y-53115120D01*
X101975120Y-52920535D01*
X102128005Y-52691727D01*
X102190852Y-52540000D01*
X106511928Y-52540000D01*
X106511928Y-54140000D01*
X106524188Y-54264482D01*
X106560498Y-54384180D01*
X106619463Y-54494494D01*
X106698815Y-54591185D01*
X106795506Y-54670537D01*
X106905820Y-54729502D01*
X107025518Y-54765812D01*
X107033961Y-54766643D01*
X106835363Y-54965241D01*
X106678320Y-55200273D01*
X106570147Y-55461426D01*
X106515000Y-55738665D01*
X106515000Y-56021335D01*
X106570147Y-56298574D01*
X106678320Y-56559727D01*
X106835363Y-56794759D01*
X107035241Y-56994637D01*
X107267759Y-57150000D01*
X107035241Y-57305363D01*
X106835363Y-57505241D01*
X106678320Y-57740273D01*
X106570147Y-58001426D01*
X106515000Y-58278665D01*
X106515000Y-58561335D01*
X106570147Y-58838574D01*
X106678320Y-59099727D01*
X106835363Y-59334759D01*
X107035241Y-59534637D01*
X107270273Y-59691680D01*
X107280865Y-59696067D01*
X107094869Y-59807615D01*
X106886481Y-59996586D01*
X106718963Y-60222580D01*
X106598754Y-60476913D01*
X106558096Y-60610961D01*
X106680085Y-60833000D01*
X107823000Y-60833000D01*
X107823000Y-60813000D01*
X108077000Y-60813000D01*
X108077000Y-60833000D01*
X109219915Y-60833000D01*
X109227790Y-60818665D01*
X114135000Y-60818665D01*
X114135000Y-61101335D01*
X114190147Y-61378574D01*
X114298320Y-61639727D01*
X114455363Y-61874759D01*
X114655241Y-62074637D01*
X114890273Y-62231680D01*
X114900865Y-62236067D01*
X114714869Y-62347615D01*
X114506481Y-62536586D01*
X114338963Y-62762580D01*
X114218754Y-63016913D01*
X114178096Y-63150961D01*
X114300085Y-63373000D01*
X115443000Y-63373000D01*
X115443000Y-63353000D01*
X115697000Y-63353000D01*
X115697000Y-63373000D01*
X116839915Y-63373000D01*
X116961904Y-63150961D01*
X116921246Y-63016913D01*
X116801037Y-62762580D01*
X116633519Y-62536586D01*
X116425131Y-62347615D01*
X116239135Y-62236067D01*
X116249727Y-62231680D01*
X116484759Y-62074637D01*
X116684637Y-61874759D01*
X116841680Y-61639727D01*
X116949853Y-61378574D01*
X117005000Y-61101335D01*
X117005000Y-60818665D01*
X116949853Y-60541426D01*
X116841680Y-60280273D01*
X116684637Y-60045241D01*
X116484759Y-59845363D01*
X116249727Y-59688320D01*
X116239135Y-59683933D01*
X116425131Y-59572385D01*
X116633519Y-59383414D01*
X116801037Y-59157420D01*
X116921246Y-58903087D01*
X116961904Y-58769039D01*
X116839915Y-58547000D01*
X115697000Y-58547000D01*
X115697000Y-58567000D01*
X115443000Y-58567000D01*
X115443000Y-58547000D01*
X114300085Y-58547000D01*
X114178096Y-58769039D01*
X114218754Y-58903087D01*
X114338963Y-59157420D01*
X114506481Y-59383414D01*
X114714869Y-59572385D01*
X114900865Y-59683933D01*
X114890273Y-59688320D01*
X114655241Y-59845363D01*
X114455363Y-60045241D01*
X114298320Y-60280273D01*
X114190147Y-60541426D01*
X114135000Y-60818665D01*
X109227790Y-60818665D01*
X109341904Y-60610961D01*
X109301246Y-60476913D01*
X109181037Y-60222580D01*
X109013519Y-59996586D01*
X108805131Y-59807615D01*
X108619135Y-59696067D01*
X108629727Y-59691680D01*
X108864759Y-59534637D01*
X109064637Y-59334759D01*
X109221680Y-59099727D01*
X109329853Y-58838574D01*
X109385000Y-58561335D01*
X109385000Y-58278665D01*
X109329853Y-58001426D01*
X109221680Y-57740273D01*
X109064637Y-57505241D01*
X108864759Y-57305363D01*
X108632241Y-57150000D01*
X108864759Y-56994637D01*
X109064637Y-56794759D01*
X109221680Y-56559727D01*
X109329853Y-56298574D01*
X109343684Y-56229039D01*
X114178096Y-56229039D01*
X114218754Y-56363087D01*
X114338963Y-56617420D01*
X114506481Y-56843414D01*
X114714869Y-57032385D01*
X114910982Y-57150000D01*
X114714869Y-57267615D01*
X114506481Y-57456586D01*
X114338963Y-57682580D01*
X114218754Y-57936913D01*
X114178096Y-58070961D01*
X114300085Y-58293000D01*
X115443000Y-58293000D01*
X115443000Y-56007000D01*
X115697000Y-56007000D01*
X115697000Y-58293000D01*
X116839915Y-58293000D01*
X116961904Y-58070961D01*
X116921246Y-57936913D01*
X116801037Y-57682580D01*
X116633519Y-57456586D01*
X116425131Y-57267615D01*
X116229018Y-57150000D01*
X116425131Y-57032385D01*
X116633519Y-56843414D01*
X116801037Y-56617420D01*
X116921246Y-56363087D01*
X116961904Y-56229039D01*
X116839915Y-56007000D01*
X115697000Y-56007000D01*
X115443000Y-56007000D01*
X114300085Y-56007000D01*
X114178096Y-56229039D01*
X109343684Y-56229039D01*
X109385000Y-56021335D01*
X109385000Y-55738665D01*
X109329853Y-55461426D01*
X109221680Y-55200273D01*
X109064637Y-54965241D01*
X108866039Y-54766643D01*
X108874482Y-54765812D01*
X108994180Y-54729502D01*
X109104494Y-54670537D01*
X109201185Y-54591185D01*
X109280537Y-54494494D01*
X109339502Y-54384180D01*
X109375812Y-54264482D01*
X109388072Y-54140000D01*
X109388072Y-52540000D01*
X109375812Y-52415518D01*
X109339502Y-52295820D01*
X109280537Y-52185506D01*
X109201185Y-52088815D01*
X109104494Y-52009463D01*
X108994180Y-51950498D01*
X108874482Y-51914188D01*
X108750000Y-51901928D01*
X107150000Y-51901928D01*
X107025518Y-51914188D01*
X106905820Y-51950498D01*
X106795506Y-52009463D01*
X106698815Y-52088815D01*
X106619463Y-52185506D01*
X106560498Y-52295820D01*
X106524188Y-52415518D01*
X106511928Y-52540000D01*
X102190852Y-52540000D01*
X102233314Y-52437490D01*
X102287000Y-52167592D01*
X102287000Y-51892408D01*
X102233314Y-51622510D01*
X102128005Y-51368273D01*
X101975120Y-51139465D01*
X101780535Y-50944880D01*
X101551727Y-50791995D01*
X101297490Y-50686686D01*
X101027592Y-50633000D01*
X100752408Y-50633000D01*
X100482510Y-50686686D01*
X100228273Y-50791995D01*
X99999465Y-50944880D01*
X99804880Y-51139465D01*
X99651995Y-51368273D01*
X99546686Y-51622510D01*
X99493000Y-51892408D01*
X97180000Y-51892408D01*
X97180000Y-48260000D01*
X106108057Y-48260000D01*
X106135764Y-48541309D01*
X106217818Y-48811808D01*
X106351068Y-49061101D01*
X106530392Y-49279608D01*
X106748899Y-49458932D01*
X106937507Y-49559745D01*
X111817080Y-54439319D01*
X111868286Y-54501714D01*
X112117248Y-54706031D01*
X112401285Y-54857852D01*
X112709484Y-54951343D01*
X112949678Y-54975000D01*
X112949680Y-54975000D01*
X113030000Y-54982911D01*
X113110319Y-54975000D01*
X114463182Y-54975000D01*
X114338963Y-55142580D01*
X114218754Y-55396913D01*
X114178096Y-55530961D01*
X114300085Y-55753000D01*
X115443000Y-55753000D01*
X115443000Y-55733000D01*
X115697000Y-55733000D01*
X115697000Y-55753000D01*
X116839915Y-55753000D01*
X116961904Y-55530961D01*
X116921246Y-55396913D01*
X116801037Y-55142580D01*
X116633519Y-54916586D01*
X116431524Y-54733413D01*
X116482752Y-54706031D01*
X116731714Y-54501714D01*
X116936031Y-54252752D01*
X117087852Y-53968715D01*
X117181343Y-53660516D01*
X117212911Y-53340000D01*
X117181343Y-53019484D01*
X117087852Y-52711285D01*
X116936031Y-52427248D01*
X116731714Y-52178286D01*
X116482752Y-51973969D01*
X116198715Y-51822148D01*
X115890516Y-51728657D01*
X115650322Y-51705000D01*
X113707239Y-51705000D01*
X112019361Y-50017122D01*
X122555000Y-50017122D01*
X122555000Y-51142878D01*
X122774625Y-52247004D01*
X123205433Y-53287067D01*
X123830870Y-54223100D01*
X124626900Y-55019130D01*
X125562933Y-55644567D01*
X126602996Y-56075375D01*
X127707122Y-56295000D01*
X128832878Y-56295000D01*
X129937004Y-56075375D01*
X130977067Y-55644567D01*
X131913100Y-55019130D01*
X132709130Y-54223100D01*
X133334567Y-53287067D01*
X133765375Y-52247004D01*
X133985000Y-51142878D01*
X133985000Y-50017122D01*
X133765375Y-48912996D01*
X133334567Y-47872933D01*
X132709130Y-46936900D01*
X131913100Y-46140870D01*
X130977067Y-45515433D01*
X129937004Y-45084625D01*
X128832878Y-44865000D01*
X127707122Y-44865000D01*
X126602996Y-45084625D01*
X125562933Y-45515433D01*
X124626900Y-46140870D01*
X123830870Y-46936900D01*
X123205433Y-47872933D01*
X122774625Y-48912996D01*
X122555000Y-50017122D01*
X112019361Y-50017122D01*
X109649745Y-47647507D01*
X109548932Y-47458899D01*
X109369608Y-47240392D01*
X109151101Y-47061068D01*
X109023259Y-46992735D01*
X109252839Y-46842601D01*
X109454500Y-46644895D01*
X109613715Y-46411646D01*
X109724367Y-46151818D01*
X109741904Y-46069039D01*
X109619915Y-45847000D01*
X108077000Y-45847000D01*
X108077000Y-45867000D01*
X107823000Y-45867000D01*
X107823000Y-45847000D01*
X106280085Y-45847000D01*
X106158096Y-46069039D01*
X106175633Y-46151818D01*
X106286285Y-46411646D01*
X106445500Y-46644895D01*
X106647161Y-46842601D01*
X106876741Y-46992735D01*
X106748899Y-47061068D01*
X106530392Y-47240392D01*
X106351068Y-47458899D01*
X106217818Y-47708192D01*
X106135764Y-47978691D01*
X106108057Y-48260000D01*
X97180000Y-48260000D01*
X97180000Y-45720000D01*
X113728057Y-45720000D01*
X113755764Y-46001309D01*
X113837818Y-46271808D01*
X113971068Y-46521101D01*
X114150392Y-46739608D01*
X114263482Y-46832419D01*
X114245518Y-46834188D01*
X114125820Y-46870498D01*
X114015506Y-46929463D01*
X113918815Y-47008815D01*
X113839463Y-47105506D01*
X113780498Y-47215820D01*
X113744188Y-47335518D01*
X113731928Y-47460000D01*
X113731928Y-49060000D01*
X113744188Y-49184482D01*
X113780498Y-49304180D01*
X113839463Y-49414494D01*
X113918815Y-49511185D01*
X114015506Y-49590537D01*
X114125820Y-49649502D01*
X114245518Y-49685812D01*
X114370000Y-49698072D01*
X116770000Y-49698072D01*
X116894482Y-49685812D01*
X117014180Y-49649502D01*
X117124494Y-49590537D01*
X117221185Y-49511185D01*
X117300537Y-49414494D01*
X117359502Y-49304180D01*
X117395812Y-49184482D01*
X117408072Y-49060000D01*
X117408072Y-47460000D01*
X117395812Y-47335518D01*
X117359502Y-47215820D01*
X117300537Y-47105506D01*
X117221185Y-47008815D01*
X117124494Y-46929463D01*
X117014180Y-46870498D01*
X116894482Y-46834188D01*
X116876518Y-46832419D01*
X116989608Y-46739608D01*
X117168932Y-46521101D01*
X117302182Y-46271808D01*
X117384236Y-46001309D01*
X117411943Y-45720000D01*
X117384236Y-45438691D01*
X117302182Y-45168192D01*
X117168932Y-44918899D01*
X116989608Y-44700392D01*
X116771101Y-44521068D01*
X116643259Y-44452735D01*
X116872839Y-44302601D01*
X117074500Y-44104895D01*
X117233715Y-43871646D01*
X117344367Y-43611818D01*
X117361904Y-43529039D01*
X117239915Y-43307000D01*
X115697000Y-43307000D01*
X115697000Y-43327000D01*
X115443000Y-43327000D01*
X115443000Y-43307000D01*
X113900085Y-43307000D01*
X113778096Y-43529039D01*
X113795633Y-43611818D01*
X113906285Y-43871646D01*
X114065500Y-44104895D01*
X114267161Y-44302601D01*
X114496741Y-44452735D01*
X114368899Y-44521068D01*
X114150392Y-44700392D01*
X113971068Y-44918899D01*
X113837818Y-45168192D01*
X113755764Y-45438691D01*
X113728057Y-45720000D01*
X97180000Y-45720000D01*
X97180000Y-43180000D01*
X106108057Y-43180000D01*
X106135764Y-43461309D01*
X106217818Y-43731808D01*
X106351068Y-43981101D01*
X106530392Y-44199608D01*
X106748899Y-44378932D01*
X106876741Y-44447265D01*
X106647161Y-44597399D01*
X106445500Y-44795105D01*
X106286285Y-45028354D01*
X106175633Y-45288182D01*
X106158096Y-45370961D01*
X106280085Y-45593000D01*
X107823000Y-45593000D01*
X107823000Y-45573000D01*
X108077000Y-45573000D01*
X108077000Y-45593000D01*
X109619915Y-45593000D01*
X109741904Y-45370961D01*
X109724367Y-45288182D01*
X109613715Y-45028354D01*
X109454500Y-44795105D01*
X109252839Y-44597399D01*
X109023259Y-44447265D01*
X109151101Y-44378932D01*
X109369608Y-44199608D01*
X109548932Y-43981101D01*
X109682182Y-43731808D01*
X109764236Y-43461309D01*
X109791943Y-43180000D01*
X109764236Y-42898691D01*
X109682182Y-42628192D01*
X109548932Y-42378899D01*
X109369608Y-42160392D01*
X109151101Y-41981068D01*
X109023259Y-41912735D01*
X109252839Y-41762601D01*
X109454500Y-41564895D01*
X109613715Y-41331646D01*
X109724367Y-41071818D01*
X109741904Y-40989039D01*
X109619915Y-40767000D01*
X108077000Y-40767000D01*
X108077000Y-40787000D01*
X107823000Y-40787000D01*
X107823000Y-40767000D01*
X106280085Y-40767000D01*
X106158096Y-40989039D01*
X106175633Y-41071818D01*
X106286285Y-41331646D01*
X106445500Y-41564895D01*
X106647161Y-41762601D01*
X106876741Y-41912735D01*
X106748899Y-41981068D01*
X106530392Y-42160392D01*
X106351068Y-42378899D01*
X106217818Y-42628192D01*
X106135764Y-42898691D01*
X106108057Y-43180000D01*
X97180000Y-43180000D01*
X97180000Y-40640000D01*
X113728057Y-40640000D01*
X113755764Y-40921309D01*
X113837818Y-41191808D01*
X113971068Y-41441101D01*
X114150392Y-41659608D01*
X114368899Y-41838932D01*
X114496741Y-41907265D01*
X114267161Y-42057399D01*
X114065500Y-42255105D01*
X113906285Y-42488354D01*
X113795633Y-42748182D01*
X113778096Y-42830961D01*
X113900085Y-43053000D01*
X115443000Y-43053000D01*
X115443000Y-43033000D01*
X115697000Y-43033000D01*
X115697000Y-43053000D01*
X117239915Y-43053000D01*
X117361904Y-42830961D01*
X117344367Y-42748182D01*
X117233715Y-42488354D01*
X117074500Y-42255105D01*
X116872839Y-42057399D01*
X116643259Y-41907265D01*
X116771101Y-41838932D01*
X116989608Y-41659608D01*
X117168932Y-41441101D01*
X117302182Y-41191808D01*
X117384236Y-40921309D01*
X117411943Y-40640000D01*
X117384236Y-40358691D01*
X117302182Y-40088192D01*
X117168932Y-39838899D01*
X116989608Y-39620392D01*
X116771101Y-39441068D01*
X116643259Y-39372735D01*
X116872839Y-39222601D01*
X117074500Y-39024895D01*
X117233715Y-38791646D01*
X117344367Y-38531818D01*
X117361904Y-38449039D01*
X117239915Y-38227000D01*
X115697000Y-38227000D01*
X115697000Y-38247000D01*
X115443000Y-38247000D01*
X115443000Y-38227000D01*
X113900085Y-38227000D01*
X113778096Y-38449039D01*
X113795633Y-38531818D01*
X113906285Y-38791646D01*
X114065500Y-39024895D01*
X114267161Y-39222601D01*
X114496741Y-39372735D01*
X114368899Y-39441068D01*
X114150392Y-39620392D01*
X113971068Y-39838899D01*
X113837818Y-40088192D01*
X113755764Y-40358691D01*
X113728057Y-40640000D01*
X97180000Y-40640000D01*
X97180000Y-38100000D01*
X106108057Y-38100000D01*
X106135764Y-38381309D01*
X106217818Y-38651808D01*
X106351068Y-38901101D01*
X106530392Y-39119608D01*
X106748899Y-39298932D01*
X106876741Y-39367265D01*
X106647161Y-39517399D01*
X106445500Y-39715105D01*
X106286285Y-39948354D01*
X106175633Y-40208182D01*
X106158096Y-40290961D01*
X106280085Y-40513000D01*
X107823000Y-40513000D01*
X107823000Y-40493000D01*
X108077000Y-40493000D01*
X108077000Y-40513000D01*
X109619915Y-40513000D01*
X109741904Y-40290961D01*
X109724367Y-40208182D01*
X109613715Y-39948354D01*
X109454500Y-39715105D01*
X109252839Y-39517399D01*
X109023259Y-39367265D01*
X109151101Y-39298932D01*
X109369608Y-39119608D01*
X109548932Y-38901101D01*
X109682182Y-38651808D01*
X109764236Y-38381309D01*
X109791943Y-38100000D01*
X109764236Y-37818691D01*
X109682182Y-37548192D01*
X109548932Y-37298899D01*
X109369608Y-37080392D01*
X109151101Y-36901068D01*
X109023259Y-36832735D01*
X109252839Y-36682601D01*
X109454500Y-36484895D01*
X109613715Y-36251646D01*
X109724367Y-35991818D01*
X109741904Y-35909039D01*
X109619915Y-35687000D01*
X108077000Y-35687000D01*
X108077000Y-35707000D01*
X107823000Y-35707000D01*
X107823000Y-35687000D01*
X106280085Y-35687000D01*
X106158096Y-35909039D01*
X106175633Y-35991818D01*
X106286285Y-36251646D01*
X106445500Y-36484895D01*
X106647161Y-36682601D01*
X106876741Y-36832735D01*
X106748899Y-36901068D01*
X106530392Y-37080392D01*
X106351068Y-37298899D01*
X106217818Y-37548192D01*
X106135764Y-37818691D01*
X106108057Y-38100000D01*
X97180000Y-38100000D01*
X97180000Y-33952408D01*
X99493000Y-33952408D01*
X99493000Y-34227592D01*
X99546686Y-34497490D01*
X99651995Y-34751727D01*
X99804880Y-34980535D01*
X99999465Y-35175120D01*
X100228273Y-35328005D01*
X100482510Y-35433314D01*
X100752408Y-35487000D01*
X101027592Y-35487000D01*
X101297490Y-35433314D01*
X101551727Y-35328005D01*
X101780535Y-35175120D01*
X101975120Y-34980535D01*
X102128005Y-34751727D01*
X102233314Y-34497490D01*
X102287000Y-34227592D01*
X102287000Y-33952408D01*
X102233314Y-33682510D01*
X102128005Y-33428273D01*
X101975120Y-33199465D01*
X101795655Y-33020000D01*
X106108057Y-33020000D01*
X106135764Y-33301309D01*
X106217818Y-33571808D01*
X106351068Y-33821101D01*
X106530392Y-34039608D01*
X106748899Y-34218932D01*
X106876741Y-34287265D01*
X106647161Y-34437399D01*
X106445500Y-34635105D01*
X106286285Y-34868354D01*
X106175633Y-35128182D01*
X106158096Y-35210961D01*
X106280085Y-35433000D01*
X107823000Y-35433000D01*
X107823000Y-35413000D01*
X108077000Y-35413000D01*
X108077000Y-35433000D01*
X109619915Y-35433000D01*
X109741904Y-35210961D01*
X109724367Y-35128182D01*
X109613715Y-34868354D01*
X109454500Y-34635105D01*
X109252839Y-34437399D01*
X109023259Y-34287265D01*
X109151101Y-34218932D01*
X109369608Y-34039608D01*
X109548932Y-33821101D01*
X109682182Y-33571808D01*
X109764236Y-33301309D01*
X109791943Y-33020000D01*
X109764236Y-32738691D01*
X109743691Y-32670961D01*
X113778096Y-32670961D01*
X113900085Y-32893000D01*
X115443000Y-32893000D01*
X115443000Y-31585000D01*
X115043000Y-31585000D01*
X114765486Y-31637350D01*
X114503517Y-31742834D01*
X114267161Y-31897399D01*
X114065500Y-32095105D01*
X113906285Y-32328354D01*
X113795633Y-32588182D01*
X113778096Y-32670961D01*
X109743691Y-32670961D01*
X109682182Y-32468192D01*
X109548932Y-32218899D01*
X109369608Y-32000392D01*
X109151101Y-31821068D01*
X108901808Y-31687818D01*
X108631309Y-31605764D01*
X108420492Y-31585000D01*
X107479508Y-31585000D01*
X107268691Y-31605764D01*
X106998192Y-31687818D01*
X106748899Y-31821068D01*
X106530392Y-32000392D01*
X106351068Y-32218899D01*
X106217818Y-32468192D01*
X106135764Y-32738691D01*
X106108057Y-33020000D01*
X101795655Y-33020000D01*
X101780535Y-33004880D01*
X101551727Y-32851995D01*
X101297490Y-32746686D01*
X101027592Y-32693000D01*
X100752408Y-32693000D01*
X100482510Y-32746686D01*
X100228273Y-32851995D01*
X99999465Y-33004880D01*
X99804880Y-33199465D01*
X99651995Y-33428273D01*
X99546686Y-33682510D01*
X99493000Y-33952408D01*
X97180000Y-33952408D01*
X97180000Y-30055565D01*
X100104040Y-30055565D01*
X100171020Y-30295656D01*
X100420048Y-30412756D01*
X100687135Y-30479023D01*
X100962017Y-30491910D01*
X101234133Y-30450922D01*
X101493023Y-30357636D01*
X101608980Y-30295656D01*
X101675960Y-30055565D01*
X100890000Y-29269605D01*
X100104040Y-30055565D01*
X97180000Y-30055565D01*
X97180000Y-29162017D01*
X99488090Y-29162017D01*
X99529078Y-29434133D01*
X99622364Y-29693023D01*
X99684344Y-29808980D01*
X99924435Y-29875960D01*
X100710395Y-29090000D01*
X101069605Y-29090000D01*
X101855565Y-29875960D01*
X102095656Y-29808980D01*
X102212756Y-29559952D01*
X102279023Y-29292865D01*
X102291910Y-29017983D01*
X102250922Y-28745867D01*
X102157636Y-28486977D01*
X102095656Y-28371020D01*
X101855565Y-28304040D01*
X101069605Y-29090000D01*
X100710395Y-29090000D01*
X99924435Y-28304040D01*
X99684344Y-28371020D01*
X99567244Y-28620048D01*
X99500977Y-28887135D01*
X99488090Y-29162017D01*
X97180000Y-29162017D01*
X97180000Y-28124435D01*
X100104040Y-28124435D01*
X100890000Y-28910395D01*
X101675960Y-28124435D01*
X101608980Y-27884344D01*
X101359952Y-27767244D01*
X101092865Y-27700977D01*
X100817983Y-27688090D01*
X100545867Y-27729078D01*
X100286977Y-27822364D01*
X100171020Y-27884344D01*
X100104040Y-28124435D01*
X97180000Y-28124435D01*
X97180000Y-23952408D01*
X99493000Y-23952408D01*
X99493000Y-24227592D01*
X99546686Y-24497490D01*
X99651995Y-24751727D01*
X99804880Y-24980535D01*
X99999465Y-25175120D01*
X100228273Y-25328005D01*
X100482510Y-25433314D01*
X100752408Y-25487000D01*
X101027592Y-25487000D01*
X101297490Y-25433314D01*
X101551727Y-25328005D01*
X101780535Y-25175120D01*
X101975120Y-24980535D01*
X102128005Y-24751727D01*
X102233314Y-24497490D01*
X102287000Y-24227592D01*
X102287000Y-23952408D01*
X102233314Y-23682510D01*
X102128005Y-23428273D01*
X101975120Y-23199465D01*
X101780535Y-23004880D01*
X101551727Y-22851995D01*
X101297490Y-22746686D01*
X101027592Y-22693000D01*
X100752408Y-22693000D01*
X100482510Y-22746686D01*
X100228273Y-22851995D01*
X99999465Y-23004880D01*
X99804880Y-23199465D01*
X99651995Y-23428273D01*
X99546686Y-23682510D01*
X99493000Y-23952408D01*
X97180000Y-23952408D01*
X97180000Y-19710000D01*
X150876471Y-19710000D01*
X150788657Y-19999484D01*
%TD*%
M02*
