M48
; DRILL file {KiCad (5.1.5)-3} date 20.11.2020 20:56:19
; FORMAT={2:4/ absolute / inch / keep zeros}
; #@! TF.CreationDate,2020-11-20T20:56:19+01:00
; #@! TF.GenerationSoftware,Kicad,Pcbnew,(5.1.5)-3
FMAT,2
INCH
T1C0.0157
T2C0.0315
T3C0.0433
T4C0.1181
T5C0.1693
T6C0.1181
T7C0.3543
%
G90
G05
T1
X039969Y-017378
X060000Y-027000
X061950Y-013300
T2
X042500Y-021000
X042500Y-022000
X042500Y-023000
X042500Y-024000
X042500Y-025000
X042500Y-026000
X042500Y-027000
X045500Y-021000
X045500Y-022000
X045500Y-023000
X045500Y-024000
X045500Y-025000
X045500Y-026000
X045500Y-027000
X042500Y-013000
X042500Y-014000
X042500Y-015000
X042500Y-016000
X042500Y-017000
X042500Y-018000
X042500Y-019000
X045500Y-013000
X045500Y-014000
X045500Y-015000
X045500Y-016000
X045500Y-017000
X045500Y-018000
X045500Y-019000
X058000Y-009000
X058000Y-012000
X059000Y-009000
X059000Y-012000
X060000Y-009000
X060000Y-012000
X061000Y-009000
X061000Y-012000
X062000Y-009000
X062000Y-012000
X063000Y-009000
X063000Y-012000
X064000Y-009000
X064000Y-012000
T3
X043500Y-009500
X044500Y-009500
X045500Y-009500
X039720Y-020484
X039720Y-022453
X039720Y-024421
X039720Y-009484
X039720Y-011453
X039720Y-013421
X065250Y-009150
X069250Y-009150
T4
X057298Y-019468
X057598Y-021554
X058173Y-017551
X058978Y-023147
X059946Y-016411
X061000Y-023740
X062053Y-016411
X063022Y-023146
X063826Y-017551
X064402Y-021554
X064702Y-019467
T5
X072929Y-012323
X072929Y-019409
X072929Y-026496
X050500Y-012827
X050500Y-019913
X050500Y-027000
T7
X061000Y-020000
T6
G00X060970Y-018086
M15
G01X060970Y-018874
M16
G05
T0
M30
